<svg width="320" height="151" viewBox="0 0 320 151" fill="none" xmlns="http://www.w3.org/2000/svg">
<g clip-path="url(#clip0_620_125)">
<path d="M290.398 84.2482C290.023 84.2193 289.647 84.1615 289.272 84.1327C289.272 83.9883 289.301 83.8728 289.301 83.7285C289.301 68.3109 276.808 55.8093 261.401 55.8093C255.111 55.8093 249.341 57.917 244.667 61.4394C233.934 25.1474 199.946 -1.03941 159.986 0.0288475C120.025 -1.03941 86.0374 25.1474 75.3332 61.4394C70.6591 57.917 64.8887 55.8093 58.5989 55.8093C43.1918 55.8093 30.6988 68.3109 30.6988 83.7285C30.6988 83.8728 30.7276 83.9883 30.7276 84.1327C30.3526 84.1615 29.9775 84.2193 29.6024 84.2482C-12.2622 88.6944 -8.59793 151 33.4975 151H159.986H286.503C328.598 151 332.233 88.6944 290.398 84.2482Z" fill="white"/>
</g>
<defs>
<clipPath id="clip0_620_125">
<rect width="320" height="151" fill="white"/>
</clipPath>
</defs>
</svg>
