<svg width="180" height="180" viewBox="0 0 180 180" fill="none" xmlns="http://www.w3.org/2000/svg">
<g clip-path="url(#clip0_23_240)">
<path d="M89.9982 180C77.8498 180 66.0645 177.619 54.9656 172.925C44.2477 168.391 34.6244 161.904 26.3593 153.638C18.0961 145.375 11.6065 135.75 7.07299 125.032C2.38054 113.934 0 102.149 0 90C0 77.8514 2.38054 66.0641 7.0748 54.9667C11.6083 44.2486 18.0961 34.6251 26.3612 26.3599C34.6244 18.0965 44.2495 11.6067 54.9674 7.07313C66.0627 2.38059 77.8498 0 89.9982 0C104.137 0 117.671 3.18616 130.227 9.46998C132.055 10.3857 132.796 12.6092 131.882 14.4389C130.966 16.2668 128.742 17.0091 126.913 16.0934C115.395 10.3279 102.976 7.40547 89.9982 7.40547C78.8469 7.40547 68.0315 9.58919 57.85 13.8952C48.0154 18.0549 39.1814 24.01 31.5955 31.5979C24.0095 39.184 18.0527 48.0182 13.8931 57.853C9.58899 68.031 7.40533 78.8484 7.40533 90C7.40533 101.152 9.58899 111.967 13.8949 122.147C18.0545 131.982 24.0095 140.816 31.5973 148.402C39.1832 155.988 48.0172 161.945 57.8518 166.105C68.0315 170.411 78.8487 172.595 90 172.595C101.151 172.595 111.967 170.411 122.148 166.105C131.983 161.945 140.815 155.99 148.403 148.402C155.989 140.816 161.945 131.982 166.105 122.147C170.411 111.967 172.595 101.15 172.595 89.9982C172.595 74.369 168.209 59.1553 159.915 46.0024C158.824 44.2721 159.343 41.9854 161.071 40.8945C162.802 39.8035 165.088 40.3219 166.179 42.0505C175.221 56.3882 180 72.9674 180 89.9964C180 102.145 177.619 113.931 172.925 125.03C168.392 135.748 161.904 145.371 153.639 153.637C145.376 161.9 135.75 168.39 125.033 172.923C113.932 177.619 102.147 180 89.9982 180Z" fill="#FF0000"/>
<path d="M130.234 133.94C129.286 133.94 128.34 133.579 127.615 132.856L47.143 52.3802C45.6981 50.9334 45.6981 48.589 47.143 47.144C48.5898 45.6972 50.9342 45.6972 52.3791 47.144L132.852 127.618C134.297 129.065 134.297 131.409 132.852 132.854C132.129 133.579 131.183 133.94 130.234 133.94Z" fill="#FF0000"/>
<path d="M49.7602 133.94C48.8119 133.94 47.8655 133.578 47.1412 132.856C45.6963 131.409 45.6963 129.065 47.1412 127.62L127.614 47.1458C129.06 45.699 131.405 45.699 132.85 47.1458C134.295 48.5925 134.295 50.937 132.85 52.382L52.3791 132.856C51.6567 133.578 50.7084 133.94 49.7602 133.94Z" fill="#FF0000"/>
</g>
<defs>
<clipPath id="clip0_23_240">
<rect width="180" height="180" fill="white"/>
</clipPath>
</defs>
</svg>
