<svg width="180" height="180" viewBox="0 0 180 180" fill="none" xmlns="http://www.w3.org/2000/svg">
<g clip-path="url(#clip0_23_217)">
<path d="M89.9982 180C77.8498 180 66.0627 177.619 54.9656 172.925C44.2477 168.391 34.6244 161.904 26.3593 153.638C18.0961 145.375 11.6065 135.75 7.07299 125.032C2.38054 113.934 0 102.149 0 90C0 77.8514 2.38054 66.0641 7.0748 54.9667C11.6083 44.2486 18.0961 34.6251 26.3612 26.3599C34.6244 18.0965 44.2495 11.6067 54.9674 7.07313C66.0627 2.38059 77.8498 0 89.9982 0C104.137 0 117.672 3.18616 130.227 9.46998C132.055 10.3857 132.796 12.6092 131.882 14.4389C130.966 16.2668 128.742 17.0073 126.913 16.0934C115.395 10.3279 102.976 7.40547 89.9982 7.40547C78.8469 7.40547 68.0315 9.58919 57.85 13.8952C48.0154 18.0549 39.1832 24.01 31.5955 31.5979C24.0095 39.184 18.0527 48.0182 13.8931 57.853C9.58899 68.031 7.40533 78.8484 7.40533 90C7.40533 101.152 9.58899 111.967 13.8949 122.147C18.0545 131.982 24.0095 140.816 31.5973 148.402C39.1832 155.988 48.0172 161.945 57.8518 166.105C68.0315 170.411 78.8487 172.595 90 172.595C101.151 172.595 111.967 170.411 122.148 166.105C131.983 161.945 140.817 155.99 148.403 148.402C155.989 140.816 161.945 131.982 166.105 122.147C170.411 111.967 172.595 101.15 172.595 89.9982C172.595 74.369 168.209 59.1553 159.915 46.0024C158.824 44.2721 159.343 41.9854 161.071 40.8945C162.802 39.8035 165.088 40.3219 166.179 42.0505C175.221 56.3882 180 72.9674 180 89.9964C180 102.145 177.619 113.931 172.927 125.03C168.393 135.748 161.906 145.371 153.641 153.637C145.377 161.9 135.752 168.39 125.034 172.923C113.932 177.619 102.147 180 89.9982 180Z" fill="#49FF2B"/>
<path d="M78.9227 136.414L42.8588 105.002C41.3163 103.659 41.1555 101.319 42.4993 99.7788C43.8431 98.2363 46.1821 98.0755 47.7228 99.4175L78.8559 126.532L138.738 72.8987C140.26 71.535 142.601 71.6633 143.967 73.1859C145.33 74.7086 145.202 77.0494 143.68 78.4149L78.9227 136.414Z" fill="#49FF2B"/>
</g>
<defs>
<clipPath id="clip0_23_217">
<rect width="180" height="180" fill="white"/>
</clipPath>
</defs>
</svg>
