<svg width="50" height="50" viewBox="0 0 50 50" fill="none" xmlns="http://www.w3.org/2000/svg">
<path fill-rule="evenodd" clip-rule="evenodd" d="M25.9797 3.8039C32.8889 3.8039 36.813 9.05482 40.8926 13.9267C43.9538 17.579 48.0373 20.0902 48.0373 25.1895C48.0373 32.9527 44.7406 38.812 38.3837 42.542C35.0058 44.5197 31.5527 47.8678 27.3158 47.8678C19.4655 47.8678 9.65551 44.1397 5.73032 38.2036C3.61036 34.8546 2.27524 29.3753 2.27524 25.1895C2.27524 17.7315 6.12224 10.8819 12.009 7.00129C15.5423 4.79324 21.5072 3.8039 25.9797 3.8039ZM26.1361 2.73873C33.5945 2.73873 37.8314 8.37064 42.1505 13.5458C45.4463 17.5032 49.8405 20.167 49.8405 25.6463C49.8405 33.9421 46.2301 40.2581 39.4813 44.2913C35.8709 46.4226 32.102 50 27.5514 50C19.1517 50 8.63411 46.0416 4.39519 39.5739C2.11887 36.0724 0.705566 30.1363 0.705566 25.6463C0.705566 17.6557 4.78811 10.2735 11.2242 6.16354C14.9128 3.72807 21.3509 2.73873 26.1361 2.73873Z" fill="#563429"/>
<path fill-rule="evenodd" clip-rule="evenodd" d="M25.7443 1.06519C32.7327 1.06519 36.734 6.46772 40.8928 11.3396C44.0351 15.0677 48.1157 17.6557 48.1157 22.8308C48.1157 30.6688 44.7408 36.6817 38.3057 40.4865C34.9278 42.4652 31.3174 45.89 27.0805 45.89C19.0737 45.89 9.1054 42.0843 5.18021 35.9966C2.98307 32.6485 1.64795 27.0924 1.64795 22.8308C1.64795 15.297 5.49494 8.29483 11.5381 4.33744C15.0703 2.05358 21.1135 1.06519 25.7443 1.06519Z" fill="#C3854B"/>
<path fill-rule="evenodd" clip-rule="evenodd" d="M40.0308 19.4818C40.58 19.025 41.2887 18.8734 41.837 18.4167C42.2289 18.0357 42.5426 17.6557 42.8564 17.2747C43.0127 16.8947 43.3275 16.6654 43.562 16.3612C43.8758 15.9054 44.5844 16.437 44.9763 15.5244C45.3682 15.7528 45.682 15.9812 45.9957 16.2096C45.2901 16.1328 44.5844 16.2854 43.9539 16.6654C43.8757 16.6654 43.4838 17.4273 43.0127 17.8073C41.6014 18.9492 42.0725 18.7967 40.0308 19.4818Z" fill="#9A6D45"/>
<path fill-rule="evenodd" clip-rule="evenodd" d="M40.0308 19.4818C40.58 19.025 41.2095 18.7208 41.6796 18.265C42.1507 17.9599 42.4644 17.5031 42.7782 17.1231C42.9345 16.8189 43.2483 16.5128 43.4838 16.2854C43.7976 15.7528 44.5062 16.2854 44.8981 15.3728C45.2119 15.6012 45.6038 15.8286 45.9175 16.057C45.2119 16.057 44.5062 16.2096 43.8757 16.5128C43.7976 16.5896 43.4057 17.1231 42.9346 17.5789C41.5233 18.7209 42.0725 18.7967 40.0308 19.4818Z" fill="#632918"/>
<path fill-rule="evenodd" clip-rule="evenodd" d="M5.96477 20.6986C5.41648 21.1563 5.02256 21.7647 4.47428 22.1447C4.00318 22.4508 3.53208 22.6792 3.06098 22.9066C2.66906 22.9834 2.35532 23.2108 2.03958 23.3634C1.4913 23.5908 1.88321 24.3528 0.785645 24.5044C0.94201 24.8853 1.09939 25.2663 1.33394 25.6463C1.41312 24.9611 1.72685 24.3528 2.19695 23.8202C2.27514 23.7434 3.06097 23.515 3.61026 23.2108C5.10175 22.1447 4.78801 22.5266 5.96477 20.6986Z" fill="#9A6D45"/>
<path fill-rule="evenodd" clip-rule="evenodd" d="M5.96487 20.6986C5.41659 21.1563 4.94448 21.6889 4.39519 22.0689C3.92509 22.3731 3.45299 22.6024 2.98289 22.8308C2.59098 22.9066 2.27524 23.135 1.96151 23.2108C1.33404 23.4392 1.72696 24.277 0.705566 24.4286C0.863937 24.8086 1.0203 25.1128 1.17767 25.4947C1.33403 24.8086 1.64777 24.2002 2.11887 23.6676C2.11887 23.5908 2.82553 23.3634 3.37481 23.0592C4.8663 21.9931 4.78812 22.5266 5.96487 20.6986Z" fill="#632918"/>
<path fill-rule="evenodd" clip-rule="evenodd" d="M13.5787 37.2901L13.8132 42.9978L11.146 41.5517L13.5787 37.2901Z" fill="#9A6D45"/>
<path fill-rule="evenodd" clip-rule="evenodd" d="M13.5786 37.2142L12.873 42.4651L10.0474 40.9432L13.5786 37.2142Z" fill="#632918"/>
<path fill-rule="evenodd" clip-rule="evenodd" d="M22.213 5.09741L22.6049 0.684231L20.3296 1.06519L21.5073 3.04292L22.213 5.09741Z" fill="#9A6D45"/>
<path fill-rule="evenodd" clip-rule="evenodd" d="M22.2129 5.09741L22.1348 0.760038L19.8574 1.06519L21.0352 3.04292L22.2129 5.09741Z" fill="#632918"/>
<path fill-rule="evenodd" clip-rule="evenodd" d="M36.8914 34.2463C37.2833 34.7789 37.9107 35.2356 38.2265 35.844C38.462 36.3008 38.6194 36.7575 38.854 37.2901C38.854 37.5943 39.0895 37.9743 39.1677 38.2805C39.325 38.8879 40.1089 38.5837 40.1871 39.6498C40.58 39.4982 40.9709 39.4204 41.3668 39.2678C40.6582 39.1162 40.1089 38.7362 39.5596 38.2037C39.5596 38.1279 39.4814 37.3659 39.1677 36.7575C38.2265 35.2356 38.6194 35.5398 36.8914 34.2463Z" fill="#9A6D45"/>
<path fill-rule="evenodd" clip-rule="evenodd" d="M36.8914 34.2462C37.2833 34.7788 37.7534 35.3123 38.0671 35.9207C38.3057 36.3765 38.5402 36.8333 38.6976 37.3659C38.6976 37.7459 38.9321 38.052 39.0113 38.3562C39.1677 38.9646 40.0307 38.6604 40.0307 39.7265C40.4226 39.5739 40.8145 39.4981 41.2095 39.3446C40.5008 39.192 39.9525 38.812 39.4814 38.2804C39.4032 38.2036 39.2469 37.5185 38.9321 36.9859C38.0671 35.464 38.6194 35.5398 36.8914 34.2462Z" fill="#632918"/>
<path fill-rule="evenodd" clip-rule="evenodd" d="M25.7442 1.06519C32.7326 1.06519 36.7339 6.46772 40.8927 11.3396C44.035 15.0677 48.1156 17.6557 48.1156 22.8308C48.1156 30.6688 44.7407 36.6817 38.3056 40.4865C34.9277 42.4652 31.3173 45.89 27.0804 45.89C19.0736 45.89 9.10531 42.0842 5.18013 35.9966C2.98299 32.6485 1.64786 27.0924 1.64786 22.8308C1.64786 15.297 5.49486 8.29483 11.538 4.33744C15.0703 2.05358 21.1134 1.06519 25.7442 1.06519ZM25.9016 3.8147e-05C33.4382 3.8147e-05 37.7533 5.70774 42.1506 10.9577C45.5255 14.9909 50 17.7315 50 23.2866C50 31.734 46.3094 38.1278 39.4032 42.2368C35.7928 44.4439 31.9447 48.0213 27.3941 48.0213C18.8381 48.0213 8.08392 43.9881 3.847 37.4417C1.49149 33.8662 0 27.8524 0 23.2866C0 15.2193 4.23892 7.68546 10.675 3.49969C14.521 1.06519 20.957 3.8147e-05 25.9016 3.8147e-05Z" fill="#7E3824"/>
<path d="M32.75 30.75L16.25 14.25" stroke="white" stroke-width="2" stroke-linecap="round" stroke-linejoin="round"/>
<path d="M32.75 14.25L16.25 30.75" stroke="white" stroke-width="2" stroke-linecap="round" stroke-linejoin="round"/>
</svg>
