<svg width="50" height="50" viewBox="0 0 50 50" fill="none" xmlns="http://www.w3.org/2000/svg">
<path fill-rule="evenodd" clip-rule="evenodd" d="M26.022 3.87956C32.9391 3.87956 36.8715 9.13137 40.9596 13.9264C44.0246 17.6553 48.1126 20.0908 48.1126 25.19C48.1126 32.953 44.7313 38.8122 38.4427 42.6179C35.0635 44.5966 31.5256 47.8688 27.3573 47.8688C19.4974 47.8688 9.66891 44.2166 5.7395 38.2038C3.53687 34.9297 2.27995 29.4505 2.27995 25.19C2.27995 17.807 6.05272 10.8826 12.0271 7.07884C15.565 4.79503 21.4611 3.87956 26.022 3.87956ZM26.1786 2.7396C33.6489 2.7396 37.8926 8.37042 42.2185 13.6232C45.5205 17.5028 49.9207 20.2424 49.9207 25.7226C49.9207 34.0172 46.3055 40.3341 39.4667 44.3682C35.9268 46.4975 32.154 50 27.5932 50C19.1832 50 8.6479 46.0417 4.40426 39.649C2.12332 36.0726 0.706787 30.2134 0.706787 25.7226C0.706786 17.7311 4.79581 10.3501 11.1638 6.24016C14.9366 3.80376 21.3045 2.7396 26.1786 2.7396Z" fill="#563429"/>
<path fill-rule="evenodd" clip-rule="evenodd" d="M25.7861 1.13992C32.7826 1.13992 36.7933 6.46754 40.9596 11.4152C44.0247 15.1431 48.193 17.6553 48.193 22.8303C48.193 30.7459 44.8107 36.6809 38.3645 40.4857C34.9842 42.5411 31.369 45.8891 27.1214 45.8891C19.105 45.8891 9.11882 42.1611 5.11111 36.0726C2.90847 32.7256 1.57324 27.0938 1.57324 22.8303C1.57324 15.2947 5.50264 8.29459 11.5574 4.41502C15.0942 2.1312 21.147 1.13992 25.7861 1.13992Z" fill="#C3854B"/>
<path fill-rule="evenodd" clip-rule="evenodd" d="M40.0161 19.4824C40.6446 19.1015 41.3513 18.8741 41.8232 18.4173C42.295 18.1112 42.6113 17.6554 42.9255 17.2744C43.0831 16.9712 43.3964 16.7428 43.6323 16.4386C43.9465 15.9819 44.6533 16.5144 45.0458 15.5261C45.3631 15.7545 45.7556 15.9819 46.0698 16.287C45.3631 16.2102 44.6533 16.3628 44.0248 16.666C43.9465 16.7428 43.554 17.427 43.0831 17.807C41.6666 19.0257 42.1364 18.7982 40.0161 19.4824Z" fill="#9A6D45"/>
<path fill-rule="evenodd" clip-rule="evenodd" d="M40.0161 19.4824C40.6446 19.1015 41.1947 18.7224 41.7449 18.3415C42.1364 17.9586 42.533 17.5786 42.8472 17.1986C43.0038 16.8186 43.3181 16.5902 43.554 16.287C43.8682 15.8303 44.575 16.3628 44.9675 15.3706C45.2838 15.6787 45.599 15.9061 45.9905 16.1345C45.2034 16.0577 44.575 16.2103 43.9465 16.5144C43.8682 16.5902 43.4757 17.1986 42.9255 17.5786C41.5883 18.7224 42.1364 18.7982 40.0161 19.4824Z" fill="#632918"/>
<path fill-rule="evenodd" clip-rule="evenodd" d="M5.89621 20.7749C5.42436 21.2336 5.03281 21.842 4.48266 22.222C4.0078 22.5262 3.53696 22.7545 3.06612 22.9819C2.67258 23.0587 2.35833 23.2871 2.0451 23.4387C1.49494 23.5903 1.80917 24.43 0.785156 24.5816C0.94177 24.9626 1.10041 25.3416 1.25904 25.6467C1.41665 24.9626 1.72987 24.3542 2.20172 23.8187C2.28003 23.7429 3.06611 23.5903 3.53696 23.2103C5.03282 22.1462 4.79589 22.5262 5.89621 20.7749Z" fill="#9A6D45"/>
<path fill-rule="evenodd" clip-rule="evenodd" d="M5.97443 20.7749C5.42428 21.2336 4.95341 21.6894 4.32495 22.0704C3.9294 22.3736 3.38026 22.602 2.90841 22.8303C2.59418 22.9061 2.27993 23.1345 1.96671 23.2871C1.33824 23.5145 1.7298 24.2774 0.706787 24.43C0.863401 24.809 1.02001 25.19 1.18064 25.5699C1.33826 24.8858 1.57317 24.2774 2.04502 23.7429C2.12332 23.6671 2.8301 23.4387 3.38026 23.0587C4.7958 21.9946 4.79581 22.5262 5.97443 20.7749Z" fill="#632918"/>
<path fill-rule="evenodd" clip-rule="evenodd" d="M13.523 37.3652L13.8372 42.9969L11.0854 41.5528L13.523 37.3652Z" fill="#9A6D45"/>
<path fill-rule="evenodd" clip-rule="evenodd" d="M13.523 37.2893L12.8132 42.5411L10.0635 41.0173L13.523 37.2893Z" fill="#632918"/>
<path fill-rule="evenodd" clip-rule="evenodd" d="M22.2492 5.09924L22.6428 0.684198L20.3618 1.13998L21.5394 3.11961L22.2492 5.09924Z" fill="#9A6D45"/>
<path fill-rule="evenodd" clip-rule="evenodd" d="M22.2491 5.09924L22.1708 0.760004L19.8899 1.13998L21.0685 3.11961L22.2491 5.09924Z" fill="#632918"/>
<path fill-rule="evenodd" clip-rule="evenodd" d="M36.9497 34.2456C37.3432 34.8539 37.8924 35.2339 38.286 35.8452C38.5209 36.301 38.6785 36.8336 38.8351 37.2894C38.9144 37.6703 39.071 37.9735 39.2277 38.3565C39.3873 38.889 40.1724 38.6606 40.2527 39.649C40.6442 39.5732 41.0377 39.4206 41.4293 39.3448C40.7225 39.1174 40.094 38.7364 39.6242 38.2806C39.6242 38.2039 39.4666 37.3652 39.1493 36.8336C38.286 35.2339 38.6002 35.6168 36.9497 34.2456Z" fill="#9A6D45"/>
<path fill-rule="evenodd" clip-rule="evenodd" d="M36.9497 34.2456C37.3432 34.854 37.8141 35.3885 38.1284 35.921C38.3643 36.3778 38.5209 36.9094 38.7568 37.3652C38.7568 37.7461 38.9927 38.0493 39.071 38.4332C39.2276 38.9648 40.0157 38.7364 40.094 39.7258C40.4876 39.649 40.8811 39.4974 41.2727 39.4206C40.5659 39.1932 40.0157 38.8122 39.5449 38.3565C39.4666 38.2807 39.309 37.5945 38.9927 37.062C38.1283 35.4643 38.6002 35.6168 36.9497 34.2456Z" fill="#632918"/>
<path fill-rule="evenodd" clip-rule="evenodd" d="M25.7861 1.13998C32.7825 1.13998 36.7932 6.46759 40.9596 11.4152C44.0246 15.1432 48.1929 17.6554 48.1929 22.8304C48.1929 30.746 44.8106 36.681 38.3644 40.4857C34.9841 42.5412 31.369 45.8892 27.1213 45.8892C19.1049 45.8892 9.11874 42.1612 5.11103 36.0726C2.90839 32.7256 1.57316 27.0938 1.57316 22.8304C1.57316 15.2948 5.50256 8.29464 11.5573 4.41507C15.0942 2.13126 21.1469 1.13998 25.7861 1.13998ZM25.9437 1.96361e-05C33.4913 1.97998e-05 37.8142 5.78342 42.2185 11.0342C45.5987 15.0674 50 17.807 50 23.363C50 31.7334 46.3838 38.2039 39.4667 42.3128C35.8485 44.444 31.9964 48.0962 27.3572 48.0962C18.7907 48.0962 8.09773 44.065 3.77277 37.5168C1.41654 33.8656 -4.99262e-07 27.9296 -6.12318e-07 23.363C-8.13938e-07 15.219 4.16733 7.68627 10.6919 3.50057C14.544 1.06418 20.9903 1.95287e-05 25.9437 1.96361e-05Z" fill="#7E3824"/>
<path d="M25 26.5C26.933 26.5 28.5 24.933 28.5 23C28.5 21.067 26.933 19.5 25 19.5C23.067 19.5 21.5 21.067 21.5 23C21.5 24.933 23.067 26.5 25 26.5Z" stroke="white" stroke-width="2" stroke-linecap="round" stroke-linejoin="round"/>
<path d="M32.8484 26.1818C32.7072 26.5017 32.6651 26.8565 32.7275 27.2006C32.7899 27.5447 32.9539 27.8621 33.1984 28.1121L33.262 28.1757C33.4593 28.3727 33.6157 28.6067 33.7225 28.8642C33.8292 29.1217 33.8842 29.3977 33.8842 29.6765C33.8842 29.9553 33.8292 30.2313 33.7225 30.4888C33.6157 30.7463 33.4593 30.9802 33.262 31.1773C33.065 31.3745 32.8311 31.5309 32.5736 31.6377C32.3161 31.7444 32.04 31.7994 31.7613 31.7994C31.4825 31.7994 31.2065 31.7444 30.949 31.6377C30.6915 31.5309 30.4575 31.3745 30.2605 31.1773L30.1969 31.1136C29.9469 30.8691 29.6294 30.7051 29.2854 30.6427C28.9413 30.5803 28.5865 30.6224 28.2666 30.7636C27.9529 30.8981 27.6854 31.1213 27.4969 31.4059C27.3085 31.6904 27.2073 32.0238 27.206 32.3651V32.5454C27.206 33.108 26.9825 33.6476 26.5847 34.0454C26.1869 34.4432 25.6473 34.6666 25.0848 34.6666C24.5222 34.6666 23.9826 34.4432 23.5848 34.0454C23.187 33.6476 22.9636 33.108 22.9636 32.5454V32.45C22.9553 32.0989 22.8417 31.7585 22.6374 31.4728C22.4331 31.1872 22.1477 30.9697 21.8181 30.8485C21.4982 30.7073 21.1433 30.6652 20.7993 30.7276C20.4552 30.7899 20.1378 30.954 19.8878 31.1985L19.8242 31.2621C19.6272 31.4593 19.3932 31.6158 19.1357 31.7225C18.8782 31.8293 18.6022 31.8842 18.3234 31.8842C18.0446 31.8842 17.7686 31.8293 17.5111 31.7225C17.2536 31.6158 17.0196 31.4593 16.8226 31.2621C16.6254 31.0651 16.469 30.8312 16.3622 30.5736C16.2555 30.3161 16.2005 30.0401 16.2005 29.7613C16.2005 29.4826 16.2555 29.2066 16.3622 28.949C16.469 28.6915 16.6254 28.4576 16.8226 28.2606L16.8863 28.1969C17.1308 27.947 17.2948 27.6295 17.3572 27.2855C17.4196 26.9414 17.3775 26.5865 17.2363 26.2666C17.1018 25.953 16.8786 25.6854 16.594 25.497C16.3095 25.3085 15.9761 25.2074 15.6348 25.206H15.4545C14.8919 25.206 14.3523 24.9826 13.9545 24.5848C13.5567 24.1869 13.3333 23.6474 13.3333 23.0848C13.3333 22.5222 13.5567 21.9827 13.9545 21.5849C14.3523 21.1871 14.8919 20.9636 15.4545 20.9636H15.5499C15.901 20.9554 16.2414 20.8418 16.5271 20.6375C16.8127 20.4332 17.0302 20.1477 17.1514 19.8182C17.2926 19.4983 17.3347 19.1434 17.2723 18.7994C17.21 18.4553 17.0459 18.1378 16.8014 17.8879L16.7378 17.8242C16.5406 17.6272 16.3841 17.3933 16.2774 17.1358C16.1706 16.8783 16.1157 16.6022 16.1157 16.3235C16.1157 16.0447 16.1706 15.7687 16.2774 15.5112C16.3841 15.2537 16.5406 15.0197 16.7378 14.8227C16.9348 14.6255 17.1687 14.469 17.4263 14.3623C17.6838 14.2555 17.9598 14.2006 18.2386 14.2006C18.5173 14.2006 18.7933 14.2555 19.0509 14.3623C19.3084 14.469 19.5423 14.6255 19.7393 14.8227L19.8029 14.8863C20.0529 15.1309 20.3704 15.2949 20.7144 15.3573C21.0585 15.4196 21.4134 15.3775 21.7333 15.2363H21.8181C22.1318 15.1019 22.3993 14.8787 22.5878 14.5941C22.7762 14.3096 22.8773 13.9761 22.8787 13.6348V13.4545C22.8787 12.8919 23.1022 12.3524 23.5 11.9546C23.8978 11.5568 24.4373 11.3333 24.9999 11.3333C25.5625 11.3333 26.102 11.5568 26.4998 11.9546C26.8976 12.3524 27.1211 12.8919 27.1211 13.4545V13.55C27.1225 13.8913 27.2236 14.2247 27.4121 14.5093C27.6005 14.7938 27.868 15.017 28.1817 15.1515C28.5016 15.2927 28.8565 15.3348 29.2005 15.2724C29.5446 15.21 29.8621 15.046 30.112 14.8015L30.1757 14.7379C30.3727 14.5406 30.6066 14.3842 30.8641 14.2774C31.1216 14.1707 31.3977 14.1157 31.6764 14.1157C31.9552 14.1157 32.2312 14.1707 32.4887 14.2774C32.7462 14.3842 32.9802 14.5406 33.1772 14.7379C33.3744 14.9349 33.5309 15.1688 33.6376 15.4263C33.7444 15.6838 33.7993 15.9599 33.7993 16.2386C33.7993 16.5174 33.7444 16.7934 33.6376 17.0509C33.5309 17.3084 33.3744 17.5424 33.1772 17.7394L33.1136 17.803C32.869 18.053 32.705 18.3705 32.6426 18.7145C32.5803 19.0586 32.6224 19.4134 32.7636 19.7333V19.8182C32.898 20.1319 33.1212 20.3994 33.4058 20.5878C33.6903 20.7763 34.0238 20.8774 34.3651 20.8788H34.5454C35.108 20.8788 35.6475 21.1023 36.0453 21.5001C36.4431 21.8979 36.6666 22.4374 36.6666 23C36.6666 23.5626 36.4431 24.1021 36.0453 24.4999C35.6475 24.8977 35.108 25.1212 34.5454 25.1212H34.4499C34.1086 25.1226 33.7752 25.2237 33.4906 25.4121C33.2061 25.6006 32.9828 25.8681 32.8484 26.1818Z" stroke="white" stroke-width="2" stroke-linecap="round" stroke-linejoin="round"/>
</svg>
