<svg width="50" height="50" viewBox="0 0 50 50" fill="none" xmlns="http://www.w3.org/2000/svg">
<path fill-rule="evenodd" clip-rule="evenodd" d="M25.9425 3.8039C32.8615 3.8039 36.8711 9.05482 40.881 13.9267C43.9469 17.579 48.0341 20.0902 48.0341 25.1895C48.0341 32.9527 44.7324 38.812 38.3649 42.542C34.9848 44.5197 31.5247 47.8678 27.2791 47.8678C19.4181 47.8678 9.59038 44.1397 5.66054 38.2036C3.53729 34.8546 2.20044 29.3753 2.20044 25.1895C2.20044 17.7315 6.05308 10.8819 12.0282 7.00129C15.4867 4.79324 21.4613 3.8039 25.9425 3.8039ZM26.1795 2.73873C33.5694 2.73873 37.815 8.37064 42.1379 13.5458C45.4407 17.5032 49.8436 20.167 49.8436 25.6463C49.8436 33.9421 46.3047 40.2581 39.4656 44.2913C35.8487 46.4226 32.0756 50 27.5947 50C19.104 50 8.56917 46.0416 4.40249 39.5739C2.04352 36.0724 0.628662 30.1363 0.628662 25.6463C0.628662 17.6557 4.79544 10.2735 11.1626 6.16354C14.9372 3.72807 21.3044 2.73873 26.1795 2.73873Z" fill="#563429"/>
<path fill-rule="evenodd" clip-rule="evenodd" d="M25.707 1.06519C32.7828 1.06519 36.7927 6.46772 40.881 11.3396C44.0254 15.0677 48.1922 17.6557 48.1922 22.8308C48.1922 30.6688 44.811 36.6817 38.286 40.4865C34.9064 42.4652 31.3675 45.89 27.0439 45.89C19.1041 45.89 9.04112 42.0843 5.10967 35.9966C2.90922 32.6485 1.57227 27.0924 1.57227 22.8308C1.57227 15.297 5.4237 8.29483 11.4784 4.33744C15.0942 2.05358 21.1477 1.06519 25.707 1.06519Z" fill="#C3854B"/>
<path fill-rule="evenodd" clip-rule="evenodd" d="M40.0159 19.4818C40.5656 19.025 41.2735 18.8734 41.8238 18.4167C42.2163 18.0357 42.532 17.6557 42.9246 17.2747C43.0814 16.8947 43.3955 16.6654 43.5528 16.3612C43.9469 15.9054 44.5752 16.437 45.0465 15.5244C45.3619 15.7528 45.676 15.9812 45.9905 16.2096C45.2835 16.1328 44.5752 16.2854 43.9469 16.6654C43.8681 16.6654 43.5528 17.4273 43.003 17.8073C41.5876 18.9492 42.0594 18.7967 40.0159 19.4818Z" fill="#9A6D45"/>
<path fill-rule="evenodd" clip-rule="evenodd" d="M40.0159 19.4818C40.5656 19.025 41.1951 18.7208 41.7453 18.265C42.1379 17.9599 42.4527 17.5031 42.7673 17.1231C42.9246 16.8189 43.2386 16.5128 43.4744 16.2854C43.7897 15.7528 44.4968 16.2854 44.8893 15.3728C45.2835 15.6012 45.5976 15.8286 45.9116 16.057C45.205 16.057 44.4968 16.2096 43.8681 16.5128C43.7897 16.5896 43.3955 17.1231 42.9246 17.5789C41.5092 18.7209 42.0594 18.7967 40.0159 19.4818Z" fill="#632918"/>
<path fill-rule="evenodd" clip-rule="evenodd" d="M5.89613 20.6986C5.34516 21.1563 4.95181 21.7647 4.40245 22.1447C4.0083 22.4508 3.45844 22.6792 2.98749 22.9066C2.59455 22.9834 2.27881 23.2108 1.96467 23.3634C1.41532 23.5908 1.80786 24.3528 0.707031 24.5044C0.942758 24.8853 1.09957 25.2663 1.2576 25.6463C1.33641 24.9611 1.65054 24.3528 2.12199 23.8202C2.2004 23.7434 2.98749 23.515 3.53726 23.2108C5.03103 22.1447 4.71649 22.5266 5.89613 20.6986Z" fill="#9A6D45"/>
<path fill-rule="evenodd" clip-rule="evenodd" d="M5.89617 20.6986C5.3452 21.1563 4.87385 21.6889 4.32399 22.0689C3.85143 22.3731 3.38007 22.6024 2.90912 22.8308C2.51498 22.9066 2.20044 23.135 1.88631 23.2108C1.33644 23.4392 1.65058 24.277 0.628662 24.4286C0.785077 24.8086 0.942798 25.1128 1.09961 25.4947C1.25763 24.8086 1.57217 24.2002 2.04352 23.6676C2.12203 23.5908 2.7514 23.3634 3.30167 23.0592C4.79544 21.9931 4.71653 22.5266 5.89617 20.6986Z" fill="#632918"/>
<path fill-rule="evenodd" clip-rule="evenodd" d="M13.5219 37.2901L13.7572 42.9978L11.0842 41.5517L13.5219 37.2901Z" fill="#9A6D45"/>
<path fill-rule="evenodd" clip-rule="evenodd" d="M13.5217 37.2142L12.8135 42.4651L9.98438 40.9432L13.5217 37.2142Z" fill="#632918"/>
<path fill-rule="evenodd" clip-rule="evenodd" d="M22.1695 5.09741L22.5621 0.684231L20.2832 1.06519L21.4613 3.04292L22.1695 5.09741Z" fill="#9A6D45"/>
<path fill-rule="evenodd" clip-rule="evenodd" d="M22.1694 5.09741L22.091 0.760038L19.8105 1.06519L20.9902 3.04292L22.1694 5.09741Z" fill="#632918"/>
<path fill-rule="evenodd" clip-rule="evenodd" d="M36.8711 34.2463C37.2636 34.7789 37.8934 35.2356 38.2075 35.844C38.4437 36.3008 38.679 36.7575 38.8362 37.2901C38.8362 37.5943 39.0715 37.9743 39.1504 38.2805C39.3088 38.8879 40.1724 38.5837 40.1724 39.6498C40.5656 39.4982 40.9594 39.4204 41.3523 39.2678C40.6441 39.1162 40.0939 38.7362 39.6229 38.2037C39.5445 38.1279 39.4656 37.3659 39.1504 36.7575C38.2075 35.2356 38.6005 35.5398 36.8711 34.2463Z" fill="#9A6D45"/>
<path fill-rule="evenodd" clip-rule="evenodd" d="M36.8711 34.2462C37.2636 34.7788 37.735 35.3123 38.0511 35.9207C38.3649 36.3765 38.5221 36.8333 38.679 37.3659C38.679 37.7459 38.9146 38.052 38.993 38.3562C39.1503 38.9646 40.0159 38.6604 40.0159 39.7265C40.4084 39.5739 40.881 39.4981 41.2735 39.3446C40.5656 39.192 39.9374 38.812 39.4656 38.2804C39.3872 38.2036 39.3088 37.5185 38.9146 36.9859C38.0511 35.464 38.6005 35.5398 36.8711 34.2462Z" fill="#632918"/>
<path fill-rule="evenodd" clip-rule="evenodd" d="M25.7069 1.06519C32.7827 1.06519 36.7926 6.46772 40.881 11.3396C44.0253 15.0677 48.1921 17.6557 48.1921 22.8308C48.1921 30.6688 44.8109 36.6817 38.286 40.4865C34.9063 42.4652 31.3674 45.89 27.0438 45.89C19.104 45.89 9.04103 42.0842 5.10958 35.9966C2.90913 32.6485 1.57218 27.0924 1.57218 22.8308C1.57218 15.297 5.42361 8.29483 11.4783 4.33744C15.0941 2.05358 21.1476 1.06519 25.7069 1.06519ZM25.8645 3.8147e-05C33.491 3.8147e-05 37.735 5.70774 42.1379 10.9577C45.5191 14.9909 50 17.7315 50 23.2866C50 31.734 46.3831 38.1278 39.4656 42.2368C35.7699 44.4439 31.9188 48.0213 27.3579 48.0213C18.7894 48.0213 8.01821 43.9881 3.77263 37.4417C1.41536 33.8662 0 27.8524 0 23.2866C0 15.2193 4.16678 7.68546 10.6132 3.49969C14.4654 1.06519 20.9903 3.8147e-05 25.8645 3.8147e-05Z" fill="#7E3824"/>
<path d="M15.2499 22.9998C15.2499 17.615 19.6151 13.2498 24.9999 13.2498C28.0628 13.2498 30.7958 14.6621 32.5833 16.871" stroke="white" stroke-width="2" stroke-linecap="round" stroke-linejoin="round"/>
<path d="M33.125 13.2498L33.125 17.5831L28.7917 17.5831" stroke="white" stroke-width="2" stroke-linecap="round" stroke-linejoin="round"/>
<path d="M34.7501 22.9998C34.7501 28.3845 30.3849 32.7498 25.0001 32.7498C21.9372 32.7498 19.2042 31.3375 17.4167 29.1285" stroke="white" stroke-width="2" stroke-linecap="round" stroke-linejoin="round"/>
<path d="M16.875 32.7498L16.875 28.4164L21.2083 28.4164" stroke="white" stroke-width="2" stroke-linecap="round" stroke-linejoin="round"/>
</svg>
