<svg width="50" height="50" viewBox="0 0 50 50" fill="none" xmlns="http://www.w3.org/2000/svg">
<path fill-rule="evenodd" clip-rule="evenodd" d="M25.9798 3.80475C32.889 3.80475 36.8132 9.05654 40.8927 13.9264C43.9539 17.5795 48.0374 20.0917 48.0374 25.19C48.0374 32.953 44.7407 38.8132 38.3838 42.5402C35.0059 44.5966 31.5529 47.8688 27.316 47.8688C19.4656 47.8688 9.65563 44.1398 5.73045 38.2048C3.61049 34.853 2.27536 29.3767 2.27536 25.19C2.27536 17.8079 6.12236 10.8826 12.0091 7.07692C15.5424 4.79504 21.5074 3.80475 25.9798 3.80475ZM26.1362 2.73865C33.5946 2.73865 37.8316 8.37044 42.1507 13.5464C45.4464 17.5038 49.8407 20.1676 49.8407 25.6458C49.8407 33.9414 46.2302 40.2573 39.4814 44.2924C35.871 46.4236 32.1021 50 27.5515 50C19.1518 50 8.63423 46.0407 4.39532 39.5732C2.11899 36.0726 0.705688 30.2134 0.705688 25.6458C0.705688 17.7321 4.78824 10.2743 11.2243 6.16437C14.9129 3.80475 21.351 2.73865 26.1362 2.73865Z" fill="#563429"/>
<path fill-rule="evenodd" clip-rule="evenodd" d="M25.7442 1.14096C32.7326 1.14096 36.7339 6.46859 40.8926 11.3394C44.035 15.0684 48.1156 17.6564 48.1156 22.8304C48.1156 30.6692 44.7406 36.681 38.3056 40.4848C34.9277 42.5402 31.3172 45.8892 27.0803 45.8892C19.0736 45.8892 9.10528 42.0844 5.18009 36.0726C2.98295 32.6489 1.64783 27.0929 1.64783 22.8304C1.64783 15.2967 5.49482 8.29467 11.538 4.4151C15.0702 2.13128 21.1134 1.14096 25.7442 1.14096Z" fill="#C3854B"/>
<path fill-rule="evenodd" clip-rule="evenodd" d="M40.0306 19.4824C40.5799 19.1014 41.2886 18.874 41.8369 18.4162C42.2288 18.1121 42.5425 17.6563 42.8562 17.2753C43.0126 16.9701 43.3274 16.666 43.5619 16.4386C43.8756 15.906 44.5843 16.4385 44.9762 15.5241C45.3681 15.7534 45.6819 15.9818 45.9956 16.2102C45.2899 16.2102 44.5843 16.3618 43.9538 16.666C43.8756 16.666 43.4837 17.4279 43.0126 17.8079C41.6013 18.9498 42.0724 18.7972 40.0306 19.4824Z" fill="#9A6D45"/>
<path fill-rule="evenodd" clip-rule="evenodd" d="M40.0306 19.4824C40.5799 19.1014 41.2094 18.7214 41.6795 18.2637C42.1506 17.9605 42.4643 17.5037 42.7781 17.1227C42.9344 16.8186 43.2482 16.5902 43.4837 16.286C43.7974 15.8302 44.5061 16.3618 44.898 15.3725C45.2117 15.6008 45.6037 15.8302 45.9174 16.1344C45.2118 16.0576 44.5061 16.2102 43.8756 16.5144C43.7974 16.5902 43.4055 17.1227 42.9344 17.5795C41.5231 18.7214 42.0724 18.7972 40.0306 19.4824Z" fill="#632918"/>
<path fill-rule="evenodd" clip-rule="evenodd" d="M5.96489 20.7759C5.41661 21.2317 5.02269 21.7662 4.4744 22.222C4.0033 22.5262 3.5322 22.7546 3.0611 22.983C2.66918 23.0598 2.35544 23.2872 2.0397 23.3639C1.49142 23.5914 1.88333 24.3533 0.785767 24.5816C0.942132 24.8858 1.09951 25.2658 1.33406 25.6458C1.41324 24.9616 1.72698 24.3533 2.19708 23.8197C2.27526 23.7439 3.0611 23.5913 3.61038 23.2114C5.10187 22.1462 4.78814 22.5262 5.96489 20.7759Z" fill="#9A6D45"/>
<path fill-rule="evenodd" clip-rule="evenodd" d="M5.96499 20.7001C5.41671 21.1559 4.9446 21.6895 4.39532 22.0704C3.92522 22.3746 3.45311 22.602 2.98301 22.8304C2.5911 22.9072 2.27536 23.1356 1.96163 23.2872C1.33416 23.5155 1.72708 24.2775 0.705688 24.4291C0.864059 24.8091 1.02042 25.19 1.17779 25.57C1.33416 24.8091 1.64789 24.1997 2.11899 23.6681C2.11899 23.6681 2.82565 23.4397 3.37493 23.0598C4.86642 21.9937 4.78824 22.5262 5.96499 20.7001Z" fill="#632918"/>
<path fill-rule="evenodd" clip-rule="evenodd" d="M13.5788 37.3652L13.8134 42.9969L11.1461 41.5528L13.5788 37.3652Z" fill="#9A6D45"/>
<path fill-rule="evenodd" clip-rule="evenodd" d="M13.5787 37.2135L12.8731 42.4644L10.0475 40.9444L13.5787 37.2135Z" fill="#632918"/>
<path fill-rule="evenodd" clip-rule="evenodd" d="M22.213 5.09924L22.6049 0.685148L20.3296 1.14093L21.5073 3.12057L22.213 5.09924Z" fill="#9A6D45"/>
<path fill-rule="evenodd" clip-rule="evenodd" d="M22.2129 5.09924L22.1348 0.760954L19.8574 1.14093L21.0352 3.12057L22.2129 5.09924Z" fill="#632918"/>
<path fill-rule="evenodd" clip-rule="evenodd" d="M36.8914 34.2456C37.2833 34.853 37.9107 35.2368 38.2265 35.8452C38.462 36.301 38.6194 36.8326 38.854 37.2894C38.854 37.6694 39.0895 37.9765 39.1677 38.2806C39.325 38.889 40.1089 38.5848 40.1871 39.649C40.58 39.4974 40.9709 39.4216 41.3668 39.269C40.6582 39.1164 40.1089 38.7364 39.5596 38.2048C39.5596 38.1281 39.4814 37.3652 39.1677 36.8326C38.2265 35.2369 38.6194 35.6159 36.8914 34.2456Z" fill="#9A6D45"/>
<path fill-rule="evenodd" clip-rule="evenodd" d="M36.8914 34.2456C37.2833 34.7772 37.7534 35.3127 38.0671 35.921C38.3057 36.3768 38.5402 36.9094 38.6976 37.3652C38.6976 37.7452 38.9321 38.0523 39.0113 38.4322C39.1677 38.9648 40.0307 38.7364 40.0307 39.7248C40.4226 39.649 40.8145 39.4974 41.2095 39.4216C40.5008 39.1922 39.9525 38.8132 39.4814 38.2806C39.4032 38.2048 39.2469 37.5935 38.9321 36.9852C38.0671 35.4643 38.6194 35.6159 36.8914 34.2456Z" fill="#632918"/>
<path fill-rule="evenodd" clip-rule="evenodd" d="M25.7442 1.14095C32.7326 1.14095 36.7339 6.46857 40.8927 11.3394C44.035 15.0684 48.1156 17.6563 48.1156 22.8304C48.1156 30.6692 44.7407 36.681 38.3056 40.4848C34.9277 42.5402 31.3173 45.8891 27.0804 45.8891C19.0736 45.8891 9.10531 42.0844 5.18013 36.0726C2.98299 32.6489 1.64786 27.0929 1.64786 22.8304C1.64786 15.2967 5.49486 8.29465 11.538 4.41509C15.0703 2.13127 21.1134 1.14095 25.7442 1.14095ZM25.9016 1.75693e-05C33.4382 1.75693e-05 37.7533 5.70761 42.1506 11.0352C45.5255 14.9925 50 17.7321 50 23.2872C50 31.7334 46.3094 38.2048 39.4032 42.237C35.7928 44.444 31.9448 48.0204 27.3941 48.0204C18.8381 48.0204 8.08392 43.9882 3.847 37.5177C1.49149 33.8656 0 27.9296 0 23.2872C0 15.22 4.23892 7.68627 10.675 3.50057C14.521 1.06515 20.957 1.75693e-05 25.9016 1.75693e-05Z" fill="#7E3824"/>
<path fill-rule="evenodd" clip-rule="evenodd" d="M15.384 34.3981H23.3125V28.3096H26.4529V34.3981H34.3784V25.2658H37.5188L24.8822 13.0139L12.2446 25.2658H15.384V34.3981ZM17.0328 12.5561H23.8608L23.5471 12.8623L17.1902 19.3298L16.8755 19.254V12.7845V12.5561H17.0328Z" fill="white"/>
<path d="M15.8561 34.0172H22.8414V27.9296H26.8448V28.3096V34.0172H33.9083V25.2658V24.809H34.3784H36.4984L24.8822 13.5464L13.265 24.809H15.384H15.8561V25.2658V34.0172ZM22.9196 12.9381H17.2684V18.7215L22.9196 12.9381ZM17.0328 12.1761H23.3907H23.8608H24.7248L24.1746 12.7845L23.8608 13.1664L18.7599 18.3405L24.5685 12.7087L24.8822 12.4045L25.1959 12.7087L37.8315 24.9616L38.5402 25.6458H37.5188H34.7713V34.3981V34.853H34.3784H26.4529H25.9798V34.3981V28.6906H23.7044V34.3981V34.853H23.2333H15.384H14.9921V34.3981V25.6458H12.2446H11.2242L11.9309 24.9616L17.2684 19.7856L17.112 19.7098L16.7181 19.634L16.4044 19.5582V19.254V12.7845V12.5561V12.1761H16.8755H17.0328Z" fill="#563429"/>
</svg>
