<svg width="50" height="50" viewBox="0 0 50 50" fill="none" xmlns="http://www.w3.org/2000/svg">
<path fill-rule="evenodd" clip-rule="evenodd" d="M25.9431 3.8039C32.9417 3.8039 36.8722 9.05482 40.88 13.9267C43.9471 17.579 48.0361 20.0902 48.0361 25.1895C48.0361 32.9527 44.7352 38.812 38.3641 42.542C35.062 44.5197 31.5261 47.8678 27.2814 47.8678C19.4184 47.8678 9.59269 44.1397 5.65919 38.2036C3.53884 34.8546 2.20158 29.3753 2.20158 25.1895C2.20158 17.7315 6.05274 10.8819 12.0273 7.00129C15.4889 4.79324 21.4635 3.8039 25.9431 3.8039ZM26.179 2.73873C33.5702 2.73873 37.8149 8.37064 42.1399 13.5458C45.4409 17.5032 49.8433 20.167 49.8433 25.6463C49.8433 33.9421 46.3063 40.2581 39.4664 44.2913C35.8512 46.4226 32.0753 50 27.5956 50C19.1835 50 8.56866 46.0416 4.40324 39.5739C2.04395 36.0724 0.630371 30.1363 0.630371 25.6463C0.630371 17.6557 4.7958 10.2735 11.1639 6.16354C14.9368 3.72807 21.3068 2.73873 26.179 2.73873Z" fill="#563429"/>
<path fill-rule="evenodd" clip-rule="evenodd" d="M25.7083 1.06519C32.7822 1.06519 36.794 6.46772 40.8801 11.3396C44.0255 15.0677 48.1939 17.6557 48.1939 22.8308C48.1939 30.6688 44.8136 36.6817 38.3642 40.4865C34.9056 42.4652 31.3686 45.89 27.0456 45.89C19.1053 45.89 9.11897 42.0843 5.11018 35.9966C2.9085 32.6485 1.57324 27.0924 1.57324 22.8308C1.57324 15.297 5.50272 8.29483 11.5556 4.33744C15.0935 2.05358 21.1494 1.06519 25.7083 1.06519Z" fill="#C3854B"/>
<path fill-rule="evenodd" clip-rule="evenodd" d="M40.0166 19.4818C40.5668 19.025 41.2736 18.8734 41.8257 18.4167C42.2183 18.0357 42.6118 17.6557 42.9251 17.2747C43.0827 16.8947 43.3969 16.6654 43.5535 16.3612C43.9471 15.9054 44.6559 16.437 45.0494 15.5244C45.3627 15.7528 45.6779 15.9812 45.9911 16.2096C45.2844 16.1328 44.5746 16.2854 43.9471 16.6654C43.8688 16.6654 43.5535 17.4273 43.0044 17.8073C41.6681 18.9492 42.0617 18.7967 40.0166 19.4818Z" fill="#9A6D45"/>
<path fill-rule="evenodd" clip-rule="evenodd" d="M40.0166 19.4818C40.5668 19.025 41.1952 18.7208 41.7474 18.265C42.14 17.9599 42.4542 17.5031 42.8467 17.1231C43.0044 16.8189 43.3186 16.5128 43.4752 16.2854C43.8688 15.7528 44.4963 16.2854 44.9711 15.3728C45.2844 15.6012 45.5996 15.8286 45.9128 16.057C45.206 16.057 44.4962 16.2096 43.8688 16.5128C43.7895 16.5896 43.3969 17.1231 42.9251 17.5789C41.5085 18.7209 42.0617 18.7967 40.0166 19.4818Z" fill="#632918"/>
<path fill-rule="evenodd" clip-rule="evenodd" d="M5.8962 20.6986C5.34603 21.1563 5.03181 21.7647 4.40333 22.1447C4.01078 22.4508 3.45759 22.6792 2.98674 22.9066C2.6725 22.9834 2.35827 23.2108 1.96572 23.3634C1.41656 23.5908 1.8081 24.3528 0.788086 24.5044C0.944703 24.8853 1.10131 25.2663 1.25894 25.6463C1.33724 24.9611 1.65149 24.3528 2.12335 23.8202C2.20166 23.7434 2.98674 23.515 3.53891 23.2108C5.0318 22.1447 4.71756 22.5266 5.8962 20.6986Z" fill="#9A6D45"/>
<path fill-rule="evenodd" clip-rule="evenodd" d="M5.89611 20.6986C5.34595 21.1563 4.8741 21.6889 4.32393 22.0689C3.85307 22.3731 3.3792 22.6024 2.90834 22.8308C2.51479 22.9066 2.20156 23.135 1.88632 23.2108C1.33716 23.4392 1.7297 24.277 0.630371 24.4286C0.787992 24.8086 0.944606 25.1128 1.17953 25.4947C1.25884 24.8086 1.57309 24.2002 2.04395 23.6676C2.12326 23.5908 2.75174 23.3634 3.3009 23.0592C4.79579 21.9931 4.71747 22.5266 5.89611 20.6986Z" fill="#632918"/>
<path fill-rule="evenodd" clip-rule="evenodd" d="M22.1714 5.09741L22.5629 0.684231L20.283 1.06519L21.4636 3.04292L22.1714 5.09741Z" fill="#9A6D45"/>
<path fill-rule="evenodd" clip-rule="evenodd" d="M22.1713 5.09741L22.092 0.760038L19.812 1.06519L20.9896 3.04292L22.1713 5.09741Z" fill="#632918"/>
<path fill-rule="evenodd" clip-rule="evenodd" d="M25.7083 1.06519C32.7822 1.06519 36.794 6.46772 40.8801 11.3396C44.0255 15.0677 48.1939 17.6557 48.1939 22.8308C48.1939 30.6688 44.8136 36.6817 38.3642 40.4865C34.9055 42.4652 31.3686 45.89 27.0456 45.89C19.1053 45.89 9.11894 42.0842 5.11015 35.9966C2.90847 32.6485 1.57322 27.0924 1.57322 22.8308C1.57322 15.297 5.50269 8.29483 11.5555 4.33744C15.0935 2.05358 21.1493 1.06519 25.7083 1.06519ZM25.9432 3.8147e-05C33.492 3.8147e-05 37.7357 5.70774 42.2183 10.9577C45.5203 14.9909 50 17.7315 50 23.2866C50 31.734 46.3848 38.1278 39.4665 42.2368C35.7699 44.4439 31.9188 48.0213 27.3608 48.0213C18.79 48.0213 8.01961 43.9881 3.77488 37.4417C1.41659 33.8662 0 27.8524 0 23.2866C0 15.2193 4.16742 7.68546 10.6921 3.49969C14.465 1.06519 20.9897 3.8147e-05 25.9432 3.8147e-05Z" fill="#7E3824"/>
<path d="M32.9297 23.5747C33.6966 23.0634 33.6966 21.9365 32.9297 21.4253L21.0499 13.5054C20.1915 12.9332 19.0417 13.5485 19.0417 14.5802V30.4198C19.0417 31.4515 20.1915 32.0668 21.0499 31.4946L32.9297 23.5747Z" stroke="white" stroke-width="2" stroke-linecap="round" stroke-linejoin="round"/>
</svg>
