<svg width="50" height="50" viewBox="0 0 50 50" fill="none" xmlns="http://www.w3.org/2000/svg">
<path fill-rule="evenodd" clip-rule="evenodd" d="M25.9425 3.8039C32.8615 3.8039 36.8711 9.05482 40.881 13.9267C43.9469 17.579 48.0341 20.0902 48.0341 25.1895C48.0341 32.9527 44.7324 38.812 38.3649 42.542C34.9848 44.5197 31.5247 47.8678 27.2791 47.8678C19.4181 47.8678 9.59038 44.1397 5.66054 38.2036C3.53729 34.8546 2.20044 29.3753 2.20044 25.1895C2.20044 17.7315 6.05308 10.8819 12.0282 7.00129C15.4867 4.79324 21.4613 3.8039 25.9425 3.8039ZM26.1795 2.73873C33.5694 2.73873 37.815 8.37064 42.1379 13.5458C45.4407 17.5032 49.8436 20.167 49.8436 25.6463C49.8436 33.9421 46.3047 40.2581 39.4656 44.2913C35.8487 46.4226 32.0756 50 27.5947 50C19.104 50 8.56917 46.0416 4.40249 39.5739C2.04352 36.0724 0.628662 30.1363 0.628662 25.6463C0.628662 17.6557 4.79544 10.2735 11.1626 6.16354C14.9372 3.72807 21.3044 2.73873 26.1795 2.73873Z" fill="#563429"/>
<path fill-rule="evenodd" clip-rule="evenodd" d="M25.7069 1.06522C32.7827 1.06522 36.7926 6.46775 40.8809 11.3397C44.0253 15.0677 48.1921 17.6557 48.1921 22.8309C48.1921 30.6689 44.8109 36.6817 38.2859 40.4866C34.9062 42.4652 31.3673 45.89 27.0437 45.89C19.1039 45.89 9.04099 42.0843 5.10954 35.9966C2.9091 32.6486 1.57214 27.0924 1.57214 22.8309C1.57214 15.297 5.42358 8.29486 11.4783 4.33747C15.0941 2.05361 21.1476 1.06522 25.7069 1.06522Z" fill="#C3854B"/>
<path fill-rule="evenodd" clip-rule="evenodd" d="M40.0159 19.4818C40.5656 19.025 41.2735 18.8734 41.8238 18.4167C42.2163 18.0357 42.532 17.6557 42.9246 17.2747C43.0814 16.8947 43.3955 16.6654 43.5528 16.3612C43.9469 15.9054 44.5752 16.437 45.0465 15.5244C45.3619 15.7528 45.676 15.9812 45.9905 16.2096C45.2835 16.1328 44.5752 16.2854 43.9469 16.6654C43.8681 16.6654 43.5528 17.4273 43.003 17.8073C41.5876 18.9492 42.0594 18.7967 40.0159 19.4818Z" fill="#9A6D45"/>
<path fill-rule="evenodd" clip-rule="evenodd" d="M40.0159 19.4818C40.5656 19.025 41.1951 18.7208 41.7453 18.265C42.1379 17.9599 42.4527 17.5031 42.7673 17.1231C42.9246 16.8189 43.2386 16.5128 43.4744 16.2854C43.7897 15.7528 44.4968 16.2854 44.8893 15.3728C45.2835 15.6012 45.5976 15.8286 45.9116 16.057C45.205 16.057 44.4968 16.2096 43.8681 16.5128C43.7897 16.5896 43.3955 17.1231 42.9246 17.5789C41.5092 18.7209 42.0594 18.7967 40.0159 19.4818Z" fill="#632918"/>
<path fill-rule="evenodd" clip-rule="evenodd" d="M5.89625 20.6986C5.34528 21.1564 4.95193 21.7647 4.40258 22.1447C4.00843 22.4509 3.45857 22.6792 2.98762 22.9067C2.59467 22.9834 2.27893 23.2109 1.9648 23.3634C1.41544 23.5909 1.80798 24.3528 0.707153 24.5044C0.94288 24.8854 1.0997 25.2663 1.25772 25.6463C1.33653 24.9612 1.65066 24.3528 2.12211 23.8202C2.20052 23.7434 2.98762 23.515 3.53738 23.2109C5.03115 22.1447 4.71661 22.5267 5.89625 20.6986Z" fill="#9A6D45"/>
<path fill-rule="evenodd" clip-rule="evenodd" d="M5.89617 20.6986C5.3452 21.1564 4.87385 21.6889 4.32399 22.0689C3.85143 22.3731 3.38007 22.6025 2.90912 22.8309C2.51498 22.9067 2.20044 23.1351 1.88631 23.2109C1.33644 23.4392 1.65058 24.277 0.628662 24.4286C0.785077 24.8086 0.942798 25.1128 1.09961 25.4947C1.25763 24.8086 1.57217 24.2002 2.04352 23.6676C2.12203 23.5909 2.7514 23.3634 3.30167 23.0592C4.79544 21.9931 4.71653 22.5267 5.89617 20.6986Z" fill="#632918"/>
<path fill-rule="evenodd" clip-rule="evenodd" d="M13.5219 37.2901L13.7572 42.9978L11.0842 41.5517L13.5219 37.2901Z" fill="#9A6D45"/>
<path fill-rule="evenodd" clip-rule="evenodd" d="M13.5218 37.2142L12.8136 42.4652L9.9845 40.9433L13.5218 37.2142Z" fill="#632918"/>
<path fill-rule="evenodd" clip-rule="evenodd" d="M22.1695 5.09744L22.5621 0.684261L20.2832 1.06522L21.4613 3.04295L22.1695 5.09744Z" fill="#9A6D45"/>
<path fill-rule="evenodd" clip-rule="evenodd" d="M22.1695 5.09744L22.0911 0.760069L19.8107 1.06522L20.9903 3.04295L22.1695 5.09744Z" fill="#632918"/>
<path fill-rule="evenodd" clip-rule="evenodd" d="M36.8711 34.2463C37.2636 34.7788 37.8934 35.2356 38.2075 35.844C38.4437 36.3007 38.679 36.7575 38.8362 37.2901C38.8362 37.5943 39.0715 37.9743 39.1504 38.2804C39.3088 38.8878 40.1724 38.5836 40.1724 39.6497C40.5656 39.4981 40.9594 39.4204 41.3523 39.2678C40.6441 39.1162 40.0939 38.7362 39.6229 38.2036C39.5445 38.1278 39.4656 37.3659 39.1504 36.7575C38.2075 35.2356 38.6005 35.5398 36.8711 34.2463Z" fill="#9A6D45"/>
<path fill-rule="evenodd" clip-rule="evenodd" d="M36.8711 34.2462C37.2636 34.7788 37.735 35.3123 38.0511 35.9207C38.3649 36.3765 38.5221 36.8333 38.679 37.3659C38.679 37.7459 38.9146 38.052 38.993 38.3562C39.1503 38.9646 40.0159 38.6604 40.0159 39.7265C40.4084 39.5739 40.881 39.4981 41.2735 39.3446C40.5656 39.192 39.9374 38.812 39.4656 38.2804C39.3872 38.2036 39.3088 37.5185 38.9146 36.9859C38.0511 35.464 38.6005 35.5398 36.8711 34.2462Z" fill="#632918"/>
<path fill-rule="evenodd" clip-rule="evenodd" d="M25.7069 1.06516C32.7827 1.06516 36.7926 6.46769 40.881 11.3396C44.0253 15.0676 48.1921 17.6557 48.1921 22.8308C48.1921 30.6688 44.8109 36.6817 38.286 40.4865C34.9063 42.4652 31.3674 45.89 27.0438 45.89C19.104 45.89 9.04103 42.0842 5.10958 35.9965C2.90913 32.6485 1.57218 27.0924 1.57218 22.8308C1.57218 15.297 5.42361 8.29479 11.4783 4.3374C15.0941 2.05355 21.1476 1.06516 25.7069 1.06516ZM25.8645 7.97902e-06C33.491 7.97902e-06 37.735 5.70771 42.1379 10.9577C45.5191 14.9909 50 17.7315 50 23.2866C50 31.734 46.3831 38.1278 39.4656 42.2368C35.7699 44.4439 31.9188 48.0213 27.3579 48.0213C18.7894 48.0213 8.01821 43.9881 3.77263 37.4417C1.41536 33.8662 0 27.8524 0 23.2866C0 15.2193 4.16678 7.68543 10.6132 3.49966C14.4654 1.06516 20.9903 7.97902e-06 25.8645 7.97902e-06Z" fill="#7E3824"/>
<path fill-rule="evenodd" clip-rule="evenodd" d="M24.8434 13.5458C19.7323 13.5458 15.4867 17.579 15.4867 22.6025H19.2609C19.2609 19.5576 21.777 17.1231 24.8434 17.1231C27.9873 17.1231 30.5039 19.5576 30.5039 22.6025C30.5039 25.5705 27.9873 28.005 24.8434 28.005H21.9342V26.1789L15.4867 29.8321L21.9342 33.4085V31.6582H24.8434C30.0314 31.6582 34.1981 27.5482 34.1981 22.6025C34.1981 17.579 30.0314 13.5458 24.8434 13.5458Z" fill="white"/>
<path d="M17.9243 15.9054C19.7322 14.1551 22.1695 13.089 24.8433 13.089C27.5147 13.089 29.9529 14.1551 31.7603 15.9054C33.491 17.579 34.5906 19.9386 34.5906 22.6025C34.5906 25.1895 33.491 27.5482 31.7603 29.2985C30.0313 30.974 27.5147 32.0382 24.8433 32.0382H22.4056V33.4085V34.0946L21.7769 33.7904L15.3297 30.1363L14.7014 29.8321L15.3297 29.4511L21.7769 25.8747L22.4056 25.4947V26.1789V27.625H24.8433C26.2578 27.625 27.5947 27.0166 28.5375 26.1021C29.481 25.2663 30.0313 23.9728 30.0313 22.6025C30.0313 21.2331 29.481 19.9386 28.5375 19.0251C27.5947 18.1125 26.2578 17.579 24.8433 17.579C23.4279 17.579 22.0911 18.1125 21.1475 19.0251C20.2047 19.9386 19.6538 21.2331 19.6538 22.6025V22.9834H19.2608H15.4866H15.0941V22.6025C15.0941 20.0144 16.1948 17.579 17.9243 15.9054ZM24.8433 13.9267C22.4056 13.9267 20.1251 14.9151 18.553 16.437C16.9804 17.9599 16.038 19.9386 15.9592 22.1447H18.8678C18.9467 20.6986 19.5749 19.4051 20.5977 18.4925C21.6985 17.4273 23.1923 16.7431 24.8433 16.7431C26.4936 16.7431 27.9872 17.4273 29.0885 18.4925C30.1877 19.4818 30.8964 21.0047 30.8964 22.6025C30.8964 24.2002 30.1877 25.6463 29.0885 26.7124C27.9872 27.7766 26.4936 28.3869 24.8433 28.3869H21.9341H21.5401V28.005V26.864L16.3525 29.8321L21.5401 32.7243V31.6582V31.2024H21.9341H24.8433C27.3579 31.2024 29.5595 30.2888 31.2105 28.6911C32.7827 27.1682 33.8051 24.9612 33.8051 22.6025C33.8051 20.167 32.7827 18.0357 31.2105 16.437C29.5595 14.9151 27.279 13.9267 24.8433 13.9267Z" fill="#563429"/>
</svg>
