<svg width="50" height="50" viewBox="0 0 50 50" fill="none" xmlns="http://www.w3.org/2000/svg">
<path fill-rule="evenodd" clip-rule="evenodd" d="M25.9425 3.87453C32.8615 3.87453 36.8711 9.11763 40.881 13.9061C43.9469 17.6284 48.0341 20.1359 48.0341 25.2284C48.0341 32.903 44.7324 38.8302 38.3649 42.5524C34.9848 44.5299 31.5247 47.8721 27.2791 47.8721C19.4181 47.8721 9.59038 44.1467 5.66054 38.1441C3.53729 34.8767 2.20044 29.4059 2.20044 25.2284C2.20044 17.78 6.05308 10.9416 12.0282 7.06501C15.4867 4.86431 21.4613 3.87453 25.9425 3.87453ZM26.1795 2.73513C33.5694 2.73513 37.815 8.4342 42.1379 13.6014C45.4407 17.5529 49.8436 20.2116 49.8436 25.6836C49.8436 33.9666 46.3047 40.2728 39.4656 44.301C35.8487 46.4271 32.0756 50 27.5947 50C19.104 50 8.56917 45.9719 4.40249 39.5898C2.04352 36.0187 0.628662 30.1677 0.628662 25.6836C0.628662 17.7042 4.79544 10.3352 11.1626 6.23079C14.9372 3.79798 21.3044 2.73513 26.1795 2.73513Z" fill="#563429"/>
<path fill-rule="evenodd" clip-rule="evenodd" d="M25.7069 1.13897C32.7827 1.13897 36.7926 6.45784 40.8809 11.398C44.0253 15.1202 48.1921 17.7042 48.1921 22.8714C48.1921 30.6992 44.8109 36.7022 38.2859 40.4999C34.9062 42.4766 31.3673 45.8206 27.0437 45.8206C19.1039 45.8206 9.04099 42.0972 5.10954 36.0187C2.9091 32.6733 1.57214 27.1255 1.57214 22.8714C1.57214 15.2726 5.42358 8.28291 11.4783 4.40522C15.0941 2.12786 21.1476 1.13897 25.7069 1.13897Z" fill="#C3854B"/>
<path fill-rule="evenodd" clip-rule="evenodd" d="M40.0159 19.4528C40.5656 19.0733 41.2735 18.8456 41.8238 18.463C42.2163 18.0844 42.532 17.7042 42.9246 17.2482C43.0814 16.9454 43.3955 16.7172 43.5528 16.4135C43.9469 15.9576 44.5752 16.4893 45.0465 15.5004C45.3619 15.7275 45.676 16.0341 45.9905 16.2623C45.2835 16.1865 44.5752 16.3381 43.9469 16.6406C43.8681 16.7172 43.5528 17.4014 43.003 17.8555C41.5876 18.9975 42.0594 18.7697 40.0159 19.4528Z" fill="#9A6D45"/>
<path fill-rule="evenodd" clip-rule="evenodd" d="M40.0159 19.5294C40.5656 19.0733 41.1951 18.7697 41.7453 18.3119C42.1379 18.0079 42.4527 17.553 42.7673 17.1725C42.9246 16.7941 43.2386 16.5648 43.4744 16.3382C43.7897 15.8033 44.4968 16.3382 44.8893 15.4239C45.2835 15.6521 45.5976 15.8818 45.9116 16.1099C45.205 16.1099 44.4968 16.1865 43.8681 16.5648C43.7897 16.5648 43.3955 17.1725 42.9246 17.553C41.5092 18.7697 42.0594 18.7697 40.0159 19.5294Z" fill="#632918"/>
<path fill-rule="evenodd" clip-rule="evenodd" d="M5.89625 20.7434C5.34528 21.1995 4.95193 21.809 4.40258 22.1884C4.00843 22.4932 3.45857 22.7201 2.98762 22.9472C2.59467 23.0238 2.27893 23.252 1.9648 23.4032C1.41544 23.6302 1.80798 24.391 0.707153 24.5441C0.94288 24.9235 1.0997 25.3041 1.25772 25.6835C1.33653 24.9235 1.65066 24.3144 2.12211 23.7834C2.20052 23.7834 2.98762 23.5544 3.53738 23.1762C5.03115 22.1884 4.71661 22.5686 5.89625 20.7434Z" fill="#9A6D45"/>
<path fill-rule="evenodd" clip-rule="evenodd" d="M5.89617 20.7434C5.3452 21.1995 4.87385 21.6565 4.32399 22.1126C3.85143 22.4162 3.38007 22.6443 2.90912 22.8714C2.51498 22.8714 2.20044 23.1762 1.88631 23.252C1.33644 23.4787 1.65058 24.2375 0.628662 24.391C0.785077 24.7724 0.942798 25.1518 1.09961 25.5312C1.25763 24.8481 1.57217 24.2375 2.04352 23.7068C2.12203 23.6302 2.7514 23.4032 3.30167 23.0238C4.79544 22.0367 4.71653 22.4932 5.89617 20.7434Z" fill="#632918"/>
<path fill-rule="evenodd" clip-rule="evenodd" d="M13.5219 37.3094L13.7572 43.0085L11.0842 41.5654L13.5219 37.3094Z" fill="#9A6D45"/>
<path fill-rule="evenodd" clip-rule="evenodd" d="M13.5218 37.2329L12.8136 42.4767L9.9845 40.9563L13.5218 37.2329Z" fill="#632918"/>
<path fill-rule="evenodd" clip-rule="evenodd" d="M22.1695 5.09137L22.5621 0.75877L20.2832 1.13896L21.4613 3.11454L22.1695 5.09137Z" fill="#9A6D45"/>
<path fill-rule="evenodd" clip-rule="evenodd" d="M22.1695 5.09137L22.0911 0.834171L19.8107 1.13896L20.9903 3.11454L22.1695 5.09137Z" fill="#632918"/>
<path fill-rule="evenodd" clip-rule="evenodd" d="M36.8711 34.2695C37.2636 34.8012 37.8934 35.2573 38.2075 35.791C38.4437 36.2458 38.679 36.7777 38.8362 37.2329C38.8362 37.6131 39.0715 37.9925 39.1504 38.2965C39.3088 38.9068 40.1724 38.6001 40.1724 39.6656C40.5656 39.5144 40.9594 39.3609 41.3523 39.285C40.6441 39.058 40.0939 38.7544 39.6229 38.2207C39.5445 38.1441 39.4656 37.3094 39.1504 36.7777C38.2075 35.2573 38.6005 35.5602 36.8711 34.2695Z" fill="#9A6D45"/>
<path fill-rule="evenodd" clip-rule="evenodd" d="M36.8711 34.1937C37.2636 34.8012 37.735 35.3327 38.0511 35.9433C38.3649 36.3982 38.5221 36.8534 38.679 37.3852C38.679 37.6888 38.9146 38.0683 38.993 38.3719C39.1503 38.9825 40.0159 38.6778 40.0159 39.7415C40.4084 39.5898 40.881 39.5144 41.2735 39.3609C40.5656 39.1338 39.9374 38.8302 39.4656 38.2965C39.3872 38.2207 39.3088 37.5365 38.9146 37.0058C38.0511 35.4085 38.6005 35.5601 36.8711 34.1937Z" fill="#632918"/>
<path fill-rule="evenodd" clip-rule="evenodd" d="M25.7069 1.13902C32.7827 1.13902 36.7926 6.4579 40.881 11.398C44.0253 15.1203 48.1921 17.7043 48.1921 22.8715C48.1921 30.6992 44.8109 36.7022 38.286 40.5C34.9063 42.4767 31.3674 45.8207 27.0438 45.8207C19.104 45.8207 9.04103 42.0973 5.10958 36.0188C2.90913 32.6734 1.57218 27.1256 1.57218 22.8715C1.57218 15.2726 5.42361 8.28297 11.4783 4.40528C15.0941 2.12792 21.1476 1.13902 25.7069 1.13902ZM25.8645 9.1323e-06C33.491 9.1323e-06 37.735 5.77447 42.1379 11.0175C45.5191 15.0445 50 17.7801 50 23.3274C50 31.7621 46.3831 38.1442 39.4656 42.2496C35.7699 44.3769 31.9188 48.0245 27.3579 48.0245C18.7894 48.0245 8.01821 43.9955 3.77263 37.4611C1.41536 33.8909 0 27.8874 0 23.3274C0 15.1968 4.16678 7.75121 10.6132 3.57106C14.4654 1.06363 20.9903 9.1323e-06 25.8645 9.1323e-06Z" fill="#7E3824"/>
<path fill-rule="evenodd" clip-rule="evenodd" d="M19.4181 28.1152L23.1924 31.3827C23.2708 31.458 23.428 31.5339 23.6633 31.5339C23.7421 31.5339 23.8206 31.5339 23.9775 31.458C24.2136 31.3827 24.37 31.1544 24.37 30.8508V16.7172C24.37 16.4136 24.2136 16.1865 23.899 16.0342C23.6633 15.9576 23.3496 16.0341 23.1139 16.2624L19.6539 19.8323H14.9372C14.5447 19.8323 14.2286 20.2117 14.2286 20.5923V27.4322C14.2286 27.8116 14.5447 28.1152 14.9372 28.1152H19.4181ZM35.4558 23.4787C35.4558 26.2908 34.6695 29.0265 33.0185 31.3827C32.8616 31.6105 32.7043 31.6863 32.4682 31.6863C32.3118 31.6863 32.1545 31.6105 32.0757 31.6105C31.7603 31.3827 31.6815 31.0032 31.8393 30.6992C33.3326 28.5704 34.1193 26.0631 34.1193 23.4787C34.1193 20.9713 33.3326 18.4631 31.9189 16.3382C31.6815 16.0341 31.7603 15.5762 32.0757 15.4239C32.3902 15.1968 32.8616 15.3481 33.0185 15.5762C34.6695 17.9313 35.4558 20.6677 35.4558 23.4787ZM31.9973 23.4787C31.9973 25.3801 31.5247 27.2798 30.5039 29.0265C30.4239 29.1777 30.1878 29.3294 29.9529 29.3294C29.8736 29.3294 29.7168 29.2536 29.6384 29.2536C29.2459 29.0265 29.1669 28.6463 29.3243 28.3435C30.2667 26.8985 30.6603 25.2284 30.6603 23.4787C30.6603 21.809 30.2667 20.1359 29.3243 18.6921C29.1669 18.3119 29.2459 17.9313 29.6384 17.78C29.9529 17.6285 30.3455 17.7043 30.5039 18.0079C31.5247 19.681 31.9973 21.5789 31.9973 23.4787ZM28.5376 23.4787C28.5376 24.5442 28.3803 25.5312 27.9873 26.4425C27.8305 26.7461 27.5948 26.8985 27.3579 26.8985C27.2791 26.8985 27.2006 26.8985 27.0438 26.8219C26.7297 26.6703 26.5725 26.2908 26.7297 25.9872C27.0438 25.2284 27.2006 24.3911 27.2006 23.4787C27.2006 22.6444 27.0438 21.809 26.7297 21.0471C26.5725 20.6677 26.7297 20.2882 27.0438 20.1359C27.4363 20.0604 27.8305 20.2117 27.9873 20.5153C28.3803 21.5024 28.5376 22.4932 28.5376 23.4787Z" fill="white"/>
<path d="M22.8766 31.6863L19.2609 28.5704H14.9372C14.6226 28.5704 14.387 28.4188 14.1501 28.1918C13.9144 28.0386 13.8359 27.7358 13.8359 27.4322V20.5922C13.8359 20.2882 13.9144 19.9846 14.1501 19.7564C14.387 19.6052 14.6226 19.4528 14.9372 19.4528H19.4965L22.7982 15.9576C22.9554 15.8033 23.1923 15.6521 23.3495 15.6521C23.5848 15.5762 23.8206 15.5762 24.0562 15.6521C24.2919 15.7275 24.4491 15.8818 24.6061 16.1099C24.6861 16.2624 24.7645 16.4893 24.7645 16.7172V30.8508C24.7645 31.0786 24.7645 31.3068 24.6061 31.458C24.5276 31.6105 24.2919 31.762 24.1346 31.8374C24.0562 31.9144 23.9774 31.9144 23.899 31.9144C23.8206 31.9144 23.7421 31.9899 23.6633 31.9899C23.5064 31.9899 23.3495 31.9144 23.2707 31.9144C23.1138 31.8374 22.9554 31.762 22.8766 31.6863ZM19.6538 27.8116L23.4279 31.0786L23.5064 31.1544C23.5849 31.1544 23.5848 31.1544 23.6633 31.1544H23.7421H23.8206C23.8206 31.0786 23.899 31.0786 23.899 31.0032C23.9774 31.0032 23.9774 30.9274 23.9774 30.8508V16.7172C23.9774 16.6406 23.9774 16.5648 23.899 16.5648C23.899 16.4893 23.8206 16.4135 23.7421 16.4135C23.7421 16.4135 23.6633 16.4135 23.5849 16.4135C23.5064 16.4135 23.4279 16.4893 23.4279 16.4893L19.9675 20.1359L19.889 20.2882H19.6538H14.9372C14.8584 20.2882 14.7799 20.2882 14.7799 20.364C14.7014 20.4398 14.6226 20.5153 14.6226 20.5922V27.4322C14.6226 27.5087 14.7014 27.5845 14.7014 27.6604H14.7799C14.7799 27.7358 14.8584 27.7358 14.9372 27.7358H19.4181L19.6538 27.8116ZM34.4337 27.5087C34.8263 26.2154 35.0632 24.8482 35.0632 23.4787C35.0632 22.1126 34.8263 20.8193 34.4337 19.5294C34.0407 18.236 33.491 16.9454 32.7043 15.8033C32.6259 15.8033 32.6259 15.7275 32.5474 15.7275C32.4682 15.7275 32.3902 15.7275 32.3117 15.7275V15.8033C32.2328 15.8033 32.2328 15.8818 32.2328 15.8818C32.1544 15.9576 32.2328 16.0341 32.2328 16.1099C33.0184 17.2483 33.5694 18.4631 33.9619 19.681C34.3553 20.8959 34.5122 22.1884 34.5122 23.4787C34.5122 24.8482 34.3553 26.1385 33.9619 27.3556C33.5694 28.5704 32.9399 29.7853 32.2328 30.8508C32.1544 30.9274 32.1544 31.0032 32.1544 31.0786C32.1544 31.1544 32.2328 31.2303 32.3117 31.2303C32.3902 31.3068 32.3902 31.3068 32.4682 31.3068L32.5474 31.2303C32.6259 31.2303 32.6259 31.2303 32.6259 31.1544C33.411 30.0135 34.0407 28.7994 34.4337 27.5087ZM35.9271 23.4787C35.9271 24.9236 35.6914 26.3667 35.2204 27.7358C34.8263 29.1023 34.1981 30.3956 33.3326 31.6105C33.2541 31.762 33.0968 31.9144 32.9399 31.9899C32.7827 32.0657 32.6259 32.0657 32.4682 32.0657C32.3117 32.0657 32.2328 32.0657 32.1544 32.0657C31.9972 31.9899 31.9188 31.9899 31.8392 31.9144C31.6031 31.762 31.4462 31.5339 31.3673 31.2303C31.2889 31.0032 31.3673 30.6992 31.5247 30.4714C32.2328 29.4059 32.7827 28.2676 33.1752 27.1255C33.491 25.9872 33.7266 24.7724 33.7266 23.4787C33.7266 22.2638 33.491 21.0471 33.1752 19.908C32.7827 18.6921 32.2328 17.6284 31.5247 16.5648V16.4893C31.3673 16.2624 31.3673 16.0341 31.3673 15.7275C31.4462 15.5004 31.6031 15.2726 31.8392 15.1202V15.0445C32.1544 14.8932 32.3902 14.8932 32.7043 14.9687C32.9399 14.9687 33.2541 15.1202 33.411 15.4239C34.1981 16.6406 34.8263 17.9313 35.2204 19.3016C35.6914 20.6676 35.9271 22.0367 35.9271 23.4787ZM31.2105 26.2154C31.4462 25.3042 31.6031 24.391 31.6031 23.4787C31.6031 22.5686 31.4462 21.6565 31.2105 20.7434C30.9748 19.908 30.6603 18.9975 30.1877 18.1602C30.1093 18.1602 30.1093 18.0844 30.0313 18.0844C29.9529 18.0844 29.8736 18.0844 29.7952 18.1602C29.7167 18.1602 29.7168 18.236 29.7168 18.236C29.6383 18.3119 29.7168 18.3873 29.7168 18.4631C30.1877 19.2246 30.5038 20.0604 30.7395 20.8959C30.9748 21.7332 31.0536 22.6444 31.0536 23.4787C31.0536 24.391 30.9748 25.3042 30.7395 26.1385C30.5038 26.9743 30.1877 27.8116 29.7168 28.5704C29.7168 28.5704 29.7168 28.6463 29.7168 28.7229C29.7168 28.7994 29.7167 28.8752 29.7952 28.8752H29.8736C29.8736 28.8752 29.8736 28.8752 29.8736 28.9506C29.9529 28.9506 29.9529 28.9506 29.9529 28.9506C30.0313 28.9506 30.0313 28.8752 30.0313 28.8752C30.1093 28.8752 30.1093 28.7994 30.1877 28.7994C30.6603 27.9629 30.9748 27.1255 31.2105 26.2154ZM32.4682 23.4787C32.4682 24.4688 32.3117 25.4554 32.0756 26.4425C31.7603 27.3556 31.3673 28.3434 30.8964 29.1777V29.2535C30.7395 29.4059 30.6603 29.4825 30.5038 29.5582C30.3454 29.7095 30.1877 29.7095 29.9529 29.7095C29.8736 29.7095 29.7952 29.7095 29.6383 29.7095C29.5595 29.634 29.481 29.634 29.4026 29.5582C29.1669 29.4059 28.9301 29.1777 28.9301 28.9506C28.8516 28.7229 28.8516 28.4188 28.9301 28.1918H29.0101V28.1152C29.4026 27.4322 29.7168 26.6702 29.9529 25.9114C30.1093 25.1518 30.2666 24.3145 30.2666 23.4787C30.2666 22.6444 30.1093 21.8855 29.9529 21.047C29.7168 20.2882 29.4026 19.5294 29.0101 18.8456C28.8517 18.6143 28.8516 18.3119 28.9301 18.0079C29.0101 17.78 29.1669 17.553 29.4026 17.4014C29.7167 17.2483 29.9529 17.2483 30.2666 17.3237C30.5038 17.4014 30.7395 17.553 30.8964 17.78C31.3673 18.6921 31.7603 19.6052 32.0756 20.5922C32.3117 21.5024 32.4682 22.4932 32.4682 23.4787ZM27.9872 24.9236C28.145 24.4688 28.145 24.0105 28.145 23.4787C28.145 23.0238 28.145 22.4932 27.9872 22.0367C27.9088 21.5789 27.7516 21.1228 27.5947 20.6676C27.5147 20.5922 27.5147 20.5922 27.4363 20.5153C27.3579 20.5153 27.2791 20.5153 27.2006 20.5153C27.2006 20.5922 27.1221 20.5922 27.1221 20.6676C27.0437 20.7434 27.0437 20.8193 27.1221 20.8193C27.2791 21.2753 27.4363 21.7332 27.5147 22.1126C27.5947 22.5686 27.5947 23.0238 27.5947 23.4787C27.5947 23.9351 27.5947 24.391 27.5147 24.8482C27.4363 25.3041 27.2791 25.7595 27.1221 26.1385C27.0437 26.2154 27.0437 26.2908 27.1221 26.2908C27.1221 26.3667 27.2006 26.4425 27.2006 26.4425C27.2791 26.4425 27.2791 26.4425 27.3579 26.4425C27.4363 26.4425 27.4363 26.4425 27.5147 26.4425C27.5147 26.3667 27.5947 26.3667 27.5947 26.3667V26.2908C27.7516 25.9114 27.9088 25.38 27.9872 24.9236ZM29.0101 23.4787C29.0101 24.0105 28.9301 24.6211 28.8517 25.076C28.6943 25.6078 28.5375 26.1385 28.3802 26.5948C28.3014 26.8219 28.145 26.9743 27.9872 27.1255C27.7516 27.2013 27.5147 27.2798 27.3579 27.2798C27.2791 27.2798 27.1222 27.2798 26.9649 27.2013C26.6512 27.1255 26.4151 26.8985 26.3371 26.6702C26.2579 26.3667 26.1794 26.0631 26.3371 25.8348C26.4936 25.4554 26.5724 25.076 26.6512 24.6966C26.7296 24.3145 26.808 23.9351 26.808 23.4787C26.808 23.1003 26.7296 22.6444 26.6512 22.2638C26.5724 21.8855 26.4936 21.5023 26.3371 21.1995V21.1228C26.1794 20.8959 26.2579 20.5922 26.3371 20.364C26.4151 20.1359 26.6512 19.908 26.9649 19.7564C27.2006 19.681 27.5147 19.681 27.7516 19.8322C27.9873 19.908 28.2234 20.1359 28.3802 20.364C28.5375 20.8959 28.6943 21.3507 28.8517 21.8855C28.9301 22.4162 29.0101 22.9472 29.0101 23.4787Z" fill="#563429"/>
</svg>
