<svg width="50" height="50" viewBox="0 0 50 50" fill="none" xmlns="http://www.w3.org/2000/svg">
<path fill-rule="evenodd" clip-rule="evenodd" d="M26.022 3.87573C32.9391 3.87573 36.8715 9.11872 40.9596 13.9066C44.0246 17.629 48.1126 20.1364 48.1126 25.229C48.1126 32.9028 44.7314 38.8299 38.4427 42.5542C35.0635 44.529 31.5256 47.8739 27.3573 47.8739C19.4974 47.8739 9.66891 44.1496 5.7395 38.1458C3.53687 34.8795 2.27995 29.4085 2.27995 25.229C2.27995 17.7823 6.05272 10.943 12.0271 7.06733C15.565 4.86262 21.4611 3.87573 26.022 3.87573ZM26.1786 2.73553C33.6489 2.73553 37.8926 8.43459 42.2185 13.6019C45.5205 17.5533 49.9207 20.2131 49.9207 25.6841C49.9207 33.9673 46.3055 40.2738 39.4667 44.3009C35.9268 46.43 32.154 50 27.5932 50C19.1832 50 8.6479 45.9729 4.40426 39.5897C2.12332 36.0177 0.706787 30.1673 0.706787 25.6841C0.706787 17.7066 4.79581 10.3336 11.1638 6.23085C14.9366 3.80004 21.3045 2.73553 26.1786 2.73553Z" fill="#563429"/>
<path fill-rule="evenodd" clip-rule="evenodd" d="M25.7861 1.14023C32.7826 1.14023 36.7933 6.45987 40.9596 11.3981C44.0247 15.1215 48.193 17.629 48.193 22.8729C48.193 30.7 44.8107 36.6272 38.3645 40.5029C34.9842 42.4776 31.369 45.8206 27.1214 45.8206C19.105 45.8206 9.11882 42.0982 5.11111 36.0177C2.90848 32.6757 1.57324 27.1281 1.57324 22.8729C1.57324 15.2739 5.50264 8.28321 11.5574 4.4075C15.0942 2.1271 21.147 1.14023 25.7861 1.14023Z" fill="#C3854B"/>
<path fill-rule="evenodd" clip-rule="evenodd" d="M40.0159 19.4542C40.6443 19.0729 41.3511 18.8448 41.823 18.4654C42.2948 18.086 42.611 17.7066 42.9253 17.2495C43.0829 16.9458 43.3961 16.7178 43.632 16.414C43.9463 15.957 44.6531 16.4897 45.0456 15.5019C45.3628 15.7299 45.7554 16.0336 46.0696 16.2607C45.3628 16.185 44.6531 16.3383 44.0246 16.6421C43.9463 16.7177 43.5537 17.4009 43.0829 17.8579C41.6663 18.9972 42.1362 18.7691 40.0159 19.4542Z" fill="#9A6D45"/>
<path fill-rule="evenodd" clip-rule="evenodd" d="M40.0159 19.4542C40.6443 19.0729 41.1945 18.7691 41.7446 18.3131C42.1362 17.9336 42.5328 17.5532 42.847 17.1729C43.0036 16.7934 43.3178 16.5654 43.5537 16.3383C43.868 15.8056 44.5747 16.3383 44.9673 15.4262C45.2835 15.6542 45.5988 15.8813 45.9903 16.1093C45.2032 16.0336 44.5748 16.185 43.9463 16.5654C43.868 16.5654 43.4754 17.1729 42.9253 17.5533C41.588 18.7691 42.1362 18.7691 40.0159 19.4542Z" fill="#632918"/>
<path fill-rule="evenodd" clip-rule="evenodd" d="M5.89621 20.7448C5.42436 21.2009 5.03281 21.8084 4.48266 22.1888C4.0078 22.4925 3.53696 22.7205 3.06612 22.9486C2.67258 23.0243 2.35833 23.2523 2.0451 23.4056C1.49494 23.6327 1.80917 24.3925 0.785156 24.5439C0.94177 24.9243 1.10041 25.3047 1.25904 25.6841C1.41665 24.9243 1.72987 24.3159 2.20172 23.7851C2.28003 23.7851 3.06611 23.557 3.53696 23.1757C5.03282 22.1888 4.79589 22.5692 5.89621 20.7448Z" fill="#9A6D45"/>
<path fill-rule="evenodd" clip-rule="evenodd" d="M5.97443 20.7449C5.42428 21.201 4.95341 21.6561 4.32495 22.1131C3.9294 22.4169 3.38026 22.6449 2.90841 22.8729C2.59418 22.8729 2.27993 23.1757 1.96671 23.2524C1.33824 23.4814 1.7298 24.2402 0.706787 24.3926C0.863401 24.772 1.02001 25.1534 1.18064 25.5328C1.33826 24.8477 1.57317 24.2402 2.04502 23.7094C2.12332 23.6328 2.8301 23.4057 3.38026 23.0243C4.7958 21.9598 4.79581 22.4926 5.97443 20.7449Z" fill="#632918"/>
<path fill-rule="evenodd" clip-rule="evenodd" d="M13.523 37.3103L13.8372 43.0093L11.0854 41.5654L13.523 37.3103Z" fill="#9A6D45"/>
<path fill-rule="evenodd" clip-rule="evenodd" d="M13.523 37.2346L12.8132 42.4775L10.0635 40.9579L13.523 37.2346Z" fill="#632918"/>
<path fill-rule="evenodd" clip-rule="evenodd" d="M22.2492 5.09155L22.6428 0.760743L20.3618 1.14015L21.5394 3.11489L22.2492 5.09155Z" fill="#9A6D45"/>
<path fill-rule="evenodd" clip-rule="evenodd" d="M22.2494 5.09155L22.1711 0.836435L19.8901 1.14015L21.0688 3.11489L22.2494 5.09155Z" fill="#632918"/>
<path fill-rule="evenodd" clip-rule="evenodd" d="M36.9497 34.271C37.3432 34.8037 37.8924 35.2588 38.286 35.7906C38.5209 36.2467 38.6785 36.7785 38.8351 37.2345C38.9144 37.6149 39.071 37.9953 39.2277 38.2981C39.3873 38.8298 40.1724 38.6018 40.2527 39.5897C40.6442 39.514 41.0377 39.3626 41.4293 39.2869C40.7225 39.0589 40.094 38.6775 39.6242 38.2224C39.6242 38.1457 39.4666 37.3102 39.1493 36.7785C38.286 35.2588 38.6002 35.5626 36.9497 34.271Z" fill="#9A6D45"/>
<path fill-rule="evenodd" clip-rule="evenodd" d="M36.9497 34.1953C37.3432 34.8037 37.8141 35.3345 38.1284 35.942C38.3643 36.3234 38.5209 36.8551 38.7568 37.3859C38.7568 37.6906 38.9927 38.07 39.071 38.3747C39.2276 38.9812 40.0157 38.6775 40.094 39.742C40.4876 39.5897 40.8811 39.514 41.2727 39.3626C40.5659 39.1346 40.0157 38.8298 39.5449 38.2981C39.4666 38.2224 39.309 37.5383 38.9927 37.0065C38.1283 35.4112 38.6002 35.5626 36.9497 34.1953Z" fill="#632918"/>
<path fill-rule="evenodd" clip-rule="evenodd" d="M25.7861 1.14017C32.7825 1.14017 36.7932 6.45981 40.9596 11.3981C44.0246 15.1215 48.1929 17.6289 48.1929 22.8729C48.1929 30.7 44.8106 36.6271 38.3644 40.5028C34.9841 42.4775 31.369 45.8205 27.1213 45.8205C19.1049 45.8205 9.11874 42.0981 5.11103 36.0177C2.90839 32.6757 1.57316 27.128 1.57316 22.8729C1.57316 15.2738 5.50256 8.28315 11.5573 4.40744C15.0942 2.12704 21.1469 1.14017 25.7861 1.14017ZM25.9437 -3.05176e-05C33.4913 -3.05176e-05 37.8142 5.77473 42.2185 11.0187C45.5987 15.0458 50 17.7823 50 23.328C50 31.7626 46.3838 38.1458 39.4667 42.2505C35.8485 44.3776 31.9964 48.0252 27.3572 48.0252C18.7907 48.0252 8.09773 43.9972 3.77277 37.4616C1.41654 33.8906 0 27.8878 0 23.328C0 15.1981 4.16734 7.75043 10.6919 3.57196C14.544 1.06449 20.9903 -3.05176e-05 25.9437 -3.05176e-05Z" fill="#7E3824"/>
<circle cx="25" cy="23" r="10.5" stroke="white" stroke-width="2" stroke-linecap="round" stroke-linejoin="round"/>
<path d="M25 26.5L28.5 23M28.5 23L25 19.5M28.5 23H21.5" stroke="white" stroke-width="2" stroke-linecap="round" stroke-linejoin="round"/>
</svg>
