<svg width="50" height="50" viewBox="0 0 50 50" fill="none" xmlns="http://www.w3.org/2000/svg">
<path fill-rule="evenodd" clip-rule="evenodd" d="M25.9425 3.87453C32.8615 3.87453 36.8711 9.11763 40.881 13.9061C43.9469 17.6284 48.0341 20.1359 48.0341 25.2284C48.0341 32.903 44.7324 38.8302 38.3649 42.5524C34.9848 44.5299 31.5247 47.8721 27.2791 47.8721C19.4181 47.8721 9.59038 44.1467 5.66054 38.1441C3.53729 34.8767 2.20044 29.4059 2.20044 25.2284C2.20044 17.78 6.05308 10.9416 12.0282 7.06501C15.4867 4.86431 21.4613 3.87453 25.9425 3.87453ZM26.1795 2.73513C33.5694 2.73513 37.815 8.4342 42.1379 13.6014C45.4407 17.5529 49.8436 20.2116 49.8436 25.6836C49.8436 33.9666 46.3047 40.2728 39.4656 44.301C35.8487 46.4271 32.0756 50 27.5947 50C19.104 50 8.56917 45.9719 4.40249 39.5898C2.04352 36.0187 0.628662 30.1677 0.628662 25.6836C0.628662 17.7042 4.79544 10.3352 11.1626 6.23079C14.9372 3.79798 21.3044 2.73513 26.1795 2.73513Z" fill="#563429"/>
<path fill-rule="evenodd" clip-rule="evenodd" d="M25.707 1.13897C32.7828 1.13897 36.7927 6.45784 40.881 11.398C44.0254 15.1202 48.1922 17.7042 48.1922 22.8714C48.1922 30.6992 44.811 36.7022 38.286 40.4999C34.9064 42.4766 31.3675 45.8206 27.0439 45.8206C19.1041 45.8206 9.04112 42.0972 5.10967 36.0187C2.90922 32.6733 1.57227 27.1255 1.57227 22.8714C1.57227 15.2726 5.4237 8.28291 11.4784 4.40522C15.0942 2.12786 21.1477 1.13897 25.707 1.13897Z" fill="#C3854B"/>
<path fill-rule="evenodd" clip-rule="evenodd" d="M40.0159 19.4528C40.5656 19.0733 41.2735 18.8456 41.8238 18.463C42.2163 18.0844 42.532 17.7042 42.9246 17.2482C43.0814 16.9454 43.3955 16.7172 43.5528 16.4135C43.9469 15.9576 44.5752 16.4893 45.0465 15.5004C45.3619 15.7275 45.676 16.0341 45.9905 16.2623C45.2835 16.1865 44.5752 16.3381 43.9469 16.6406C43.8681 16.7172 43.5528 17.4014 43.003 17.8555C41.5876 18.9975 42.0594 18.7697 40.0159 19.4528Z" fill="#9A6D45"/>
<path fill-rule="evenodd" clip-rule="evenodd" d="M40.0159 19.5294C40.5656 19.0733 41.1951 18.7697 41.7453 18.3119C42.1379 18.0079 42.4527 17.553 42.7673 17.1725C42.9246 16.7941 43.2386 16.5648 43.4744 16.3382C43.7897 15.8033 44.4968 16.3382 44.8893 15.4239C45.2835 15.6521 45.5976 15.8818 45.9116 16.1099C45.205 16.1099 44.4968 16.1865 43.8681 16.5648C43.7897 16.5648 43.3955 17.1725 42.9246 17.553C41.5092 18.7697 42.0594 18.7697 40.0159 19.5294Z" fill="#632918"/>
<path fill-rule="evenodd" clip-rule="evenodd" d="M5.89613 20.7434C5.34516 21.1995 4.95181 21.809 4.40245 22.1884C4.0083 22.4932 3.45844 22.7201 2.98749 22.9472C2.59455 23.0238 2.27881 23.252 1.96467 23.4032C1.41532 23.6302 1.80786 24.391 0.707031 24.5441C0.942758 24.9235 1.09957 25.3041 1.2576 25.6835C1.33641 24.9235 1.65054 24.3144 2.12199 23.7834C2.2004 23.7834 2.98749 23.5544 3.53726 23.1762C5.03103 22.1884 4.71649 22.5686 5.89613 20.7434Z" fill="#9A6D45"/>
<path fill-rule="evenodd" clip-rule="evenodd" d="M5.89617 20.7434C5.3452 21.1995 4.87385 21.6565 4.32399 22.1126C3.85143 22.4162 3.38007 22.6443 2.90912 22.8714C2.51498 22.8714 2.20044 23.1762 1.88631 23.252C1.33644 23.4787 1.65058 24.2375 0.628662 24.391C0.785077 24.7724 0.942798 25.1518 1.09961 25.5312C1.25763 24.8481 1.57217 24.2375 2.04352 23.7068C2.12203 23.6302 2.7514 23.4032 3.30167 23.0238C4.79544 22.0367 4.71653 22.4932 5.89617 20.7434Z" fill="#632918"/>
<path fill-rule="evenodd" clip-rule="evenodd" d="M13.5219 37.3094L13.7572 43.0085L11.0842 41.5654L13.5219 37.3094Z" fill="#9A6D45"/>
<path fill-rule="evenodd" clip-rule="evenodd" d="M13.5217 37.2329L12.8135 42.4767L9.98438 40.9563L13.5217 37.2329Z" fill="#632918"/>
<path fill-rule="evenodd" clip-rule="evenodd" d="M22.1695 5.09137L22.5621 0.75877L20.2832 1.13896L21.4613 3.11454L22.1695 5.09137Z" fill="#9A6D45"/>
<path fill-rule="evenodd" clip-rule="evenodd" d="M22.1694 5.09137L22.091 0.834171L19.8105 1.13896L20.9902 3.11454L22.1694 5.09137Z" fill="#632918"/>
<path fill-rule="evenodd" clip-rule="evenodd" d="M36.8711 34.2695C37.2636 34.8012 37.8934 35.2573 38.2075 35.791C38.4437 36.2458 38.679 36.7777 38.8362 37.2329C38.8362 37.6131 39.0715 37.9925 39.1504 38.2965C39.3088 38.9068 40.1724 38.6001 40.1724 39.6656C40.5656 39.5144 40.9594 39.3609 41.3523 39.285C40.6441 39.058 40.0939 38.7544 39.6229 38.2207C39.5445 38.1441 39.4656 37.3094 39.1504 36.7777C38.2075 35.2573 38.6005 35.5602 36.8711 34.2695Z" fill="#9A6D45"/>
<path fill-rule="evenodd" clip-rule="evenodd" d="M36.8711 34.1937C37.2636 34.8012 37.735 35.3327 38.0511 35.9433C38.3649 36.3982 38.5221 36.8534 38.679 37.3852C38.679 37.6888 38.9146 38.0683 38.993 38.3719C39.1503 38.9825 40.0159 38.6778 40.0159 39.7415C40.4084 39.5898 40.881 39.5144 41.2735 39.3609C40.5656 39.1338 39.9374 38.8302 39.4656 38.2965C39.3872 38.2207 39.3088 37.5365 38.9146 37.0058C38.0511 35.4085 38.6005 35.5601 36.8711 34.1937Z" fill="#632918"/>
<path fill-rule="evenodd" clip-rule="evenodd" d="M25.7069 1.13902C32.7827 1.13902 36.7926 6.4579 40.881 11.398C44.0253 15.1203 48.1921 17.7043 48.1921 22.8715C48.1921 30.6992 44.8109 36.7022 38.286 40.5C34.9063 42.4767 31.3674 45.8207 27.0438 45.8207C19.104 45.8207 9.04103 42.0973 5.10958 36.0188C2.90913 32.6734 1.57218 27.1256 1.57218 22.8715C1.57218 15.2726 5.42361 8.28297 11.4783 4.40528C15.0941 2.12792 21.1476 1.13902 25.7069 1.13902ZM25.8645 7.62939e-06C33.491 7.62939e-06 37.735 5.77448 42.1379 11.0175C45.5191 15.0445 50 17.7801 50 23.3274C50 31.7621 46.3831 38.1442 39.4656 42.2496C35.7699 44.3769 31.9188 48.0245 27.3579 48.0245C18.7894 48.0245 8.01821 43.9955 3.77263 37.4611C1.41536 33.8909 0 27.8874 0 23.3274C0 15.1968 4.16678 7.75121 10.6132 3.57106C14.4654 1.06363 20.9903 7.62939e-06 25.8645 7.62939e-06Z" fill="#7E3824"/>
<path d="M25 14.8333L19.1667 19.5H14.5V26.5H19.1667L25 31.1666V14.8333Z" stroke="white" stroke-width="2" stroke-linecap="round" stroke-linejoin="round"/>
<path d="M32.0815 14.7516C34.2687 16.9395 35.4974 19.9064 35.4974 23C35.4974 26.0936 34.2687 29.0605 32.0815 31.2483M29.1299 18.87C30.2235 19.9639 30.8378 21.4474 30.8378 22.9941C30.8378 24.5409 30.2235 26.0244 29.1299 27.1183" stroke="white" stroke-width="2" stroke-linecap="round" stroke-linejoin="round"/>
</svg>
