<svg width="50" height="50" viewBox="0 0 50 50" fill="none" xmlns="http://www.w3.org/2000/svg">
<path fill-rule="evenodd" clip-rule="evenodd" d="M25.9797 3.87573C32.8889 3.87573 36.813 9.11872 40.8926 13.9066C43.9538 17.629 48.0373 20.1364 48.0373 25.229C48.0373 32.9028 44.7406 38.8299 38.3837 42.5542C35.0058 44.529 31.5527 47.8739 27.3158 47.8739C19.4655 47.8739 9.65551 44.1496 5.73032 38.1458C3.61036 34.8795 2.27524 29.4085 2.27524 25.229C2.27524 17.7823 6.12224 10.943 12.009 7.06733C15.5423 4.86262 21.5072 3.87573 25.9797 3.87573ZM26.1361 2.73553C33.5945 2.73553 37.8314 8.43459 42.1505 13.6019C45.4463 17.5533 49.8405 20.2131 49.8405 25.6841C49.8405 33.9673 46.2301 40.2738 39.4813 44.3009C35.8709 46.43 32.102 50 27.5514 50C19.1517 50 8.63411 45.9729 4.39519 39.5897C2.11887 36.0177 0.705566 30.1673 0.705566 25.6841C0.705566 17.7066 4.78811 10.3336 11.2242 6.23085C14.9128 3.80004 21.3509 2.73553 26.1361 2.73553Z" fill="#563429"/>
<path fill-rule="evenodd" clip-rule="evenodd" d="M25.7443 1.14023C32.7327 1.14023 36.734 6.45987 40.8928 11.3981C44.0351 15.1215 48.1157 17.629 48.1157 22.8729C48.1157 30.7 44.7408 36.6272 38.3057 40.5029C34.9278 42.4776 31.3174 45.8206 27.0805 45.8206C19.0737 45.8206 9.1054 42.0982 5.18021 36.0177C2.98307 32.6757 1.64795 27.1281 1.64795 22.8729C1.64795 15.2739 5.49494 8.28321 11.5381 4.4075C15.0703 2.1271 21.1135 1.14023 25.7443 1.14023Z" fill="#C3854B"/>
<path fill-rule="evenodd" clip-rule="evenodd" d="M40.0308 19.4542C40.58 19.0729 41.2887 18.8448 41.837 18.4654C42.2289 18.086 42.5426 17.7066 42.8564 17.2495C43.0127 16.9458 43.3275 16.7178 43.562 16.414C43.8758 15.957 44.5844 16.4897 44.9763 15.5019C45.3682 15.7299 45.682 16.0336 45.9957 16.2607C45.2901 16.185 44.5844 16.3383 43.9539 16.6421C43.8757 16.7177 43.4838 17.4009 43.0127 17.8579C41.6014 18.9972 42.0725 18.7691 40.0308 19.4542Z" fill="#9A6D45"/>
<path fill-rule="evenodd" clip-rule="evenodd" d="M40.0308 19.4542C40.58 19.0729 41.2095 18.7691 41.6796 18.3131C42.1507 17.9336 42.4644 17.5532 42.7782 17.1729C42.9345 16.7934 43.2483 16.5654 43.4838 16.3383C43.7976 15.8056 44.5062 16.3383 44.8981 15.4262C45.2119 15.6542 45.6038 15.8813 45.9175 16.1093C45.2119 16.0336 44.5062 16.185 43.8757 16.5654C43.7976 16.5654 43.4057 17.1729 42.9346 17.5533C41.5233 18.7691 42.0725 18.7691 40.0308 19.4542Z" fill="#632918"/>
<path fill-rule="evenodd" clip-rule="evenodd" d="M5.96477 20.7448C5.41648 21.2009 5.02256 21.8084 4.47428 22.1888C4.00318 22.4925 3.53208 22.7205 3.06098 22.9486C2.66906 23.0243 2.35532 23.2523 2.03958 23.4056C1.4913 23.6327 1.88321 24.3925 0.785645 24.5439C0.94201 24.9243 1.09939 25.3047 1.33394 25.6841C1.41312 24.9243 1.72685 24.3159 2.19695 23.7851C2.27514 23.7851 3.06097 23.557 3.61026 23.1757C5.10175 22.1888 4.78801 22.5692 5.96477 20.7448Z" fill="#9A6D45"/>
<path fill-rule="evenodd" clip-rule="evenodd" d="M5.96487 20.7449C5.41659 21.201 4.94448 21.6561 4.39519 22.1131C3.92509 22.4169 3.45299 22.6449 2.98289 22.8729C2.59098 22.8729 2.27524 23.1757 1.96151 23.2524C1.33404 23.4814 1.72696 24.2402 0.705566 24.3926C0.863937 24.772 1.0203 25.1534 1.17767 25.5328C1.33403 24.8477 1.64777 24.2402 2.11887 23.7094C2.11887 23.6328 2.82553 23.4057 3.37481 23.0243C4.8663 21.9598 4.78812 22.4926 5.96487 20.7449Z" fill="#632918"/>
<path fill-rule="evenodd" clip-rule="evenodd" d="M13.5787 37.3103L13.8132 43.0093L11.146 41.5654L13.5787 37.3103Z" fill="#9A6D45"/>
<path fill-rule="evenodd" clip-rule="evenodd" d="M13.5786 37.2346L12.873 42.4775L10.0474 40.9579L13.5786 37.2346Z" fill="#632918"/>
<path fill-rule="evenodd" clip-rule="evenodd" d="M22.213 5.09155L22.6049 0.760743L20.3296 1.14015L21.5073 3.11489L22.213 5.09155Z" fill="#9A6D45"/>
<path fill-rule="evenodd" clip-rule="evenodd" d="M22.2129 5.09155L22.1348 0.836435L19.8574 1.14015L21.0352 3.11489L22.2129 5.09155Z" fill="#632918"/>
<path fill-rule="evenodd" clip-rule="evenodd" d="M36.8914 34.271C37.2833 34.8037 37.9107 35.2588 38.2265 35.7906C38.462 36.2467 38.6194 36.7785 38.854 37.2345C38.854 37.6149 39.0895 37.9953 39.1677 38.2981C39.325 38.8298 40.1089 38.6018 40.1871 39.5897C40.58 39.514 40.9709 39.3626 41.3668 39.2869C40.6582 39.0589 40.1089 38.6775 39.5596 38.2224C39.5596 38.1457 39.4814 37.3102 39.1677 36.7785C38.2265 35.2588 38.6194 35.5626 36.8914 34.271Z" fill="#9A6D45"/>
<path fill-rule="evenodd" clip-rule="evenodd" d="M36.8914 34.1953C37.2833 34.8037 37.7534 35.3345 38.0671 35.942C38.3057 36.3234 38.5402 36.8551 38.6976 37.3859C38.6976 37.6906 38.9321 38.07 39.0113 38.3747C39.1677 38.9812 40.0307 38.6775 40.0307 39.742C40.4226 39.5897 40.8145 39.514 41.2095 39.3626C40.5008 39.1346 39.9525 38.8298 39.4814 38.2981C39.4032 38.2224 39.2469 37.5383 38.9321 37.0065C38.0671 35.4112 38.6194 35.5626 36.8914 34.1953Z" fill="#632918"/>
<path fill-rule="evenodd" clip-rule="evenodd" d="M25.7442 1.14017C32.7326 1.14017 36.7339 6.45981 40.8927 11.3981C44.035 15.1215 48.1156 17.6289 48.1156 22.8729C48.1156 30.7 44.7407 36.6271 38.3056 40.5028C34.9277 42.4775 31.3173 45.8205 27.0804 45.8205C19.0736 45.8205 9.10531 42.0981 5.18013 36.0177C2.98299 32.6757 1.64786 27.128 1.64786 22.8729C1.64786 15.2738 5.49486 8.28315 11.538 4.40744C15.0703 2.12704 21.1134 1.14017 25.7442 1.14017ZM25.9016 -3.05176e-05C33.4382 -3.05176e-05 37.7533 5.77473 42.1506 11.0187C45.5255 15.0458 50 17.7823 50 23.328C50 31.7626 46.3094 38.1458 39.4032 42.2505C35.7928 44.3776 31.9447 48.0252 27.3941 48.0252C18.8381 48.0252 8.08392 43.9972 3.847 37.4616C1.49149 33.8906 0 27.8878 0 23.328C0 15.1981 4.23892 7.75043 10.675 3.57196C14.521 1.06449 20.957 -3.05176e-05 25.9016 -3.05176e-05Z" fill="#7E3824"/>
<circle cx="20.9166" cy="30.4166" r="4.08333" stroke="white" stroke-width="2" stroke-linecap="round" stroke-linejoin="round"/>
<path d="M25 31V13.5" stroke="white" stroke-width="2" stroke-linecap="round" stroke-linejoin="round"/>
<path d="M25 13.5L32 14.6667V19.3333L25 18.1667V13.5Z" stroke="white" stroke-width="2" stroke-linecap="round" stroke-linejoin="round"/>
</svg>
