<svg width="50" height="50" viewBox="0 0 50 50" fill="none" xmlns="http://www.w3.org/2000/svg">
<path fill-rule="evenodd" clip-rule="evenodd" d="M26.022 3.87956C32.9391 3.87956 36.8715 9.13137 40.9596 13.9264C44.0246 17.6553 48.1126 20.0908 48.1126 25.19C48.1126 32.953 44.7313 38.8122 38.4427 42.6179C35.0635 44.5966 31.5256 47.8688 27.3573 47.8688C19.4974 47.8688 9.66891 44.2166 5.7395 38.2038C3.53687 34.9297 2.27995 29.4505 2.27995 25.19C2.27995 17.807 6.05272 10.8826 12.0271 7.07884C15.565 4.79503 21.4611 3.87956 26.022 3.87956ZM26.1786 2.7396C33.6489 2.7396 37.8926 8.37042 42.2185 13.6232C45.5205 17.5028 49.9207 20.2424 49.9207 25.7226C49.9207 34.0172 46.3055 40.3341 39.4667 44.3682C35.9268 46.4975 32.154 50 27.5932 50C19.1832 50 8.6479 46.0417 4.40426 39.649C2.12332 36.0726 0.706787 30.2134 0.706787 25.7226C0.706786 17.7311 4.79581 10.3501 11.1638 6.24016C14.9366 3.80376 21.3045 2.7396 26.1786 2.7396Z" fill="#563429"/>
<path fill-rule="evenodd" clip-rule="evenodd" d="M25.7861 1.13992C32.7826 1.13992 36.7933 6.46754 40.9596 11.4152C44.0247 15.1431 48.193 17.6553 48.193 22.8303C48.193 30.7459 44.8107 36.6809 38.3645 40.4857C34.9842 42.5411 31.369 45.8891 27.1214 45.8891C19.105 45.8891 9.11882 42.1611 5.11111 36.0726C2.90847 32.7256 1.57324 27.0938 1.57324 22.8303C1.57324 15.2947 5.50264 8.29459 11.5574 4.41502C15.0942 2.1312 21.147 1.13992 25.7861 1.13992Z" fill="#C3854B"/>
<path fill-rule="evenodd" clip-rule="evenodd" d="M40.0161 19.4824C40.6446 19.1015 41.3513 18.8741 41.8232 18.4173C42.295 18.1112 42.6113 17.6554 42.9255 17.2744C43.0831 16.9712 43.3964 16.7428 43.6323 16.4386C43.9465 15.9819 44.6533 16.5144 45.0458 15.5261C45.3631 15.7545 45.7556 15.9819 46.0698 16.287C45.3631 16.2102 44.6533 16.3628 44.0248 16.666C43.9465 16.7428 43.554 17.427 43.0831 17.807C41.6666 19.0257 42.1364 18.7982 40.0161 19.4824Z" fill="#9A6D45"/>
<path fill-rule="evenodd" clip-rule="evenodd" d="M40.0161 19.4824C40.6446 19.1015 41.1947 18.7224 41.7449 18.3415C42.1364 17.9586 42.533 17.5786 42.8472 17.1986C43.0038 16.8186 43.3181 16.5902 43.554 16.287C43.8682 15.8303 44.575 16.3628 44.9675 15.3706C45.2838 15.6787 45.599 15.9061 45.9905 16.1345C45.2034 16.0577 44.575 16.2103 43.9465 16.5144C43.8682 16.5902 43.4757 17.1986 42.9255 17.5786C41.5883 18.7224 42.1364 18.7982 40.0161 19.4824Z" fill="#632918"/>
<path fill-rule="evenodd" clip-rule="evenodd" d="M5.89621 20.7749C5.42436 21.2336 5.03281 21.842 4.48266 22.222C4.0078 22.5262 3.53696 22.7545 3.06612 22.9819C2.67258 23.0587 2.35833 23.2871 2.0451 23.4387C1.49494 23.5903 1.80917 24.43 0.785156 24.5816C0.94177 24.9626 1.10041 25.3416 1.25904 25.6467C1.41665 24.9626 1.72987 24.3542 2.20172 23.8187C2.28003 23.7429 3.06611 23.5903 3.53696 23.2103C5.03282 22.1462 4.79589 22.5262 5.89621 20.7749Z" fill="#9A6D45"/>
<path fill-rule="evenodd" clip-rule="evenodd" d="M5.97443 20.7749C5.42428 21.2336 4.95341 21.6894 4.32495 22.0704C3.9294 22.3736 3.38026 22.602 2.90841 22.8303C2.59418 22.9061 2.27993 23.1345 1.96671 23.2871C1.33824 23.5145 1.7298 24.2774 0.706787 24.43C0.863401 24.809 1.02001 25.19 1.18064 25.5699C1.33826 24.8858 1.57317 24.2774 2.04502 23.7429C2.12332 23.6671 2.8301 23.4387 3.38026 23.0587C4.7958 21.9946 4.79581 22.5262 5.97443 20.7749Z" fill="#632918"/>
<path fill-rule="evenodd" clip-rule="evenodd" d="M13.523 37.3652L13.8372 42.9969L11.0854 41.5528L13.523 37.3652Z" fill="#9A6D45"/>
<path fill-rule="evenodd" clip-rule="evenodd" d="M13.523 37.2893L12.8132 42.5411L10.0635 41.0173L13.523 37.2893Z" fill="#632918"/>
<path fill-rule="evenodd" clip-rule="evenodd" d="M22.2492 5.09924L22.6428 0.684198L20.3618 1.13998L21.5394 3.11961L22.2492 5.09924Z" fill="#9A6D45"/>
<path fill-rule="evenodd" clip-rule="evenodd" d="M22.2491 5.09924L22.1708 0.760004L19.8899 1.13998L21.0685 3.11961L22.2491 5.09924Z" fill="#632918"/>
<path fill-rule="evenodd" clip-rule="evenodd" d="M36.9497 34.2456C37.3432 34.8539 37.8924 35.2339 38.286 35.8452C38.5209 36.301 38.6785 36.8336 38.8351 37.2894C38.9144 37.6703 39.071 37.9735 39.2277 38.3565C39.3873 38.889 40.1724 38.6606 40.2527 39.649C40.6442 39.5732 41.0377 39.4206 41.4293 39.3448C40.7225 39.1174 40.094 38.7364 39.6242 38.2806C39.6242 38.2039 39.4666 37.3652 39.1493 36.8336C38.286 35.2339 38.6002 35.6168 36.9497 34.2456Z" fill="#9A6D45"/>
<path fill-rule="evenodd" clip-rule="evenodd" d="M36.9497 34.2456C37.3432 34.854 37.8141 35.3885 38.1284 35.921C38.3643 36.3778 38.5209 36.9094 38.7568 37.3652C38.7568 37.7461 38.9927 38.0493 39.071 38.4332C39.2276 38.9648 40.0157 38.7364 40.094 39.7258C40.4876 39.649 40.8811 39.4974 41.2727 39.4206C40.5659 39.1932 40.0157 38.8122 39.5449 38.3565C39.4666 38.2807 39.309 37.5945 38.9927 37.062C38.1283 35.4643 38.6002 35.6168 36.9497 34.2456Z" fill="#632918"/>
<path fill-rule="evenodd" clip-rule="evenodd" d="M25.7861 1.13998C32.7825 1.13998 36.7932 6.46759 40.9596 11.4152C44.0246 15.1432 48.1929 17.6554 48.1929 22.8304C48.1929 30.746 44.8106 36.681 38.3644 40.4857C34.9841 42.5412 31.369 45.8892 27.1213 45.8892C19.1049 45.8892 9.11874 42.1612 5.11103 36.0726C2.90839 32.7256 1.57316 27.0938 1.57316 22.8304C1.57316 15.2948 5.50256 8.29464 11.5573 4.41507C15.0942 2.13126 21.1469 1.13998 25.7861 1.13998ZM25.9437 1.96361e-05C33.4913 1.97998e-05 37.8142 5.78342 42.2185 11.0342C45.5987 15.0674 50 17.807 50 23.363C50 31.7334 46.3838 38.2039 39.4667 42.3128C35.8485 44.444 31.9964 48.0962 27.3572 48.0962C18.7907 48.0962 8.09773 44.065 3.77277 37.5168C1.41654 33.8656 -4.99262e-07 27.9296 -6.12318e-07 23.363C-8.13938e-07 15.219 4.16733 7.68627 10.6919 3.50057C14.544 1.06418 20.9903 1.95287e-05 25.9437 1.96361e-05Z" fill="#7E3824"/>
<path fill-rule="evenodd" clip-rule="evenodd" d="M24.9227 27.9296C27.4355 27.9296 29.4805 25.95 29.4805 23.5145C29.4805 21.0781 27.4355 19.1014 24.9227 19.1014C22.3275 19.1014 20.2825 21.0781 20.2825 23.5145C20.2825 25.95 22.3275 27.9296 24.9227 27.9296ZM14.3081 21.6894L16.9815 21.2336C17.1382 20.6991 17.3741 20.1666 17.61 19.7098L16.1182 17.5786C15.9605 17.3502 15.9605 17.047 16.1182 16.8944L18.0819 15.0673C18.2385 14.839 18.5517 14.8389 18.7093 14.9915L20.9903 16.4386C21.4611 16.2102 22.0143 15.9818 22.5634 15.8302L23.0343 13.318C23.1126 13.0148 23.3495 12.8622 23.5844 12.8622L26.2579 12.8622C26.5721 12.8622 26.8071 13.0148 26.8071 13.318L27.3572 15.8302C27.8311 16.0576 28.3802 16.2102 28.8521 16.5144L31.0537 14.9915C31.2896 14.8389 31.6039 14.9157 31.7615 15.0673L33.6489 16.8944C33.8065 17.047 33.8848 17.3502 33.7282 17.5786L32.154 19.7098C32.4683 20.2424 32.6249 20.6991 32.7825 21.2336L35.455 21.6894C35.6909 21.7652 35.9268 21.9946 35.9268 22.222L35.9268 24.809C35.9268 25.0384 35.6909 25.2658 35.455 25.3416L32.7825 25.7984C32.6249 26.3309 32.4683 26.8635 32.154 27.3212L33.6489 29.4505C33.8065 29.6789 33.8065 29.9092 33.6489 30.1376L31.7615 31.9627C31.5256 32.1143 31.2113 32.1143 31.0537 32.0385L28.8521 30.5176C28.3802 30.8218 27.8311 30.9734 27.3572 31.125L26.8071 33.713C26.8071 33.9414 26.5721 34.1697 26.2579 34.1697L23.5844 34.1697C23.3495 34.1697 23.1126 33.9414 23.0343 33.713L22.5634 31.2018C22.0143 31.0492 21.4611 30.8218 20.9903 30.5934L18.7906 32.0385C18.5517 32.1901 18.2385 32.1901 18.0819 31.9627L16.1965 30.1376C16.0388 29.985 15.9605 29.6789 16.1182 29.4505L17.61 27.3212C17.3741 26.8635 17.1382 26.3309 16.9815 25.7984L14.3081 25.3416C14.0722 25.2658 13.9155 25.0384 13.9155 24.809L13.9155 22.222C13.9155 21.9946 14.0722 21.7652 14.3081 21.6894ZM23.1126 23.5145C23.1126 22.5262 23.978 21.6894 25.001 21.6894C26.1003 21.6894 26.8864 22.5262 26.8864 23.5145C26.8864 24.5058 26.1003 25.3416 25.001 25.3416C23.978 25.3416 23.1126 24.5058 23.1126 23.5145Z" fill="white"/>
<path d="M28.4597 26.9412C27.514 27.8538 26.2581 28.3864 24.9229 28.3864C23.5063 28.3864 22.2494 27.8538 21.383 26.9412C20.4403 26.0258 19.8901 24.8858 19.8901 23.5146C19.8901 22.1462 20.4403 20.9265 21.383 20.0908C22.2494 19.1782 23.5063 18.6456 24.9229 18.6456C26.2581 18.6456 27.514 19.1782 28.4597 20.0908C29.3241 20.9265 29.8742 22.1462 29.8742 23.5146C29.8742 24.8858 29.3241 26.0258 28.4597 26.9412ZM24.9229 27.5496C26.0222 27.5496 27.1215 27.0938 27.8313 26.4067C28.6173 25.6467 29.0882 24.6574 29.0882 23.5146C29.0882 22.3736 28.6173 21.3862 27.8313 20.6233C27.1215 19.9392 26.0222 19.4824 24.9229 19.4824C23.7412 19.4824 22.7212 19.9392 21.9351 20.6233C21.2254 21.3862 20.7545 22.3736 20.7545 23.5146C20.7545 24.6574 21.2254 25.6467 21.9351 26.4067C22.7212 27.0938 23.7412 27.5496 24.9229 27.5496ZM17.06 21.6136L14.3865 22.0704C14.3865 22.0704 14.3866 22.1462 14.3082 22.1462L14.3082 22.222L14.3082 24.809L14.3082 24.8858C14.3866 24.8858 14.3865 24.9626 14.3865 24.9626L17.06 25.4174L17.295 25.4942L17.3742 25.7226C17.4536 25.95 17.5319 26.1783 17.6885 26.4067C17.7668 26.6341 17.8451 26.9412 18.0017 27.1696L18.1603 27.3212L18.0017 27.5496L16.4316 29.6789C16.4316 29.7566 16.4316 29.7567 16.4316 29.7567C16.4316 29.8334 16.4316 29.8334 16.5099 29.8334L18.3953 31.7334C18.3953 31.7334 18.3953 31.7334 18.4736 31.7334L18.5519 31.7334L20.7545 30.2134L20.9904 30.0618L21.2254 30.2134C21.4613 30.365 21.6992 30.4408 21.9351 30.5176C22.1711 30.6702 22.406 30.746 22.7212 30.8218L22.9561 30.8976L22.9561 31.125L23.5063 33.6372C23.5063 33.713 23.5063 33.713 23.5063 33.713C23.5846 33.7898 23.5846 33.7898 23.5846 33.7898L26.2581 33.7898C26.3364 33.7898 26.3364 33.7898 26.3364 33.713C26.4147 33.713 26.4147 33.713 26.4147 33.6372L26.8865 31.0492L26.9648 30.8218L27.2008 30.746C27.4357 30.6702 27.6736 30.5934 27.9106 30.5176C28.1455 30.4408 28.3804 30.2892 28.6173 30.2134L28.8522 30.0618L29.0882 30.2134L31.2898 31.6576C31.2898 31.6576 31.2898 31.7334 31.3691 31.7334C31.3691 31.6576 31.4474 31.6576 31.4474 31.6576L33.3318 29.8334L33.3318 29.7567L33.3318 29.6789L31.84 27.5496L31.6823 27.3212L31.84 27.0938C31.9183 26.8635 32.0759 26.6341 32.1542 26.4067C32.2325 26.1783 32.3108 25.95 32.3901 25.7226L32.4684 25.4942L32.7034 25.4174L35.3768 24.9626L35.4551 24.8858L35.5334 24.809L35.5334 22.222L35.4551 22.1462L35.3768 22.0704L32.7034 21.6136L32.4684 21.5378L32.3901 21.3104C32.3108 21.0782 32.2325 20.8507 32.1542 20.6233C32.0759 20.394 31.9183 20.1666 31.84 19.9392L31.6823 19.7098L31.84 19.4824L33.3318 17.3502C33.4101 17.3502 33.4101 17.2744 33.4101 17.2744C33.4101 17.2744 33.4101 17.1986 33.3318 17.1986L31.4474 15.3706C31.4474 15.3706 31.4474 15.2948 31.3691 15.2948C31.3691 15.2948 31.2898 15.2948 31.2898 15.3706L29.0882 16.8186L28.8522 16.9712L28.6173 16.8186C28.3804 16.7428 28.2238 16.5902 27.9106 16.5144C27.6736 16.4386 27.4357 16.287 27.2008 16.287L26.9648 16.2102L26.8865 15.906L26.4147 13.3938C26.4147 13.318 26.4147 13.318 26.3364 13.318C26.3364 13.2422 26.3364 13.2422 26.2581 13.2422L23.5846 13.2422C23.5846 13.2422 23.5846 13.2422 23.5063 13.318C23.5063 13.318 23.5063 13.318 23.5063 13.3938L22.9561 15.906L22.9561 16.1344L22.7212 16.2102C22.406 16.287 22.1711 16.3628 21.9351 16.5144C21.6992 16.5902 21.383 16.666 21.147 16.8186L20.9904 16.9712L20.7545 16.8186L18.4736 15.2948C18.4736 15.2948 18.4736 15.2948 18.3953 15.2948C18.3953 15.2948 18.3953 15.2948 18.317 15.2948L16.4316 17.1228C16.4316 17.1986 16.4316 17.1986 16.4316 17.2744C16.4316 17.2744 16.4316 17.2744 16.4316 17.3502L18.0017 19.4824L18.082 19.7098L18.0017 19.9392C17.8451 20.1666 17.7668 20.394 17.6885 20.6233C17.5319 20.8507 17.4536 21.0782 17.3742 21.3104L17.295 21.5378L17.06 21.6136ZM14.2299 21.3104L16.6665 20.8507C16.7458 20.6991 16.8251 20.4698 16.9034 20.3182C16.9817 20.0908 17.06 19.9392 17.1383 19.7866L15.7218 17.8069C15.6435 17.5786 15.5652 17.3502 15.5652 17.1986C15.6435 16.9712 15.7218 16.7428 15.8814 16.5902L17.7668 14.7622C17.9234 14.6106 18.1603 14.5348 18.317 14.459C18.5519 14.459 18.7908 14.5348 18.9484 14.6864L20.9904 15.9818C21.2253 15.906 21.383 15.8302 21.6179 15.7544C21.7775 15.6786 22.0144 15.6019 22.2494 15.5261L22.6429 13.2422C22.7212 13.0148 22.7995 12.7864 22.9561 12.7097C23.1911 12.5551 23.3497 12.4793 23.5846 12.4793L26.2581 12.4793C26.493 12.4793 26.7289 12.5551 26.8865 12.7097C27.0431 12.7864 27.2008 13.0148 27.2008 13.2422L27.6736 15.5261C27.9106 15.6019 28.0672 15.6786 28.3021 15.7544C28.4597 15.8302 28.6173 15.906 28.7739 15.9818L30.819 14.6864C30.9756 14.5348 31.2115 14.5348 31.4474 14.5348C31.6823 14.5348 31.9183 14.6106 32.0759 14.7622L33.9633 16.5902C34.1199 16.7428 34.1982 16.9712 34.1982 17.1986C34.1982 17.427 34.1982 17.6553 34.0416 17.8069L32.7034 19.7866C32.7827 19.9392 32.861 20.0908 32.9393 20.3182C33.0176 20.4698 33.0969 20.6991 33.0969 20.8507L35.5334 21.3104C35.7704 21.3104 35.927 21.462 36.0836 21.6136C36.2402 21.7652 36.3195 21.9946 36.3195 22.222L36.3195 24.809C36.3195 25.0384 36.2402 25.2658 36.0836 25.4174C35.927 25.57 35.7704 25.6468 35.5334 25.7226L33.0969 26.1783C33.0969 26.3309 33.0176 26.5583 32.9393 26.7099C32.861 26.9412 32.7827 27.0938 32.625 27.2454L34.0416 29.2221C34.1199 29.3747 34.1982 29.6021 34.1982 29.8334C34.1982 30.0618 34.0416 30.2134 33.885 30.365L31.9966 32.2659C31.84 32.4175 31.6824 32.4943 31.4474 32.4943C31.2115 32.4943 30.9756 32.4943 30.819 32.3417L28.7739 31.0492C28.6173 31.125 28.4597 31.2018 28.2238 31.2785C28.0672 31.3543 27.9106 31.4302 27.6736 31.4302L27.2008 33.7898C27.2008 34.0172 27.0431 34.2456 26.8865 34.3214C26.7289 34.4739 26.493 34.5497 26.2581 34.5497L23.5846 34.5497C23.3497 34.5497 23.1911 34.4739 23.0344 34.3214C22.7995 34.2456 22.7212 34.0172 22.6429 33.7898L22.1711 31.506C22.0144 31.4302 21.7775 31.3543 21.6179 31.2785C21.383 31.2018 21.2253 31.125 21.0687 31.0492L19.0267 32.3417C18.7908 32.4943 18.5519 32.573 18.3953 32.4943C18.1603 32.4943 17.9234 32.4175 17.7668 32.2659L15.8814 30.4408C15.7218 30.2892 15.6435 30.0618 15.6435 29.8334C15.5652 29.6789 15.6435 29.4505 15.8001 29.2221L17.1383 27.3212C17.06 27.0938 16.9817 26.9412 16.9034 26.7099C16.8251 26.5583 16.7458 26.3309 16.6665 26.1783L14.2299 25.7226C14.0723 25.6468 13.8374 25.57 13.6798 25.4174C13.6015 25.2658 13.4438 25.0384 13.4438 24.809L13.4438 22.222C13.4438 21.9946 13.5232 21.7652 13.6798 21.6136C13.8374 21.462 14.0723 21.3104 14.2299 21.3104ZM23.9781 22.5262C23.7412 22.7546 23.5063 23.1346 23.5063 23.5146C23.5063 23.8945 23.7412 24.2774 23.9781 24.5058C24.2131 24.809 24.6066 24.9626 25.0012 24.9626C25.3937 24.9626 25.7862 24.809 26.1005 24.5058C26.3364 24.2774 26.493 23.8945 26.493 23.5146C26.493 23.1346 26.3364 22.7546 26.1005 22.5262C25.7862 22.222 25.3937 22.0704 25.0012 22.0704C24.6066 22.0704 24.2131 22.222 23.9781 22.5262ZM22.7212 23.5146C22.7212 22.9062 22.9561 22.2978 23.3497 21.9178C23.8195 21.5378 24.3697 21.3104 25.0012 21.3104C25.6296 21.3104 26.2581 21.5378 26.6506 21.9178C27.0432 22.2978 27.3574 22.9062 27.3574 23.5146C27.3574 24.1258 27.0432 24.6574 26.6506 25.1142C26.2581 25.4942 25.6296 25.7226 25.0012 25.7226C24.3697 25.7226 23.8195 25.4942 23.3497 25.1142C22.9561 24.6574 22.7212 24.1258 22.7212 23.5146Z" fill="#563429"/>
</svg>
