<svg width="50" height="50" viewBox="0 0 50 50" fill="none" xmlns="http://www.w3.org/2000/svg">
<path fill-rule="evenodd" clip-rule="evenodd" d="M25.9434 3.87573C32.9419 3.87573 36.8724 9.11872 40.8802 13.9066C43.9473 17.629 48.0364 20.1364 48.0364 25.229C48.0364 32.9028 44.7354 38.8299 38.3643 42.5542C35.0623 44.529 31.5263 47.8739 27.2816 47.8739C19.4186 47.8739 9.59294 44.1496 5.65944 38.1458C3.53908 34.8795 2.20182 29.4085 2.20182 25.229C2.20182 17.7823 6.05298 10.943 12.0275 7.06733C15.4892 4.86262 21.4637 3.87573 25.9434 3.87573ZM26.1793 2.73553C33.5704 2.73553 37.8151 8.43459 42.1402 13.6019C45.4412 17.5533 49.8435 20.2131 49.8435 25.6841C49.8435 33.9673 46.3066 40.2738 39.4666 44.3009C35.8514 46.43 32.0755 50 27.5959 50C19.1837 50 8.5689 45.9729 4.40349 39.5897C2.04419 36.0177 0.630615 30.1673 0.630615 25.6841C0.630615 17.7066 4.79604 10.3336 11.1641 6.23085C14.937 3.80004 21.3071 2.73553 26.1793 2.73553Z" fill="#563429"/>
<path fill-rule="evenodd" clip-rule="evenodd" d="M25.7083 1.14023C32.7822 1.14023 36.794 6.45987 40.8801 11.3981C44.0255 15.1215 48.1939 17.629 48.1939 22.8729C48.1939 30.7 44.8136 36.6272 38.3642 40.5029C34.9056 42.4776 31.3686 45.8206 27.0456 45.8206C19.1053 45.8206 9.11897 42.0982 5.11018 36.0177C2.9085 32.6757 1.57324 27.1281 1.57324 22.8729C1.57324 15.2739 5.50272 8.28321 11.5556 4.4075C15.0935 2.1271 21.1494 1.14023 25.7083 1.14023Z" fill="#C3854B"/>
<path fill-rule="evenodd" clip-rule="evenodd" d="M40.0168 19.4542C40.567 19.0729 41.2738 18.8448 41.826 18.4654C42.2185 18.086 42.6121 17.7066 42.9253 17.2495C43.0829 16.9458 43.3972 16.7178 43.5538 16.414C43.9473 15.957 44.6561 16.4897 45.0497 15.5019C45.3629 15.7299 45.6782 16.0336 45.9914 16.2607C45.2846 16.185 44.5748 16.3383 43.9473 16.6421C43.869 16.7177 43.5538 17.4009 43.0046 17.8579C41.6684 18.9972 42.0619 18.7691 40.0168 19.4542Z" fill="#9A6D45"/>
<path fill-rule="evenodd" clip-rule="evenodd" d="M40.0168 19.4542C40.567 19.0729 41.1955 18.7691 41.7477 18.3131C42.1402 17.9336 42.4544 17.5532 42.847 17.1729C43.0046 16.7934 43.3189 16.5654 43.4755 16.3383C43.869 15.8056 44.4965 16.3383 44.9714 15.4262C45.2846 15.6542 45.5998 15.8813 45.9131 16.1093C45.2063 16.0336 44.4965 16.185 43.869 16.5654C43.7897 16.5654 43.3972 17.1729 42.9253 17.5533C41.5087 18.7691 42.0619 18.7691 40.0168 19.4542Z" fill="#632918"/>
<path fill-rule="evenodd" clip-rule="evenodd" d="M5.8962 20.7448C5.34603 21.2009 5.03181 21.8084 4.40333 22.1888C4.01078 22.4925 3.45759 22.7205 2.98674 22.9486C2.6725 23.0243 2.35827 23.2523 1.96572 23.4056C1.41656 23.6327 1.8081 24.3925 0.788086 24.5439C0.944703 24.9243 1.10131 25.3047 1.25894 25.6841C1.33724 24.9243 1.65149 24.3159 2.12335 23.7851C2.20166 23.7851 2.98674 23.557 3.53891 23.1757C5.0318 22.1888 4.71756 22.5692 5.8962 20.7448Z" fill="#9A6D45"/>
<path fill-rule="evenodd" clip-rule="evenodd" d="M5.89636 20.7449C5.34619 21.201 4.87434 21.6561 4.32417 22.1131C3.85332 22.4169 3.37944 22.6449 2.90858 22.8729C2.51503 22.8729 2.20181 23.1757 1.88656 23.2524C1.3374 23.4814 1.72995 24.2402 0.630615 24.3926C0.788236 24.772 0.94485 25.1534 1.17978 25.5328C1.25909 24.8477 1.57334 24.2402 2.04419 23.7094C2.12351 23.6328 2.75198 23.4057 3.30115 23.0243C4.79604 21.9598 4.71771 22.4926 5.89636 20.7449Z" fill="#632918"/>
<path fill-rule="evenodd" clip-rule="evenodd" d="M13.5223 37.3103L13.7582 43.0093L11.0857 41.5654L13.5223 37.3103Z" fill="#9A6D45"/>
<path fill-rule="evenodd" clip-rule="evenodd" d="M13.5223 37.2346L12.8155 42.4775L9.98535 40.9579L13.5223 37.2346Z" fill="#632918"/>
<path fill-rule="evenodd" clip-rule="evenodd" d="M22.1714 5.09155L22.5629 0.760743L20.283 1.14015L21.4636 3.11489L22.1714 5.09155Z" fill="#9A6D45"/>
<path fill-rule="evenodd" clip-rule="evenodd" d="M22.1713 5.09155L22.092 0.836435L19.812 1.14015L20.9896 3.11489L22.1713 5.09155Z" fill="#632918"/>
<path fill-rule="evenodd" clip-rule="evenodd" d="M36.9504 34.271C37.343 34.8037 37.8932 35.2588 38.2074 35.7906C38.5216 36.2467 38.6783 36.7785 38.8379 37.2345C38.8379 37.6149 39.0748 37.9953 39.1531 38.2981C39.3097 38.8298 40.1731 38.6018 40.1731 39.5897C40.5667 39.514 40.9582 39.3626 41.4301 39.2869C40.7233 39.0589 40.0948 38.6775 39.624 38.2224C39.5447 38.1457 39.4663 37.3102 39.1531 36.7785C38.2857 35.2588 38.5999 35.5626 36.9504 34.271Z" fill="#9A6D45"/>
<path fill-rule="evenodd" clip-rule="evenodd" d="M36.8723 34.1953C37.2649 34.8037 37.7357 35.3345 38.1293 35.942C38.3642 36.3234 38.5218 36.8551 38.6784 37.3859C38.7597 37.6906 38.9174 38.07 38.9957 38.3747C39.1533 38.9812 40.0167 38.6775 40.095 39.742C40.4886 39.5897 40.8801 39.514 41.2737 39.3626C40.5669 39.1346 39.9384 38.8298 39.4665 38.2981C39.4665 38.2224 39.3099 37.5383 38.9957 37.0065C38.051 35.4112 38.6001 35.5626 36.8723 34.1953Z" fill="#632918"/>
<path fill-rule="evenodd" clip-rule="evenodd" d="M25.7083 1.14017C32.7822 1.14017 36.794 6.45981 40.8801 11.3981C44.0255 15.1215 48.1939 17.6289 48.1939 22.8729C48.1939 30.7 44.8136 36.6271 38.3642 40.5028C34.9055 42.4775 31.3686 45.8205 27.0456 45.8205C19.1053 45.8205 9.11894 42.0981 5.11015 36.0177C2.90847 32.6757 1.57322 27.128 1.57322 22.8729C1.57322 15.2738 5.50269 8.28315 11.5555 4.40744C15.0935 2.12704 21.1493 1.14017 25.7083 1.14017ZM25.9432 -3.05176e-05C33.492 -3.05176e-05 37.7357 5.77473 42.2183 11.0187C45.5203 15.0458 50 17.7823 50 23.328C50 31.7626 46.3848 38.1458 39.4665 42.2505C35.7699 44.3776 31.9188 48.0252 27.3608 48.0252C18.79 48.0252 8.01961 43.9972 3.77488 37.4616C1.41659 33.8906 0 27.8878 0 23.328C0 15.1981 4.16742 7.75043 10.6921 3.57196C14.465 1.06449 20.9897 -3.05176e-05 25.9432 -3.05176e-05Z" fill="#7E3824"/>
<path d="M28.4187 18.9294L25.5198 12.7045C25.3152 12.2652 24.6848 12.2652 24.4802 12.7045L21.5813 18.9294C21.4979 19.1084 21.3266 19.2317 21.1289 19.2549L14.2557 20.0621C13.7707 20.119 13.5759 20.7128 13.9345 21.0413L19.016 25.6956C19.1621 25.8295 19.2276 26.029 19.1888 26.2224L17.8399 32.9461C17.7447 33.4206 18.2547 33.7876 18.6809 33.5513L24.7204 30.203C24.8941 30.1066 25.1059 30.1066 25.2796 30.203L31.3191 33.5513C31.7453 33.7876 32.2553 33.4206 32.1601 32.9461L30.8112 26.2224C30.7724 26.029 30.8379 25.8295 30.984 25.6956L36.0655 21.0413C36.4241 20.7128 36.2293 20.119 35.7443 20.0621L28.8711 19.2549C28.6734 19.2317 28.5021 19.1084 28.4187 18.9294Z" fill="#FFDA00" stroke="white" stroke-width="2" stroke-linecap="round" stroke-linejoin="round"/>
</svg>
