<svg width="50" height="50" viewBox="0 0 50 50" fill="none" xmlns="http://www.w3.org/2000/svg">
<path fill-rule="evenodd" clip-rule="evenodd" d="M25.9432 3.8039C32.9418 3.8039 36.8723 9.05482 40.8801 13.9267C43.9472 17.579 48.0363 20.0902 48.0363 25.1895C48.0363 32.9527 44.7353 38.812 38.3642 42.542C35.0622 44.5197 31.5262 47.8678 27.2815 47.8678C19.4185 47.8678 9.59281 44.1397 5.65932 38.2036C3.53896 34.8546 2.2017 29.3753 2.2017 25.1895C2.2017 17.7315 6.05286 10.8819 12.0274 7.00129C15.489 4.79324 21.4636 3.8039 25.9432 3.8039ZM26.1792 2.73873C33.5703 2.73873 37.815 8.37064 42.14 13.5458C45.441 17.5032 49.8434 20.167 49.8434 25.6463C49.8434 33.9421 46.3065 40.2581 39.4665 44.2913C35.8513 46.4226 32.0754 50 27.5957 50C19.1836 50 8.56878 46.0416 4.40337 39.5739C2.04407 36.0724 0.630493 30.1363 0.630493 25.6463C0.630493 17.6557 4.79592 10.2735 11.164 6.16354C14.9369 3.72807 21.307 2.73873 26.1792 2.73873Z" fill="#563429"/>
<path fill-rule="evenodd" clip-rule="evenodd" d="M25.7083 1.06522C32.7822 1.06522 36.794 6.46775 40.8801 11.3397C44.0255 15.0677 48.1939 17.6557 48.1939 22.8309C48.1939 30.6689 44.8136 36.6817 38.3642 40.4866C34.9056 42.4652 31.3686 45.89 27.0456 45.89C19.1053 45.89 9.11897 42.0843 5.11018 35.9966C2.9085 32.6486 1.57324 27.0924 1.57324 22.8309C1.57324 15.297 5.50272 8.29486 11.5556 4.33747C15.0935 2.05361 21.1494 1.06522 25.7083 1.06522Z" fill="#C3854B"/>
<path fill-rule="evenodd" clip-rule="evenodd" d="M40.0167 19.4818C40.5669 19.025 41.2737 18.8734 41.8259 18.4167C42.2184 18.0357 42.6119 17.6557 42.9252 17.2747C43.0828 16.8947 43.397 16.6654 43.5537 16.3612C43.9472 15.9054 44.656 16.437 45.0495 15.5244C45.3628 15.7528 45.678 15.9812 45.9913 16.2096C45.2845 16.1328 44.5747 16.2854 43.9472 16.6654C43.8689 16.6654 43.5537 17.4273 43.0045 17.8073C41.6682 18.9492 42.0618 18.7967 40.0167 19.4818Z" fill="#9A6D45"/>
<path fill-rule="evenodd" clip-rule="evenodd" d="M40.0167 19.4818C40.5669 19.025 41.1954 18.7208 41.7475 18.265C42.1401 17.9599 42.4543 17.5031 42.8469 17.1231C43.0045 16.8189 43.3187 16.5128 43.4753 16.2854C43.8689 15.7528 44.4964 16.2854 44.9713 15.3728C45.2845 15.6012 45.5997 15.8286 45.913 16.057C45.2062 16.057 44.4964 16.2096 43.8689 16.5128C43.7896 16.5896 43.397 17.1231 42.9252 17.5789C41.5086 18.7209 42.0618 18.7967 40.0167 19.4818Z" fill="#632918"/>
<path fill-rule="evenodd" clip-rule="evenodd" d="M5.8962 20.6986C5.34603 21.1564 5.03181 21.7647 4.40333 22.1447C4.01078 22.4509 3.45759 22.6792 2.98674 22.9067C2.6725 22.9834 2.35827 23.2109 1.96572 23.3634C1.41656 23.5909 1.8081 24.3528 0.788086 24.5044C0.944703 24.8854 1.10131 25.2663 1.25894 25.6463C1.33724 24.9612 1.65149 24.3528 2.12335 23.8202C2.20166 23.7434 2.98674 23.515 3.53891 23.2109C5.0318 22.1447 4.71756 22.5267 5.8962 20.6986Z" fill="#9A6D45"/>
<path fill-rule="evenodd" clip-rule="evenodd" d="M5.89624 20.6986C5.34607 21.1564 4.87422 21.6889 4.32405 22.0689C3.85319 22.3731 3.37932 22.6025 2.90846 22.8309C2.51491 22.9067 2.20168 23.1351 1.88644 23.2109C1.33728 23.4392 1.72982 24.277 0.630493 24.4286C0.788114 24.8086 0.944728 25.1128 1.17965 25.4947C1.25897 24.8086 1.57322 24.2002 2.04407 23.6676C2.12338 23.5909 2.75186 23.3634 3.30102 23.0592C4.79591 21.9931 4.71759 22.5267 5.89624 20.6986Z" fill="#632918"/>
<path fill-rule="evenodd" clip-rule="evenodd" d="M22.1714 5.09744L22.5629 0.684261L20.283 1.06522L21.4636 3.04295L22.1714 5.09744Z" fill="#9A6D45"/>
<path fill-rule="evenodd" clip-rule="evenodd" d="M22.1713 5.09744L22.092 0.760069L19.812 1.06522L20.9896 3.04295L22.1713 5.09744Z" fill="#632918"/>
<path fill-rule="evenodd" clip-rule="evenodd" d="M25.7083 1.06516C32.7822 1.06516 36.794 6.46769 40.8801 11.3396C44.0255 15.0676 48.1939 17.6557 48.1939 22.8308C48.1939 30.6688 44.8136 36.6817 38.3642 40.4865C34.9055 42.4652 31.3686 45.89 27.0456 45.89C19.1053 45.89 9.11894 42.0842 5.11015 35.9965C2.90847 32.6485 1.57321 27.0924 1.57321 22.8308C1.57321 15.297 5.50269 8.29479 11.5555 4.3374C15.0935 2.05355 21.1493 1.06516 25.7083 1.06516ZM25.9432 7.97902e-06C33.492 7.97902e-06 37.7357 5.70771 42.2183 10.9577C45.5203 14.9909 50 17.7315 50 23.2866C50 31.734 46.3848 38.1278 39.4665 42.2368C35.7699 44.4439 31.9188 48.0213 27.3608 48.0213C18.79 48.0213 8.01961 43.9881 3.77488 37.4417C1.41659 33.8662 0 27.8524 0 23.2866C0 15.2193 4.16742 7.68543 10.6921 3.49966C14.465 1.06516 20.9897 7.97902e-06 25.9432 7.97902e-06Z" fill="#7E3824"/>
<path d="M21.8562 32.0382C21.8562 30.593 22.563 29.9088 24.0579 29.9088C24.7657 29.9088 25.2365 30.0605 25.63 30.4405C26.0226 30.8204 26.1792 31.354 26.1792 32.0382C26.1792 32.7243 26.0226 33.2569 25.63 33.6369C25.2365 34.0179 24.6863 34.2462 24.0579 34.2462C23.3481 34.2462 22.7999 34.0179 22.4064 33.6369C22.0138 33.2569 21.8562 32.7243 21.8562 32.0382ZM22.4846 27.4724V26.5589C22.4846 25.5705 22.6423 24.6569 23.0348 23.9728C23.4284 23.2866 24.1372 22.6024 25.0799 21.8405C26.2585 20.927 27.0456 20.2428 27.3609 19.786C27.6741 19.2534 27.91 18.6451 27.91 17.9599C27.91 17.1989 27.5958 16.5896 27.0456 16.1328C26.4935 15.7528 25.7084 15.5244 24.6863 15.5244C23.7416 15.5244 22.8782 15.6012 22.0921 15.9054C21.307 16.1328 20.5189 16.437 19.7338 16.819L18.5552 14.3067C20.5189 13.2415 22.6423 12.709 24.9233 12.709C26.886 12.709 28.3809 13.1648 29.4812 14.0783C30.6619 14.9909 31.211 16.2096 31.211 17.8073C31.211 18.5693 31.1327 19.1776 30.8978 19.7102C30.6619 20.3186 30.3476 20.8512 29.8728 21.3089C29.4812 21.8405 28.6961 22.5267 27.6741 23.2866C26.7294 23.9728 26.1009 24.5812 25.7867 25.037C25.4724 25.4947 25.3148 26.1021 25.3148 26.864V27.4724H22.4846Z" fill="white"/>
<path d="M22.7205 30.7446C22.4063 30.974 22.2497 31.4298 22.2497 32.0382C22.2497 32.3443 22.328 32.6485 22.4063 32.8759C22.4846 33.0285 22.5629 33.2569 22.7205 33.4085C22.8782 33.5601 23.0348 33.6369 23.2697 33.7127C23.4283 33.7904 23.7416 33.8662 24.0578 33.8662C24.2948 33.8662 24.608 33.7904 24.7656 33.7127C25.0015 33.6369 25.1582 33.5601 25.3148 33.4085C25.4724 33.2569 25.5507 33.0285 25.63 32.8001C25.7083 32.5717 25.7866 32.3443 25.7866 32.0382C25.7866 31.734 25.7083 31.5066 25.63 31.2782C25.63 31.0498 25.4724 30.8972 25.3148 30.7446C25.2365 30.593 25.0015 30.5162 24.8439 30.4404C24.608 30.3646 24.2948 30.2888 24.0578 30.2888C23.4283 30.2888 22.9565 30.4405 22.7205 30.7446ZM21.4636 32.0382C21.4636 31.2024 21.6995 30.593 22.0921 30.1363C22.5629 29.6805 23.1914 29.5279 24.0578 29.5279C24.4514 29.5279 24.7656 29.5279 25.0798 29.6805C25.3941 29.7563 25.7083 29.9847 25.9433 30.2121C26.1792 30.4405 26.3368 30.6688 26.4151 30.974C26.5717 31.354 26.651 31.6582 26.651 32.0382C26.651 32.4201 26.5717 32.8001 26.4151 33.1043C26.3368 33.4085 26.1792 33.7127 25.9433 33.942C25.7083 34.1704 25.3941 34.322 25.0798 34.4746C24.7656 34.6262 24.4514 34.6262 24.0578 34.6262C23.6633 34.6262 23.2697 34.6262 22.9565 34.4746C22.6422 34.322 22.328 34.1704 22.0921 33.942C21.8561 33.7127 21.6995 33.4085 21.6212 33.1043C21.4636 32.8001 21.4636 32.4201 21.4636 32.0382ZM22.8782 26.5589V27.0924H24.9232V26.864C24.9232 26.483 25.0015 26.1021 25.0798 25.7221C25.1581 25.3421 25.3148 25.0369 25.4724 24.8085C25.63 24.5811 25.8649 24.2769 26.1792 23.9727C26.4934 23.6676 26.886 23.3634 27.3608 22.9834C27.91 22.6024 28.3808 22.2205 28.6961 21.9173C29.0876 21.6131 29.4029 21.3089 29.5595 21.0805C29.7944 20.8512 29.9531 20.6228 30.1127 20.3186C30.2693 20.0902 30.4259 19.8628 30.5042 19.6344C30.5825 19.3292 30.6618 19.1009 30.7412 18.7967C30.7412 18.4925 30.8194 18.1883 30.8194 17.8073C30.8194 17.1231 30.6618 16.437 30.4259 15.8286C30.1127 15.297 29.7944 14.7635 29.2453 14.3825C28.6961 13.9267 28.1459 13.6215 27.4391 13.3932C26.651 13.2415 25.8649 13.0889 24.9232 13.0889C23.8199 13.0889 22.7206 13.2415 21.6995 13.469C20.8331 13.6973 19.9687 14.0783 19.1053 14.4593L19.9687 16.2854C20.2046 16.1328 20.5189 16.057 20.7538 15.9054C21.1493 15.7528 21.5429 15.6012 21.9344 15.5244C22.4063 15.3728 22.7999 15.297 23.2697 15.2193C23.7416 15.1435 24.2164 15.0677 24.6863 15.0677C25.2365 15.0677 25.7083 15.1435 26.1792 15.297C26.5717 15.3728 26.9673 15.6012 27.2815 15.8286C27.6741 16.057 27.91 16.3612 28.0676 16.7431C28.2242 17.1231 28.3025 17.5031 28.3025 17.9599C28.3025 18.3409 28.2242 18.7209 28.1459 19.025C28.0676 19.405 27.91 19.7102 27.7524 19.9386C27.5175 20.2428 27.2032 20.547 26.8076 20.927C26.4151 21.3089 25.9433 21.6889 25.3941 22.1447C24.9232 22.5266 24.4514 22.8308 24.1371 23.2108C23.8199 23.515 23.585 23.896 23.4283 24.2002C23.2697 24.5044 23.1131 24.8085 23.0348 25.2663C22.9565 25.6463 22.8782 26.1021 22.8782 26.5589ZM22.0138 27.4724V26.5589C22.0138 26.0263 22.0921 25.4947 22.1714 25.0369C22.328 24.5811 22.4846 24.2002 22.7205 23.8202C22.8782 23.4392 23.1914 23.0592 23.585 22.6792C23.8982 22.2973 24.373 21.9173 24.8439 21.5363C25.3941 21.0805 25.8649 20.6986 26.2585 20.3186C26.651 20.0144 26.886 19.786 27.0456 19.5576C27.2032 19.3292 27.2815 19.1009 27.3608 18.7967C27.4391 18.5693 27.4391 18.2651 27.4391 17.9599C27.4391 17.6557 27.4391 17.3515 27.2815 17.1231C27.2032 16.8189 27.0456 16.6654 26.8076 16.437C26.5717 16.2854 26.2585 16.1328 25.9433 16.057C25.5507 15.9812 25.1582 15.9054 24.6863 15.9054C24.2164 15.9054 23.8199 15.9054 23.4283 15.9812C22.9565 16.057 22.5629 16.1328 22.2497 16.2854C21.8561 16.3612 21.4636 16.5128 21.068 16.6654C20.6755 16.8189 20.2829 16.9705 19.9687 17.1989L19.5761 17.3515L19.4185 16.9706L18.1596 14.4593L18.002 14.1551L18.3192 13.9267C19.3402 13.3932 20.4406 13.0132 21.5429 12.709C22.6422 12.4038 23.7416 12.328 24.9232 12.328C25.9432 12.328 26.8077 12.4038 27.6741 12.6332C28.4592 12.9373 29.1659 13.2415 29.7944 13.7731C30.4259 14.2309 30.8195 14.8393 31.1327 15.5244C31.4469 16.2096 31.6045 16.9705 31.6045 17.8073C31.6045 18.1883 31.6045 18.5692 31.5262 18.9492C31.4469 19.2534 31.3686 19.5576 31.2903 19.8628C31.1327 20.167 30.9761 20.4712 30.8194 20.7754C30.6618 21.0805 30.4259 21.3089 30.191 21.6131C30.0333 21.8405 29.7161 22.1447 29.3246 22.5266C28.931 22.8308 28.4591 23.2108 27.91 23.5908C27.4391 23.9728 27.0456 24.277 26.8076 24.5044C26.4934 24.8086 26.2585 25.0369 26.1792 25.2663C26.0225 25.4179 25.9432 25.6463 25.8649 25.9505C25.7866 26.1789 25.7866 26.483 25.7866 26.864V27.4724V27.9292H25.3148H22.4846H22.0138V27.4724Z" fill="#563429"/>
</svg>
