<svg width="50" height="50" viewBox="0 0 50 50" fill="none" xmlns="http://www.w3.org/2000/svg">
<path fill-rule="evenodd" clip-rule="evenodd" d="M26.022 3.8039C32.9391 3.8039 36.8715 9.05482 40.9596 13.9267C44.0246 17.579 48.1126 20.0902 48.1126 25.1895C48.1126 32.9527 44.7313 38.812 38.4427 42.542C35.0635 44.5197 31.5256 47.8678 27.3573 47.8678C19.4974 47.8678 9.66891 44.1397 5.7395 38.2036C3.53687 34.8546 2.27995 29.3753 2.27995 25.1895C2.27995 17.7315 6.05272 10.8819 12.0271 7.00129C15.565 4.79324 21.4611 3.8039 26.022 3.8039ZM26.1786 2.73873C33.6489 2.73873 37.8926 8.37064 42.2185 13.5458C45.5205 17.5032 49.9207 20.167 49.9207 25.6463C49.9207 33.9421 46.3055 40.2581 39.4667 44.2913C35.9268 46.4226 32.154 50 27.5932 50C19.1832 50 8.6479 46.0416 4.40426 39.5739C2.12332 36.0724 0.706787 30.1363 0.706787 25.6463C0.706787 17.6557 4.79581 10.2735 11.1638 6.16354C14.9366 3.72807 21.3045 2.73873 26.1786 2.73873Z" fill="#563429"/>
<path fill-rule="evenodd" clip-rule="evenodd" d="M25.7861 1.06519C32.7826 1.06519 36.7933 6.46772 40.9596 11.3396C44.0247 15.0677 48.193 17.6557 48.193 22.8308C48.193 30.6688 44.8107 36.6817 38.3645 40.4865C34.9842 42.4652 31.369 45.89 27.1214 45.89C19.105 45.89 9.11882 42.0843 5.11111 35.9966C2.90848 32.6485 1.57324 27.0924 1.57324 22.8308C1.57324 15.297 5.50264 8.29483 11.5574 4.33744C15.0942 2.05358 21.147 1.06519 25.7861 1.06519Z" fill="#C3854B"/>
<path fill-rule="evenodd" clip-rule="evenodd" d="M40.0161 19.4818C40.6446 19.025 41.3513 18.8734 41.8232 18.4167C42.295 18.0357 42.6113 17.6557 42.9255 17.2747C43.0831 16.8947 43.3964 16.6654 43.6323 16.3612C43.9465 15.9054 44.6533 16.437 45.0458 15.5244C45.3631 15.7528 45.7556 15.9812 46.0698 16.2096C45.3631 16.1328 44.6533 16.2854 44.0248 16.6654C43.9465 16.6654 43.554 17.4273 43.0831 17.8073C41.6666 18.9492 42.1364 18.7967 40.0161 19.4818Z" fill="#9A6D45"/>
<path fill-rule="evenodd" clip-rule="evenodd" d="M40.0161 19.4818C40.6446 19.025 41.1947 18.7208 41.7449 18.265C42.1364 17.9599 42.533 17.5031 42.8472 17.1231C43.0038 16.8189 43.3181 16.5128 43.554 16.2854C43.8682 15.7528 44.575 16.2854 44.9675 15.3728C45.2838 15.6012 45.599 15.8286 45.9905 16.057C45.2034 16.057 44.575 16.2096 43.9465 16.5128C43.8682 16.5896 43.4757 17.1231 42.9255 17.5789C41.5883 18.7209 42.1364 18.7967 40.0161 19.4818Z" fill="#632918"/>
<path fill-rule="evenodd" clip-rule="evenodd" d="M5.89621 20.6986C5.42436 21.1563 5.03281 21.7647 4.48266 22.1447C4.0078 22.4508 3.53696 22.6792 3.06612 22.9066C2.67258 22.9834 2.35833 23.2108 2.0451 23.3634C1.49494 23.5908 1.80917 24.3528 0.785156 24.5044C0.94177 24.8853 1.10041 25.2663 1.25904 25.6463C1.41665 24.9611 1.72987 24.3528 2.20172 23.8202C2.28003 23.7434 3.06611 23.515 3.53696 23.2108C5.03282 22.1447 4.79589 22.5266 5.89621 20.6986Z" fill="#9A6D45"/>
<path fill-rule="evenodd" clip-rule="evenodd" d="M5.97443 20.6986C5.42428 21.1563 4.95341 21.6889 4.32495 22.0689C3.9294 22.3731 3.38026 22.6024 2.90841 22.8308C2.59418 22.9066 2.27993 23.135 1.96671 23.2108C1.33824 23.4392 1.7298 24.277 0.706787 24.4286C0.863401 24.8086 1.02001 25.1128 1.18064 25.4947C1.33826 24.8086 1.57317 24.2002 2.04502 23.6676C2.12332 23.5908 2.8301 23.3634 3.38026 23.0592C4.7958 21.9931 4.79581 22.5266 5.97443 20.6986Z" fill="#632918"/>
<path fill-rule="evenodd" clip-rule="evenodd" d="M13.523 37.2901L13.8372 42.9978L11.0854 41.5517L13.523 37.2901Z" fill="#9A6D45"/>
<path fill-rule="evenodd" clip-rule="evenodd" d="M13.523 37.2142L12.8132 42.4651L10.0635 40.9432L13.523 37.2142Z" fill="#632918"/>
<path fill-rule="evenodd" clip-rule="evenodd" d="M22.2492 5.09741L22.6428 0.684231L20.3618 1.06519L21.5394 3.04292L22.2492 5.09741Z" fill="#9A6D45"/>
<path fill-rule="evenodd" clip-rule="evenodd" d="M22.2491 5.09741L22.1708 0.760038L19.8899 1.06519L21.0685 3.04292L22.2491 5.09741Z" fill="#632918"/>
<path fill-rule="evenodd" clip-rule="evenodd" d="M36.9497 34.2463C37.3432 34.7789 37.8924 35.2356 38.286 35.844C38.5209 36.3008 38.6785 36.7575 38.8351 37.2901C38.9144 37.5943 39.071 37.9743 39.2277 38.2805C39.3873 38.8879 40.1724 38.5837 40.2527 39.6498C40.6442 39.4982 41.0377 39.4204 41.4293 39.2678C40.7225 39.1162 40.094 38.7362 39.6242 38.2037C39.6242 38.1279 39.4666 37.3659 39.1493 36.7575C38.286 35.2356 38.6002 35.5398 36.9497 34.2463Z" fill="#9A6D45"/>
<path fill-rule="evenodd" clip-rule="evenodd" d="M36.9497 34.2462C37.3432 34.7788 37.8141 35.3123 38.1284 35.9207C38.3643 36.3765 38.5209 36.8333 38.7568 37.3659C38.7568 37.7459 38.9927 38.052 39.071 38.3562C39.2276 38.9646 40.0157 38.6604 40.094 39.7265C40.4876 39.5739 40.8811 39.4981 41.2727 39.3446C40.5659 39.192 40.0157 38.812 39.5449 38.2804C39.4666 38.2036 39.309 37.5185 38.9927 36.9859C38.1283 35.464 38.6002 35.5398 36.9497 34.2462Z" fill="#632918"/>
<path fill-rule="evenodd" clip-rule="evenodd" d="M25.7861 1.06519C32.7825 1.06519 36.7932 6.46772 40.9596 11.3396C44.0246 15.0677 48.1929 17.6557 48.1929 22.8308C48.1929 30.6688 44.8106 36.6817 38.3644 40.4865C34.9841 42.4652 31.369 45.89 27.1213 45.89C19.1049 45.89 9.11874 42.0842 5.11103 35.9966C2.90839 32.6485 1.57316 27.0924 1.57316 22.8308C1.57316 15.297 5.50256 8.29483 11.5573 4.33744C15.0942 2.05358 21.1469 1.06519 25.7861 1.06519ZM25.9437 3.8147e-05C33.4913 3.8147e-05 37.8142 5.70774 42.2185 10.9577C45.5987 14.9909 50 17.7315 50 23.2866C50 31.734 46.3838 38.1278 39.4667 42.2368C35.8485 44.4439 31.9964 48.0213 27.3572 48.0213C18.7907 48.0213 8.09773 43.9881 3.77277 37.4417C1.41654 33.8662 0 27.8524 0 23.2866C0 15.2193 4.16734 7.68546 10.6919 3.49969C14.544 1.06519 20.9903 3.8147e-05 25.9437 3.8147e-05Z" fill="#7E3824"/>
<circle cx="25" cy="23" r="10.5" stroke="white" stroke-width="2" stroke-linecap="round" stroke-linejoin="round"/>
<path d="M25 19.5L21.5 23M21.5 23L25 26.5M21.5 23H28.5" stroke="white" stroke-width="2" stroke-linecap="round" stroke-linejoin="round"/>
</svg>
