<svg width="50" height="50" viewBox="0 0 50 50" fill="none" xmlns="http://www.w3.org/2000/svg">
<path fill-rule="evenodd" clip-rule="evenodd" d="M25.9797 3.87952C32.8889 3.87952 36.813 9.13133 40.8926 13.9264C43.9538 17.6553 48.0373 20.0907 48.0373 25.19C48.0373 32.953 44.7406 38.8122 38.3837 42.6179C35.0058 44.5966 31.5527 47.8688 27.3158 47.8688C19.4655 47.8688 9.65551 44.2166 5.73032 38.2038C3.61036 34.9297 2.27524 29.4505 2.27524 25.19C2.27524 17.8069 6.12224 10.8826 12.009 7.0788C15.5423 4.79499 21.5072 3.87952 25.9797 3.87952ZM26.1361 2.73956C33.5945 2.73956 37.8314 8.37038 42.1505 13.6232C45.4463 17.5027 49.8405 20.2423 49.8405 25.7225C49.8405 34.0172 46.2301 40.3341 39.4813 44.3682C35.8709 46.4975 32.102 50 27.5514 50C19.1517 50 8.63411 46.0417 4.39519 39.649C2.11887 36.0726 0.705566 30.2134 0.705566 25.7225C0.705566 17.7311 4.78811 10.35 11.2242 6.24012C14.9128 3.80373 21.3509 2.73956 26.1361 2.73956Z" fill="#563429"/>
<path fill-rule="evenodd" clip-rule="evenodd" d="M25.7443 1.13994C32.7327 1.13994 36.734 6.46757 40.8928 11.4152C44.0351 15.1432 48.1157 17.6553 48.1157 22.8304C48.1157 30.746 44.7408 36.681 38.3057 40.4857C34.9278 42.5412 31.3174 45.8892 27.0805 45.8892C19.0737 45.8892 9.1054 42.1612 5.18021 36.0726C2.98307 32.7256 1.64795 27.0938 1.64795 22.8304C1.64795 15.2948 5.49494 8.29462 11.5381 4.41504C15.0703 2.13123 21.1135 1.13994 25.7443 1.13994Z" fill="#C3854B"/>
<path fill-rule="evenodd" clip-rule="evenodd" d="M40.0305 19.4824C40.5798 19.1015 41.2885 18.8741 41.8367 18.4173C42.2287 18.1112 42.5424 17.6554 42.8561 17.2744C43.0125 16.9712 43.3272 16.7428 43.5618 16.4386C43.8755 15.9819 44.5842 16.5144 44.9761 15.5261C45.368 15.7545 45.6817 15.9819 45.9955 16.287C45.2898 16.2102 44.5842 16.3628 43.9537 16.666C43.8755 16.7428 43.4836 17.427 43.0125 17.807C41.6012 19.0257 42.0723 18.7982 40.0305 19.4824Z" fill="#9A6D45"/>
<path fill-rule="evenodd" clip-rule="evenodd" d="M40.0305 19.4824C40.5798 19.1015 41.2093 18.7224 41.6794 18.3415C42.1505 17.9586 42.4642 17.5786 42.7779 17.1986C42.9343 16.8186 43.248 16.5902 43.4836 16.287C43.7973 15.8303 44.506 16.3628 44.8979 15.3706C45.2116 15.6787 45.6036 15.9061 45.9173 16.1344C45.2116 16.0577 44.506 16.2103 43.8755 16.5144C43.7973 16.5902 43.4054 17.1986 42.9343 17.5786C41.523 18.7224 42.0723 18.7982 40.0305 19.4824Z" fill="#632918"/>
<path fill-rule="evenodd" clip-rule="evenodd" d="M5.96477 20.7749C5.41648 21.2336 5.02256 21.842 4.47428 22.222C4.00318 22.5262 3.53208 22.7545 3.06098 22.9819C2.66906 23.0587 2.35532 23.2871 2.03958 23.4387C1.4913 23.5903 1.88321 24.43 0.785645 24.5816C0.94201 24.9626 1.09939 25.3416 1.33394 25.6467C1.41312 24.9626 1.72685 24.3542 2.19695 23.8187C2.27514 23.7429 3.06097 23.5903 3.61026 23.2103C5.10175 22.1462 4.78801 22.5262 5.96477 20.7749Z" fill="#9A6D45"/>
<path fill-rule="evenodd" clip-rule="evenodd" d="M5.96487 20.7749C5.41659 21.2336 4.94448 21.6894 4.39519 22.0704C3.92509 22.3736 3.45299 22.602 2.98289 22.8303C2.59098 22.9061 2.27524 23.1345 1.96151 23.2871C1.33404 23.5145 1.72696 24.2774 0.705566 24.43C0.863937 24.809 1.0203 25.19 1.17767 25.5699C1.33403 24.8858 1.64777 24.2774 2.11887 23.7429C2.11887 23.6671 2.82553 23.4387 3.37481 23.0587C4.8663 21.9946 4.78812 22.5262 5.96487 20.7749Z" fill="#632918"/>
<path fill-rule="evenodd" clip-rule="evenodd" d="M13.5787 37.3652L13.8132 42.997L11.146 41.5529L13.5787 37.3652Z" fill="#9A6D45"/>
<path fill-rule="evenodd" clip-rule="evenodd" d="M13.5786 37.2894L12.873 42.5412L10.0474 41.0174L13.5786 37.2894Z" fill="#632918"/>
<path fill-rule="evenodd" clip-rule="evenodd" d="M22.213 5.09918L22.6049 0.684133L20.3296 1.13992L21.5073 3.11955L22.213 5.09918Z" fill="#9A6D45"/>
<path fill-rule="evenodd" clip-rule="evenodd" d="M22.2129 5.09918L22.1348 0.759939L19.8574 1.13992L21.0352 3.11955L22.2129 5.09918Z" fill="#632918"/>
<path fill-rule="evenodd" clip-rule="evenodd" d="M36.8914 34.2456C37.2833 34.8539 37.9107 35.2339 38.2265 35.8452C38.462 36.301 38.6194 36.8336 38.854 37.2894C38.854 37.6703 39.0895 37.9735 39.1677 38.3565C39.325 38.889 40.1089 38.6606 40.1871 39.649C40.58 39.5732 40.9709 39.4206 41.3668 39.3448C40.6582 39.1174 40.1089 38.7364 39.5596 38.2806C39.5596 38.2039 39.4814 37.3652 39.1677 36.8336C38.2265 35.2339 38.6194 35.6168 36.8914 34.2456Z" fill="#9A6D45"/>
<path fill-rule="evenodd" clip-rule="evenodd" d="M36.8914 34.2456C37.2833 34.854 37.7534 35.3885 38.0671 35.9211C38.3057 36.3778 38.5402 36.9094 38.6976 37.3652C38.6976 37.7462 38.9321 38.0494 39.0113 38.4333C39.1677 38.9649 40.0307 38.7365 40.0307 39.7258C40.4226 39.6491 40.8145 39.4974 41.2095 39.4207C40.5008 39.1933 39.9525 38.8123 39.4814 38.3565C39.4032 38.2807 39.2469 37.5946 38.9321 37.062C38.0671 35.4643 38.6194 35.6169 36.8914 34.2456Z" fill="#632918"/>
<path fill-rule="evenodd" clip-rule="evenodd" d="M25.7442 1.14C32.7326 1.14 36.7339 6.46762 40.8927 11.4152C44.035 15.1432 48.1156 17.6554 48.1156 22.8304C48.1156 30.746 44.7407 36.681 38.3056 40.4858C34.9277 42.5412 31.3173 45.8892 27.0804 45.8892C19.0736 45.8892 9.10531 42.1612 5.18013 36.0727C2.98299 32.7257 1.64786 27.0939 1.64786 22.8304C1.64786 15.2948 5.49486 8.29467 11.538 4.4151C15.0703 2.13128 21.1134 1.14 25.7442 1.14ZM25.9016 3.8147e-05C33.4382 3.8147e-05 37.7533 5.78344 42.1506 11.0343C45.5255 15.0674 50 17.807 50 23.363C50 31.7334 46.3094 38.2039 39.4032 42.3128C35.7928 44.4441 31.9447 48.0963 27.3941 48.0963C18.8381 48.0963 8.08392 44.0651 3.847 37.5168C1.49149 33.8656 0 27.9297 0 23.363C0 15.219 4.23892 7.6863 10.675 3.5006C14.521 1.0642 20.957 3.8147e-05 25.9016 3.8147e-05Z" fill="#7E3824"/>
<mask id="path-14-inside-1_674_200" fill="white">
<path d="M38.8954 26.97L36.7116 17.3172C36.1451 14.8158 33.7737 13 31.0728 13H18.9271C16.2262 13 13.8547 14.8158 13.2882 17.3172L11.1044 26.97C10.8084 28.2804 11.1484 29.6298 12.0383 30.6716C12.9276 31.7126 14.2489 32.3107 15.6635 32.3107C17.5137 32.3107 19.1896 31.2739 19.9177 29.701L22.6256 24.5808H27.3746L30.0669 29.6705C30.8102 31.2742 32.4861 32.311 34.3364 32.311C35.7507 32.311 37.0723 31.7132 37.9616 30.6719C38.8515 29.6298 39.1917 28.2804 38.8954 26.97ZM36.8547 29.8238C36.2369 30.547 35.3186 30.9622 34.3364 30.9622C33.0511 30.9622 31.8868 30.2423 31.3551 29.0969L28.4506 23.6044C28.3301 23.3763 28.0835 23.2321 27.8143 23.2321H22.1859C21.9167 23.2321 21.6701 23.376 21.5496 23.6044L18.6295 29.1277C18.1127 30.2426 16.9485 30.9622 15.6635 30.9622C14.6809 30.9622 13.763 30.547 13.1452 29.8238C12.5274 29.1005 12.291 28.163 12.4968 27.2527L14.6806 17.5999C15.1069 15.7156 16.8931 14.3484 18.9271 14.3484H31.0728C33.1068 14.3484 34.893 15.7156 35.3196 17.5999L37.5034 27.2527C37.7089 28.1627 37.4725 29.1002 36.8547 29.8238Z"/>
</mask>
<path d="M38.8954 26.97L40.8462 26.5289L40.8461 26.5287L38.8954 26.97ZM36.7116 17.3172L38.6623 16.8759L38.6622 16.8754L36.7116 17.3172ZM13.2882 17.3172L11.3376 16.8754L11.3375 16.8759L13.2882 17.3172ZM11.1044 26.97L9.15373 26.5287L9.15358 26.5293L11.1044 26.97ZM12.0383 30.6716L10.5175 31.9706L10.5176 31.9707L12.0383 30.6716ZM19.9177 29.701L18.1497 28.7659L18.1249 28.8128L18.1027 28.8609L19.9177 29.701ZM22.6256 24.5808V22.5808H21.4209L20.8576 23.6458L22.6256 24.5808ZM27.3746 24.5808L29.1425 23.6457L28.5792 22.5808H27.3746V24.5808ZM30.0669 29.6705L31.8814 28.8294L31.8594 28.7818L31.8348 28.7353L30.0669 29.6705ZM37.9616 30.6719L39.4824 31.9708L39.4825 31.9707L37.9616 30.6719ZM36.8547 29.8238L38.3754 31.1228L38.3757 31.1224L36.8547 29.8238ZM31.3551 29.0969L33.1691 28.2547L33.1473 28.2077L33.1231 28.1619L31.3551 29.0969ZM28.4506 23.6044L26.6819 24.5382L26.6825 24.5394L28.4506 23.6044ZM21.5496 23.6044L23.3177 24.5392L23.3188 24.5373L21.5496 23.6044ZM18.6295 29.1277L16.8614 28.1929L16.837 28.2391L16.815 28.2866L18.6295 29.1277ZM12.4968 27.2527L10.5461 26.8114L10.546 26.8116L12.4968 27.2527ZM14.6806 17.5999L12.7299 17.1586L12.7299 17.1586L14.6806 17.5999ZM35.3196 17.5999L37.2703 17.1586L37.2702 17.1583L35.3196 17.5999ZM37.5034 27.2527L39.4543 26.8121L39.4541 26.8114L37.5034 27.2527ZM40.8461 26.5287L38.6623 16.8759L34.7609 17.7585L36.9447 27.4113L40.8461 26.5287ZM38.6622 16.8754C37.874 13.3951 34.6368 11 31.0728 11V15C32.9105 15 34.4163 16.2366 34.761 17.759L38.6622 16.8754ZM31.0728 11H18.9271V15H31.0728V11ZM18.9271 11C15.363 11 12.1258 13.3951 11.3376 16.8754L15.2388 17.759C15.5836 16.2366 17.0893 15 18.9271 15V11ZM11.3375 16.8759L9.15373 26.5287L13.0551 27.4113L15.2389 17.7585L11.3375 16.8759ZM9.15358 26.5293C8.71556 28.4685 9.22708 30.4597 10.5175 31.9706L13.5591 29.3727C13.0697 28.7998 12.9013 28.0923 13.0553 27.4106L9.15358 26.5293ZM10.5176 31.9707C11.8005 33.4724 13.6851 34.3107 15.6635 34.3107V30.3107C14.8126 30.3107 14.0546 29.9528 13.559 29.3726L10.5176 31.9707ZM15.6635 34.3107C18.2374 34.3107 20.6546 32.8704 21.7327 30.541L18.1027 28.8609C17.7247 29.6774 16.79 30.3107 15.6635 30.3107V34.3107ZM21.6856 30.636L24.3936 25.5159L20.8576 23.6458L18.1497 28.7659L21.6856 30.636ZM22.6256 26.5808H27.3746V22.5808H22.6256V26.5808ZM25.6067 25.516L28.299 30.6057L31.8348 28.7353L29.1425 23.6457L25.6067 25.516ZM28.2523 30.5115C29.3423 32.863 31.7535 34.311 34.3364 34.311V30.311C33.2188 30.311 32.2782 29.6854 31.8814 28.8294L28.2523 30.5115ZM34.3364 34.311C36.3141 34.311 38.1993 33.4733 39.4824 31.9708L36.4407 29.3731C35.9453 29.9532 35.1873 30.311 34.3364 30.311V34.311ZM39.4825 31.9707C40.7725 30.4599 41.2848 28.4688 40.8462 26.5289L36.9447 27.4111C37.0987 28.092 36.9304 28.7996 36.4406 29.3732L39.4825 31.9707ZM35.334 28.5248C35.1101 28.7869 34.7554 28.9622 34.3364 28.9622V32.9622C35.8819 32.9622 37.3637 32.3071 38.3754 31.1228L35.334 28.5248ZM34.3364 28.9622C33.7962 28.9622 33.3592 28.6642 33.1691 28.2547L29.541 29.9391C30.4144 31.8203 32.3059 32.9622 34.3364 32.9622V28.9622ZM33.1231 28.1619L30.2186 22.6695L26.6825 24.5394L29.587 30.0318L33.1231 28.1619ZM30.2192 22.6706C29.7336 21.751 28.7838 21.2321 27.8143 21.2321V25.2321C27.3832 25.2321 26.9266 25.0017 26.6819 24.5382L30.2192 22.6706ZM27.8143 21.2321H22.1859V25.2321H27.8143V21.2321ZM22.1859 21.2321C21.2177 21.2321 20.2666 21.7497 19.7805 22.6716L23.3188 24.5373C23.0735 25.0024 22.6157 25.2321 22.1859 25.2321V21.2321ZM19.7815 22.6696L16.8614 28.1929L20.3976 30.0625L23.3177 24.5392L19.7815 22.6696ZM16.815 28.2866C16.6449 28.6536 16.2161 28.9622 15.6635 28.9622V32.9622C17.6809 32.9622 19.5806 31.8316 20.4441 29.9688L16.815 28.2866ZM15.6635 28.9622C15.2443 28.9622 14.8899 28.787 14.6659 28.5248L11.6244 31.1228C12.6361 32.3071 14.1175 32.9622 15.6635 32.9622V28.9622ZM14.6659 28.5248C14.4486 28.2704 14.384 27.975 14.4475 27.6938L10.546 26.8116C10.198 28.3511 10.6061 29.9306 11.6244 31.1228L14.6659 28.5248ZM14.4475 27.694L16.6313 18.0412L12.7299 17.1586L10.5461 26.8114L14.4475 27.694ZM16.6313 18.0413C16.836 17.1366 17.7559 16.3484 18.9271 16.3484V12.3484C16.0302 12.3484 13.3778 14.2946 12.7299 17.1586L16.6313 18.0413ZM18.9271 16.3484H31.0728V12.3484H18.9271V16.3484ZM31.0728 16.3484C32.2439 16.3484 33.1641 17.1365 33.369 18.0416L37.2702 17.1583C36.6219 14.2947 33.9697 12.3484 31.0728 12.3484V16.3484ZM33.3689 18.0412L35.5527 27.694L39.4541 26.8114L37.2703 17.1586L33.3689 18.0412ZM35.5525 27.6933C35.616 27.9743 35.5514 28.2701 35.3337 28.5251L38.3757 31.1224C39.3936 29.9303 39.8018 28.3512 39.4543 26.8121L35.5525 27.6933Z" fill="white" mask="url(#path-14-inside-1_674_200)"/>
<path d="M30.6883 17.7725C31.0196 17.4587 31.0196 16.95 30.6883 16.6362C30.357 16.3224 29.8197 16.3224 29.4884 16.6362C29.157 16.95 29.157 17.4587 29.4884 17.7725C29.8197 18.0863 30.357 18.0863 30.6883 17.7725Z" fill="white"/>
<path d="M30.2238 21.8665C30.6864 21.796 31.0011 21.3836 30.9267 20.9455C30.8522 20.5074 30.4168 20.2093 29.9542 20.2799C29.4915 20.3504 29.1768 20.7627 29.2513 21.2008C29.3257 21.639 29.7612 21.937 30.2238 21.8665Z" fill="white"/>
<path d="M32.1317 18.3352C31.6636 18.3352 31.2832 18.6955 31.2832 19.1387C31.2832 19.582 31.6636 19.9422 32.1317 19.9422C32.5994 19.9422 32.9798 19.582 32.9798 19.1387C32.9795 18.6955 32.5991 18.3352 32.1317 18.3352Z" fill="white"/>
<path d="M28.0457 19.9426C28.5143 19.9426 28.8942 19.5829 28.8942 19.1391C28.8942 18.6953 28.5143 18.3356 28.0457 18.3356C27.5771 18.3356 27.1973 18.6953 27.1973 19.1391C27.1973 19.5829 27.5771 19.9426 28.0457 19.9426Z" fill="white"/>
<mask id="path-20-inside-2_674_200" fill="white">
<path d="M21.6264 18.4647H20.4319V17.3335C20.4319 16.9612 20.113 16.6594 19.7201 16.6594C19.3269 16.6594 19.0083 16.9615 19.0083 17.3335V18.4647H17.8138C17.4207 18.4647 17.1021 18.7667 17.1021 19.1388C17.1021 19.5111 17.421 19.8128 17.8138 19.8128H19.0083V20.944C19.0083 21.3164 19.3273 21.6181 19.7201 21.6181C20.1133 21.6181 20.4319 21.3161 20.4319 20.944V19.8131H21.6264C22.0196 19.8131 22.3382 19.5111 22.3382 19.1391C22.3385 18.7667 22.0196 18.4647 21.6264 18.4647Z"/>
</mask>
<path d="M20.4319 18.4647H18.4319V20.4647H20.4319V18.4647ZM19.0083 18.4647V20.4647H21.0083V18.4647H19.0083ZM19.0083 19.8128H21.0083V17.8128H19.0083V19.8128ZM20.4319 19.8131V17.8131H18.4319V19.8131H20.4319ZM22.3382 19.1391L20.3382 19.1374V19.1391H22.3382ZM21.6264 16.4647H20.4319V20.4647H21.6264V16.4647ZM22.4319 18.4647V17.3335H18.4319V18.4647H22.4319ZM22.4319 17.3335C22.4319 15.7548 21.113 14.6594 19.7201 14.6594V18.6594C19.113 18.6594 18.4319 18.1675 18.4319 17.3335H22.4319ZM19.7201 14.6594C18.3258 14.6594 17.0083 15.7563 17.0083 17.3335H21.0083C21.0083 18.1667 20.3281 18.6594 19.7201 18.6594V14.6594ZM17.0083 17.3335V18.4647H21.0083V17.3335H17.0083ZM19.0083 16.4647H17.8138V20.4647H19.0083V16.4647ZM17.8138 16.4647C16.4195 16.4647 15.1021 17.5615 15.1021 19.1388H19.1021C19.1021 19.9719 18.4218 20.4647 17.8138 20.4647V16.4647ZM15.1021 19.1388C15.1021 20.7174 16.421 21.8128 17.8138 21.8128V17.8128C18.421 17.8128 19.1021 18.3048 19.1021 19.1388H15.1021ZM17.8138 21.8128H19.0083V17.8128H17.8138V21.8128ZM17.0083 19.8128V20.944H21.0083V19.8128H17.0083ZM17.0083 20.944C17.0083 22.5227 18.3273 23.6181 19.7201 23.6181V19.6181C20.3272 19.6181 21.0083 20.11 21.0083 20.944H17.0083ZM19.7201 23.6181C21.1145 23.6181 22.4319 22.5213 22.4319 20.944H18.4319C18.4319 20.1109 19.1121 19.6181 19.7201 19.6181V23.6181ZM22.4319 20.944V19.8131H18.4319V20.944H22.4319ZM20.4319 21.8131H21.6264V17.8131H20.4319V21.8131ZM21.6264 21.8131C23.0208 21.8131 24.3382 20.7163 24.3382 19.1391H20.3382C20.3382 18.3059 21.0184 17.8131 21.6264 17.8131V21.8131ZM24.3382 19.1408C24.3395 17.561 23.0197 16.4647 21.6264 16.4647V20.4647C21.0194 20.4647 20.3375 19.9725 20.3382 19.1374L24.3382 19.1408Z" fill="white" mask="url(#path-20-inside-2_674_200)"/>
</svg>
