<svg width="370" height="353" viewBox="0 0 370 353" fill="none" xmlns="http://www.w3.org/2000/svg">
<path d="M156.991 288.939C154.745 308.848 155.942 329.041 160.423 348.565C161.175 351.844 166.227 350.46 165.469 347.175C161.054 328.096 159.956 308.397 162.12 288.939C162.273 287.55 160.829 286.391 159.561 286.38C158.04 286.363 157.15 287.572 156.991 288.939Z" fill="#272C4D"/>
<path d="M203.569 293.466C203.959 302.904 204.041 312.352 203.783 321.795C203.657 326.399 203.454 330.997 203.168 335.589C203.02 338.007 202.85 340.424 202.658 342.841C202.471 345.208 201.993 347.713 202.13 350.081C202.29 352.855 206.436 353.696 207.161 350.762C207.732 348.449 207.721 345.933 207.896 343.566C208.072 341.149 208.231 338.737 208.363 336.315C208.627 331.601 208.802 326.882 208.901 322.158C209.099 312.594 208.945 303.019 208.478 293.466C208.319 290.324 203.437 290.302 203.569 293.466Z" fill="#272C4D"/>
<path d="M176.282 8.04009C178.621 4.67813 181.367 1.09643 185.365 0.211996C192.191 -1.30418 197.71 5.60102 201.098 11.7207C216.144 38.913 225.128 68.5663 236.062 97.5385C237.407 101.098 238.819 104.762 241.482 107.482C245.035 111.107 250.246 112.475 255.205 113.552C270.285 116.826 285.6 118.825 300.85 121.116C312.064 122.803 323.107 125.511 334.364 126.917C344.188 128.142 354.276 129.477 362.535 135.701C367.231 139.239 370.646 145.106 369.597 150.89C368.977 154.302 366.934 157.257 364.891 160.053C348.971 181.862 328.175 201.55 304.809 215.366C299.406 218.558 293.733 221.535 289.428 226.106C280.861 235.187 284.255 247.701 287.588 258.429C294.634 281.133 306.698 316.027 290.175 337.182C288.132 339.797 285.479 342.291 282.179 342.659C279.461 342.967 276.819 341.775 274.365 340.572C255.15 331.173 237.182 319.23 221.081 305.15C211.032 296.361 201.01 286.369 187.995 283.397C180.9 281.776 173.448 282.424 166.365 284.094C151.455 287.61 137.897 295.515 125.766 304.87C113.636 314.226 102.746 325.07 91.4118 335.381C88.9461 337.622 86.3871 339.885 83.279 341.088C74.0479 344.648 69.0012 337.298 68.0677 329.261C64.35 297.218 63.4988 259.654 77.4141 230.023C80.5278 223.387 84.1356 216.361 82.9989 209.115C81.4833 199.474 72.3071 193.233 63.9656 188.18C45.745 177.143 27.5243 166.102 9.30373 155.065C5.4103 152.703 1.15992 149.869 0.20441 145.413C-1.58031 137.102 8.6832 131.806 16.9094 129.664C47.1288 121.786 94.2838 120.583 119.512 100.466C144.86 80.2233 157.683 34.7325 176.282 8.04009Z" fill="#FFCA6C"/>
<path d="M158.364 163.185C157.315 161.679 155.997 160.279 154.443 159.037C151.999 157.076 148.787 155.56 145.354 154.758C142.598 154.11 138.622 153.654 135.81 154.291C126.815 156.34 121.565 162.745 120.313 169.332C119.254 174.913 120.302 181.192 126.151 185.328C132.279 189.657 141.164 190.382 148.907 188.339C152.504 187.389 155.442 185.466 157.479 183.109C161.719 178.198 162.339 172.309 160.231 166.717C159.78 165.492 159.149 164.311 158.364 163.185Z" fill="white"/>
<path d="M152.526 166.124C149.632 161.108 143.745 157.779 137.535 160.174C128.732 163.569 126.524 176.918 133.372 182.862C137.194 186.185 142.751 186.729 147.595 185.136C154.196 182.972 155.695 175.32 154.08 169.7C153.745 168.552 153.213 167.327 152.526 166.124Z" fill="#292954"/>
<path d="M148.089 168.123C147.897 167.816 147.677 167.546 147.447 167.332C145.991 165.997 143.905 166.931 143.641 168.931C143.493 170.024 143.63 171.254 144.415 172.062C145.239 172.908 146.431 173.04 147.474 172.633C148.292 172.315 148.748 171.699 148.83 170.776C148.907 169.936 148.583 168.914 148.089 168.123Z" fill="white"/>
<path d="M160.182 167.36C159.347 165.371 158.49 163.597 156.997 161.932C155.377 160.13 153.482 158.625 151.423 157.46C147.496 155.241 142.477 153.95 138.04 154.747C134.416 155.181 129.852 156.757 127.315 159.592C125.701 161.399 120.956 167.123 120.643 169.92C120.467 171.507 118.04 172.276 117.755 170.342C117.079 165.761 120.078 161.553 122.768 158.317C125.421 155.126 128.721 153.373 132.477 152.209C138.37 150.374 144.828 151.242 150.357 153.983C155.53 156.543 162.504 161.806 161.802 168.777C161.769 169.128 161.593 169.573 161.269 169.518C161.066 169.48 160.95 169.255 160.868 169.052C160.637 168.458 160.412 167.903 160.182 167.36Z" fill="#292954"/>
<path d="M151.422 140.777C147.809 138.821 142.784 139.898 139.012 140.678C131.747 142.183 124.289 145.161 118.468 150.176C116.738 151.665 115.744 152.945 113.515 151.951C112.757 151.61 112.527 150.775 113.054 150.072C116.09 146.051 120.088 144.496 124.059 142.008C128.309 139.349 133.004 137.519 137.848 136.619C140.379 136.146 142.79 136.212 145.332 136.163C147.957 136.113 150.681 136.465 153.042 137.772C154.898 138.805 153.273 141.782 151.422 140.777Z" fill="#272C4D"/>
<path d="M211.708 163.179C212.779 161.701 214.135 160.323 215.722 159.092C218.221 157.164 221.516 155.67 225.025 154.879C227.847 154.241 231.922 153.791 234.794 154.417C244.003 156.433 249.379 162.74 250.659 169.227C251.741 174.721 250.67 180.906 244.684 184.977C238.413 189.24 229.308 189.954 221.378 187.938C217.699 187.004 214.684 185.109 212.603 182.785C208.265 177.945 207.622 172.15 209.786 166.645C210.258 165.453 210.906 164.289 211.708 163.179Z" fill="white"/>
<path d="M217.688 166.074C220.648 161.136 226.677 157.856 233.036 160.218C242.048 163.564 244.31 176.704 237.303 182.56C233.388 185.828 227.699 186.367 222.74 184.801C215.98 182.67 214.448 175.133 216.101 169.606C216.436 168.464 216.979 167.255 217.688 166.074Z" fill="#292954"/>
<path d="M222.224 168.041C222.421 167.739 222.647 167.475 222.883 167.266C224.376 165.953 226.507 166.876 226.782 168.843C226.93 169.92 226.793 171.134 225.985 171.925C225.145 172.754 223.921 172.891 222.85 172.49C222.01 172.177 221.543 171.573 221.46 170.661C221.389 169.826 221.718 168.815 222.224 168.041Z" fill="white"/>
<path d="M209.841 167.288C210.692 165.333 211.57 163.58 213.102 161.943C214.761 160.169 216.699 158.686 218.808 157.537C222.828 155.351 227.968 154.082 232.509 154.862C236.216 155.291 240.889 156.84 243.492 159.636C245.145 161.416 250 167.052 250.324 169.804C250.505 171.37 252.992 172.122 253.283 170.216C253.975 165.706 250.9 161.559 248.149 158.372C245.436 155.23 242.053 153.505 238.209 152.357C232.174 150.55 225.563 151.407 219.901 154.104C214.607 156.625 207.463 161.806 208.182 168.667C208.221 169.013 208.396 169.453 208.726 169.398C208.934 169.365 209.05 169.134 209.138 168.936C209.379 168.37 209.61 167.821 209.841 167.288Z" fill="#292954"/>
<path d="M218.814 141.118C222.515 139.189 227.655 140.25 231.521 141.019C238.962 142.502 246.595 145.43 252.553 150.374C254.321 151.841 255.343 153.099 257.627 152.121C258.407 151.786 258.643 150.962 258.099 150.27C254.991 146.309 250.895 144.782 246.831 142.332C242.482 139.711 237.671 137.91 232.712 137.025C230.12 136.564 227.649 136.624 225.046 136.575C222.361 136.525 219.571 136.871 217.15 138.162C215.25 139.173 216.919 142.101 218.814 141.118Z" fill="#272C4D"/>
<path d="M178.556 192.86C178.918 192.333 179.231 191.767 179.627 191.261C181.933 188.311 188.182 188.647 190.884 190.761C191.818 191.492 191.79 192.629 192.543 193.415C193.328 194.233 194.827 194.2 195.157 192.937C196.31 188.531 190.352 186.059 186.936 185.795C182.685 185.471 177.024 186.625 174.954 190.778C174.668 191.355 174.448 191.987 174.47 192.629C174.498 193.272 174.805 193.931 175.365 194.244C176.2 194.711 177.287 194.283 177.957 193.596C178.182 193.371 178.375 193.118 178.556 192.86Z" fill="#EA6F5B"/>
<path d="M257.594 186.098C262.75 186.35 267.709 188.916 265.293 194.909C264.48 196.925 262.772 198.469 260.889 199.562C249.071 206.423 235.43 195.255 250.51 187.372C252.289 186.444 254.964 185.966 257.594 186.098Z" fill="#EA6F5B"/>
<path d="M126.953 188.355C133.553 190.102 139.006 195.035 131.038 201.149C127.139 204.138 122.01 203.281 118.172 200.924C112.208 197.26 109.375 189.976 119.188 187.927C121.423 187.46 124.278 187.647 126.953 188.355Z" fill="#EA6F5B"/>
<path d="M197.26 243.07C197.479 244.163 197.254 245.256 196.271 246.124C194.36 247.816 190.198 247.503 187.869 247.607C184.613 247.755 179.698 248.371 176.898 246.245C176.041 245.591 175.453 244.509 175.613 243.443C175.827 241.998 178.583 239.867 179.715 239.015C181.626 237.587 183.96 236.703 186.343 236.582C188.979 236.445 192.01 237.181 194.234 238.757C195.514 239.653 196.919 241.367 197.26 243.07Z" fill="white"/>
<path d="M264.392 217.069C270.993 242.696 281.119 268.647 302.838 285.182C308.264 289.313 314.557 293.07 321.19 294.817C324.029 295.564 325.012 291.521 322.377 290.505C316.913 288.401 311.707 286.149 306.819 282.875C301.948 279.612 297.566 275.695 293.651 271.339C285.04 261.758 278.912 250.189 274.326 238.219C271.575 231.039 269.346 223.678 267.33 216.256C266.82 214.361 263.904 215.163 264.392 217.069Z" fill="#272C4D"/>
<path d="M92.2793 209.412C85.0745 230.27 70.5936 248.448 52.005 260.308C49.3746 261.983 46.6729 263.615 43.8612 264.966C42.6037 265.571 41.3132 266.153 40.0062 266.658C38.1831 267.361 36.1458 267.713 35.6955 269.971C35.4538 271.19 35.8657 272.327 36.9255 273.003C38.5345 274.03 40.0996 273.47 41.6043 272.575C42.9387 271.778 44.361 271.108 45.7173 270.339C48.1995 268.933 50.6926 267.554 53.1033 266.016C58.0237 262.884 62.6914 259.319 67.0241 255.413C75.5798 247.712 82.8889 238.543 88.4737 228.474C91.6423 222.755 94.2507 216.723 96.2716 210.51C97.1063 207.961 93.1469 206.907 92.2793 209.412Z" fill="#272C4D"/>
</svg>
