<svg width="894" height="136" viewBox="0 0 894 136" fill="none" xmlns="http://www.w3.org/2000/svg">
<g clip-path="url(#clip0_620_103)">
<path d="M888.633 58.4834C878.823 54.7664 867.708 70.5439 867.708 70.5439C876.212 44.5644 853.322 26.0058 853.322 26.0058C869.672 52.4466 844.817 68 844.817 68C843.512 58.4834 853.322 46.4229 853.322 46.4229C827.162 51.0626 827.162 68 827.162 68C827.162 54.7796 813.435 38.0794 813.435 38.0794C816.046 59.4192 800.355 68 800.355 68C816.706 47.3456 792.51 37.1436 792.51 37.1436C801.661 58.0221 785.574 65.4429 785.574 65.4429C793.024 53.8438 785.324 48.7428 785.324 48.7428C787.935 60.3419 769.633 64.9816 769.633 64.9816C769.633 64.9816 781.408 55.7022 769.633 54.7796C757.858 53.8569 736.405 64.5202 736.405 64.5202C737.842 43.6418 719.277 9.30566 719.277 9.30566C733.016 34.3625 708.161 62.2004 708.161 62.2004C708.161 62.2004 707.502 47.8201 703.586 47.3588C699.67 46.8974 692.47 68 692.47 68C692.47 68 692.47 48.7428 685.271 49.2041C678.072 49.6654 661.721 70.5439 661.721 70.5439C673.496 55.2277 661.721 38.0663 661.721 38.0663C661.062 51.0626 638.831 71.4665 638.831 71.4665C650.606 51.9852 634.915 34.8106 634.915 34.8106C640.796 51.9721 621.835 64.0457 621.835 64.0457C620.53 32.9653 586.511 0.487671 586.511 0.487671C604.825 39.4634 578.665 75.1835 578.665 75.1835C581.276 64.5071 571.466 54.3051 571.466 54.3051C570.806 60.8032 551.846 74.2609 551.846 74.2609C551.846 74.2609 572.125 42.2446 558.386 39.4634C544.646 36.6823 525.039 77.042 525.039 77.042C529.615 60.8032 519.158 45.5003 519.158 45.5003C523.734 59.8806 511.366 77.9779 511.366 77.9779C516.653 66.8401 511.3 56.1768 511.3 56.1768C512.605 62.2136 492.339 76.1326 492.339 76.1326C492.339 76.1326 496.914 58.4966 487.104 57.1126C477.294 55.7154 466.824 77.5297 466.824 77.5297C465.519 55.2541 439.359 26.5198 439.359 26.5198C443.618 35.0215 445.754 46.1198 446.545 57.9694C437.882 58.602 429.443 70.5702 429.443 70.5702C437.948 44.5908 415.058 26.0322 415.058 26.0322C431.408 52.4729 406.553 68.0263 406.553 68.0263C405.247 58.5098 415.058 46.4493 415.058 46.4493C388.897 51.089 388.897 68.0263 388.897 68.0263C388.897 54.806 375.158 38.1058 375.158 38.1058C377.769 59.4456 362.078 68.0263 362.078 68.0263C378.428 47.372 354.232 37.17 354.232 37.17C363.383 58.0484 347.297 65.4693 347.297 65.4693C354.746 53.8701 347.046 48.7691 347.046 48.7691C349.657 60.3683 331.355 65.0079 331.355 65.0079C331.355 65.0079 343.13 55.7286 331.355 54.806C319.58 53.8833 298.127 64.5466 298.127 64.5466C299.565 43.6681 280.999 9.33202 280.999 9.33202C294.739 34.3888 269.884 62.2268 269.884 62.2268C269.884 62.2268 269.224 47.8465 265.308 47.3851C261.379 46.9238 254.193 68.0263 254.193 68.0263C254.193 68.0263 254.193 48.7691 246.993 49.2304C239.794 49.6918 223.444 70.5702 223.444 70.5702C235.219 55.2541 223.444 38.0926 223.444 38.0926C222.785 51.0889 200.554 71.4929 200.554 71.4929C212.328 52.0116 196.624 34.837 196.624 34.837C202.505 51.9984 183.544 64.0721 183.544 64.0721C182.239 32.9916 148.233 0.514033 148.233 0.514033C166.548 39.4898 140.387 75.2099 140.387 75.2099C142.998 64.5334 133.188 54.3314 133.188 54.3314C132.529 60.8296 113.568 74.2872 113.568 74.2872C113.568 74.2872 133.847 42.271 120.108 39.4898C106.368 36.7086 86.7482 77.0684 86.7482 77.0684C91.3236 60.8296 80.8674 45.5266 80.8674 45.5266C85.4428 59.9069 73.0747 78.0042 73.0747 78.0042C78.3621 66.8664 73.0088 56.2031 73.0088 56.2031C74.3141 62.2399 54.0478 76.1589 54.0478 76.1589C54.0478 76.1589 58.6232 58.5229 48.8131 57.139C38.9634 55.7022 28.494 77.5034 28.494 77.5034C27.1886 55.2409 1.02832 26.4935 1.02832 26.4935C18.0378 60.3814 1.02832 135.499 1.02832 135.499H439.319H450.329H888.62V72.8637C888.633 72.8637 898.443 62.2004 888.633 58.4834Z" fill="#2DCC70"/>
<path d="M147.745 120.394C151.398 114.752 153.995 107.345 150.25 101.189C149.828 101.585 149.406 101.993 148.985 102.389C156.751 103.509 162.421 109.309 163.977 116.875C164.148 117.731 165.717 117.375 165.954 116.73C169.726 106.317 171.901 94.0058 168.433 83.2766C167.906 83.5929 167.379 83.9224 166.851 84.2388C177.65 88.0744 183.175 99.5681 184.177 110.258C184.256 111.128 185.957 110.745 186.155 110.113C187.777 104.985 191.218 100.385 195.833 97.6042C197.204 96.787 201.714 96.6288 202.241 95.113C201.872 96.1675 201.635 97.2615 201.384 98.3423C200.184 103.522 200.685 108.702 202.281 113.724C202.518 114.462 203.771 114.304 204.14 113.764C205.406 111.892 206.975 110.297 208.676 108.795C210.403 107.266 214.227 107.253 214.768 104.972C214.61 105.671 214.544 106.396 214.464 107.108C213.911 112.446 216.099 117.072 219.923 120.644C220.596 121.277 222.336 120.262 221.466 119.458C217.326 115.583 215.546 110.205 216.838 104.669C216.996 104.01 216.007 103.957 215.625 104.023C210.113 104.999 205.551 108.518 202.439 113.118C203.059 113.131 203.679 113.144 204.298 113.158C202.439 107.292 202.215 100.978 204.259 95.113C204.47 94.5067 203.916 94.2035 203.375 94.2299C194.185 94.6912 186.972 101.15 184.23 109.823C184.889 109.77 185.548 109.731 186.208 109.678C185.166 98.54 179.219 86.7827 168.025 82.8021C167.484 82.6175 166.179 82.9734 166.442 83.7643C169.805 94.1903 167.721 106.29 164.043 116.426C164.702 116.374 165.361 116.334 166.02 116.281C164.333 108.109 158.043 102.033 149.697 100.833C149.09 100.741 147.982 101.295 148.431 102.046C151.846 107.674 149.38 114.594 146.071 119.722C145.345 120.855 147.218 121.211 147.745 120.394Z" fill="#1A964C"/>
<path d="M455.221 124.032C458.874 118.39 461.471 110.983 457.727 104.827C457.305 105.236 456.883 105.631 456.461 106.04C464.227 107.16 469.897 112.96 471.466 120.512C471.637 121.369 473.206 121.013 473.444 120.367C477.215 109.955 479.391 97.6437 475.923 86.9145C475.395 87.2308 474.868 87.5603 474.34 87.8767C485.139 91.7123 490.664 103.206 491.666 113.896C491.746 114.766 493.446 114.383 493.644 113.751C495.266 108.623 498.708 104.01 503.323 101.242C504.694 100.425 509.203 100.267 509.731 98.7509C509.362 99.8054 509.124 100.899 508.874 101.98C507.674 107.16 508.175 112.34 509.77 117.362C510.008 118.1 511.26 117.942 511.629 117.402C512.895 115.53 514.464 113.935 516.165 112.433C517.893 110.904 521.716 110.89 522.257 108.61C522.099 109.309 522.033 110.034 521.954 110.745C521.4 116.084 523.589 120.71 527.413 124.282C528.085 124.915 529.826 123.9 528.955 123.096C524.815 119.221 523.035 113.843 524.327 108.307C524.485 107.648 523.497 107.595 523.114 107.661C517.603 108.65 513.04 112.156 509.929 116.756C510.548 116.769 511.168 116.782 511.788 116.795C509.929 110.93 509.704 104.616 511.748 98.7509C511.959 98.1446 511.405 97.8282 510.865 97.8678C501.674 98.3291 494.462 104.788 491.719 113.461C492.378 113.408 493.038 113.368 493.697 113.316C492.655 102.178 486.709 90.4206 475.514 86.44C474.973 86.2423 473.668 86.6113 473.932 87.4022C477.294 97.8282 475.198 109.928 471.532 120.064C472.191 120.012 472.85 119.972 473.51 119.919C471.822 111.747 465.532 105.671 457.186 104.471C456.579 104.379 455.472 104.933 455.92 105.684C459.335 111.312 456.87 118.232 453.56 123.36C452.822 124.493 454.707 124.836 455.221 124.032Z" fill="#1A964C"/>
<path d="M754.417 120.394C758.069 114.752 760.667 107.345 756.922 101.189C756.5 101.585 756.078 101.993 755.656 102.389C763.422 103.509 769.092 109.309 770.648 116.875C770.82 117.731 772.389 117.375 772.626 116.73C776.397 106.317 778.573 94.0058 775.105 83.2766C774.578 83.5929 774.05 83.9224 773.523 84.2388C784.322 88.0744 789.847 99.5681 790.849 110.258C790.928 111.128 792.629 110.745 792.826 110.113C794.448 104.985 797.89 100.385 802.505 97.6042C803.876 96.787 808.385 96.6288 808.913 95.113C808.544 96.1675 808.306 97.2615 808.056 98.3423C806.856 103.522 807.357 108.702 808.953 113.724C809.19 114.462 810.442 114.304 810.812 113.764C812.077 111.892 813.647 110.297 815.348 108.795C817.075 107.266 820.899 107.253 821.439 104.972C821.281 105.671 821.215 106.396 821.136 107.108C820.582 112.446 822.771 117.072 826.595 120.644C827.267 121.277 829.008 120.262 828.138 119.458C823.997 115.583 822.217 110.205 823.509 104.669C823.668 104.01 822.679 103.957 822.296 104.023C816.785 104.999 812.223 108.518 809.111 113.118C809.73 113.131 810.35 113.144 810.97 113.158C809.111 107.292 808.887 100.978 810.93 95.113C811.141 94.5067 810.588 94.2035 810.047 94.2299C800.857 94.6912 793.644 101.15 790.888 109.823C791.547 109.77 792.207 109.731 792.866 109.678C791.824 98.54 785.878 86.7827 774.683 82.8021C774.142 82.6175 772.837 82.9734 773.088 83.7643C776.45 94.1903 774.367 106.29 770.688 116.426C771.347 116.374 772.006 116.334 772.666 116.281C770.978 108.109 764.688 102.033 756.342 100.833C755.735 100.741 754.628 101.295 755.076 102.046C758.491 107.674 756.025 114.594 752.716 119.722C752.017 120.855 753.902 121.211 754.417 120.394Z" fill="#1A964C"/>
<path d="M889.451 58.0354C880.208 55.3992 871.729 63.6636 866.785 70.5704C867.431 70.5177 868.077 70.4517 868.71 70.399C873.575 54.0943 867.339 36.4056 854.258 25.6369C853.902 25.3469 852.004 25.7687 852.307 26.2827C860.706 40.6235 858.952 58.3649 844.211 67.776C844.752 67.7628 845.292 67.7497 845.82 67.7365C845.279 59.9598 849.512 52.3413 854.245 46.4099C854.614 45.9485 853.731 45.909 853.48 45.9486C842.418 48.1234 826.358 54.582 826.147 68.2637C826.819 68.0792 827.492 67.9078 828.164 67.7233C827.703 56.7305 821.176 46.0672 814.359 37.6973C814.016 37.2756 812.354 37.7369 812.407 38.3432C813.291 47.6489 811.313 56.2296 805.063 63.3209C803.599 64.9817 801.832 66.4843 799.947 67.6574C803.388 65.5353 805.168 62.6223 806.5 58.154C809.335 48.7033 801.384 40.2017 793.301 36.7088C792.971 36.5638 791.244 36.8406 791.482 37.4205C795.358 46.9635 795.78 60.0257 784.941 65.2189C785.482 65.2453 786.009 65.2717 786.55 65.298C789.451 60.3157 792.049 52.4994 786.234 48.3738C785.838 48.0838 784.177 48.3343 784.282 49.0197C785.653 57.7586 776.832 62.5301 769.58 64.5467C770.965 64.1645 770.437 65.1135 771.888 63.7822C772.929 62.82 773.826 61.7787 774.67 60.6452C775.909 58.958 776.305 57.1391 774.775 55.5837C770.464 51.2341 757.977 55.7419 753.388 57.1655C747.362 59.0371 741.442 61.5019 735.772 64.2963C736.313 64.2831 736.853 64.2699 737.381 64.2567C738.251 45.4081 729.021 25.3469 720.253 9.04217C719.936 8.44903 717.998 9.10808 718.235 9.58259C727.215 27.1922 719.58 48.1893 707.199 62.2269C707.845 62.1346 708.491 62.0292 709.137 61.9369C708.966 58.4835 708.557 44.38 702.175 47.3062C696.242 50.0346 693.354 62.5432 691.429 68.1583C692.101 68.0133 692.774 67.8815 693.446 67.7365C693.407 61.7919 692.892 46.3176 683.517 49.1779C674.38 51.959 666.402 63.4395 660.772 70.5836C661.392 70.5704 662.012 70.5572 662.631 70.544C669.62 60.5661 669.409 47.8598 662.645 37.7105C662.368 37.2887 660.746 37.7369 660.706 38.2246C659.454 51.01 647.046 63.0441 638.027 71.3744C638.62 71.3612 639.227 71.348 639.82 71.3349C646.479 59.3535 645.068 44.7886 635.838 34.4548C635.508 34.0858 633.715 34.5076 633.887 35.1007C637.302 46.6735 630.683 57.6795 621.031 63.9536C621.637 63.9009 622.231 63.8481 622.837 63.7954C621.334 39.6481 604.443 16.4498 587.447 0.131919C587.104 -0.197602 585.245 0.224185 585.495 0.77778C596.149 24.5165 593.09 54.002 577.729 75.2232C578.375 75.1705 579.021 75.1046 579.654 75.0519C581.025 67.262 577.703 59.6171 572.402 53.9493C572.046 53.5671 570.556 53.9493 570.464 54.4634C569.172 60.9747 561.168 66.2866 556.329 70.1749C554.628 71.5326 552.9 72.8375 551.134 74.1028C553.322 72.5211 552.281 75.065 553.296 73.3911C553.652 72.8111 554.008 72.218 554.351 71.6248C558.399 64.6522 568.881 48.5715 562.42 40.6894C556.329 33.2422 544.58 45.7377 541.192 49.7446C534.295 57.9168 528.705 67.5915 524.024 77.1872C524.696 77.0949 525.356 76.9894 526.028 76.8972C528.626 66.0889 526.252 54.3843 520.081 45.1313C519.791 44.6964 517.972 45.2104 518.13 45.7772C521.057 56.7305 516.574 68.8569 510.416 78.0044C511.062 77.9517 511.708 77.8857 512.341 77.833C515.216 70.834 515.611 62.8859 512.289 55.9001C512.012 55.3201 510.218 55.8078 510.271 56.4405C510.904 63.9668 496.967 72.2443 491.521 76.0141C492.115 76.0009 492.721 75.9877 493.315 75.9745C495.121 68.7382 495.78 55.5442 485.047 56.6778C475.936 57.64 469.317 70.4386 465.796 77.6617C466.469 77.5167 467.141 77.3849 467.813 77.2399C466.218 58.2858 452.716 39.8722 440.282 26.1246C439.939 25.7555 438.08 26.2432 438.33 26.7704C440.875 32.1482 442.497 37.7237 443.697 43.5365C444.343 46.7262 444.725 49.9555 445.095 53.1848C445.503 56.8359 445.833 57.0864 442.932 58.3385C437.051 60.8561 432.225 65.4035 428.507 70.5704C429.153 70.5177 429.799 70.4517 430.432 70.399C435.298 54.1075 429.061 36.4056 415.981 25.6369C415.625 25.3469 413.726 25.7687 414.029 26.2827C422.428 40.6235 420.675 58.3649 405.933 67.776C406.474 67.7628 407.014 67.7497 407.555 67.7365C407.001 59.9598 411.247 52.3413 415.981 46.4099C416.35 45.9485 415.466 45.909 415.216 45.9486C404.153 48.1234 388.093 54.582 387.882 68.2637C388.555 68.0792 389.227 67.9078 389.9 67.7233C389.438 56.7305 382.911 46.0672 376.094 37.6973C375.751 37.2756 374.09 37.7369 374.143 38.3432C375.026 47.6489 373.048 56.2296 366.798 63.3209C365.335 64.9817 363.568 66.4843 361.682 67.6574C365.124 65.5353 366.904 62.6223 368.235 58.154C371.07 48.7033 363.119 40.2017 355.037 36.7088C354.72 36.5638 352.98 36.8406 353.217 37.4205C357.094 46.9635 357.516 60.0257 346.677 65.2189C347.218 65.2453 347.745 65.2717 348.286 65.298C351.186 60.3157 353.784 52.4994 347.969 48.3738C347.574 48.0838 345.912 48.3343 346.018 49.0197C347.389 57.7586 338.568 62.5301 331.316 64.5467C332.7 64.1645 332.173 65.1135 333.623 63.7822C334.665 62.82 335.561 61.7787 336.405 60.6452C337.645 58.958 338.04 57.1391 336.511 55.5837C332.199 51.2341 319.725 55.7419 315.124 57.1655C309.098 59.0371 303.177 61.5019 297.508 64.2963C298.048 64.2831 298.589 64.2699 299.129 64.2567C300 45.4081 290.77 25.3469 282.001 9.04217C281.685 8.44903 279.747 9.10808 279.984 9.58259C288.963 27.1922 281.329 48.1893 268.948 62.2269C269.594 62.1346 270.24 62.0292 270.886 61.9369C270.714 58.4835 270.306 44.38 263.924 47.3062C257.99 50.0346 255.103 62.5432 253.178 68.1583C253.85 68.0133 254.522 67.8815 255.195 67.7365C255.155 61.7919 254.641 46.3176 245.266 49.1779C236.128 51.959 228.151 63.4395 222.521 70.5836C223.141 70.5704 223.76 70.5572 224.38 70.544C231.368 60.5661 231.157 47.8598 224.393 37.7105C224.116 37.2887 222.495 37.7369 222.442 38.2246C221.189 51.01 208.781 63.0441 199.762 71.3744C200.356 71.3612 200.962 71.348 201.556 71.3349C208.214 59.3535 206.804 44.7886 197.574 34.4548C197.244 34.0858 195.451 34.5076 195.622 35.1007C199.037 46.6735 192.418 57.6795 182.753 63.9536C183.36 63.9009 183.953 63.8481 184.559 63.7954C183.056 39.6481 166.165 16.4498 149.182 0.131919C148.839 -0.197602 146.98 0.224185 147.231 0.77778C157.885 24.5165 154.826 54.002 139.465 75.2232C140.111 75.1705 140.757 75.1046 141.39 75.0519C142.761 67.262 139.438 59.6171 134.138 53.9493C133.781 53.5671 132.292 53.9493 132.186 54.4634C130.894 60.9747 122.89 66.2866 118.051 70.1749C116.363 71.5326 114.623 72.8375 112.856 74.1028C115.045 72.5211 114.003 75.065 115.018 73.3911C115.374 72.8111 115.73 72.218 116.073 71.6248C120.121 64.6522 130.604 48.5715 124.156 40.6894C118.064 33.2422 106.316 45.7377 102.927 49.7446C96.0178 57.9168 90.4403 67.5915 85.7462 77.1872C86.4187 77.0949 87.0779 76.9894 87.7504 76.8972C90.348 66.0889 87.9746 54.3843 81.8037 45.1313C81.5136 44.6964 79.694 45.2104 79.8522 45.7772C82.7926 56.7305 78.2963 68.8569 72.1518 78.0044C72.7979 77.9517 73.444 77.8857 74.0769 77.833C76.9514 70.834 77.3469 62.8859 74.0242 55.9001C73.7473 55.3201 71.954 55.8078 72.0068 56.4405C72.6397 63.9668 58.7024 72.2443 53.2568 76.0141C53.8501 76.0009 54.4567 75.9877 55.05 75.9745C56.8564 68.7382 57.5157 55.5442 46.7826 56.6778C37.6713 57.64 31.0521 70.4386 27.5316 77.6617C28.204 77.5167 28.8765 77.3849 29.549 77.2399C27.9139 58.2726 14.4118 39.8722 1.97779 26.1246C1.63496 25.7555 -0.224217 26.2564 0.0263103 26.7704C9.91554 47.2535 8.35964 72.6925 6.32905 94.6913C5.06323 108.413 3.05901 122.2 0.0263103 135.657C-0.0528036 135.987 0.408694 136.013 0.619664 136.013C56.896 136.013 113.159 136.013 169.435 136.013C249.894 136.013 330.353 136.013 410.812 136.013C445.556 136.013 480.3 136.013 515.044 136.013C601.424 136.013 687.79 136.013 774.169 136.013C812.183 136.013 850.197 136.013 888.211 136.013C888.633 136.013 889.635 135.802 889.635 135.249C889.635 120.763 889.635 106.277 889.635 91.7915C889.635 85.5175 889.635 79.2434 889.635 72.9693C889.635 71.7962 892.629 68.4746 893.314 66.9325C895.134 62.82 893.143 59.8148 889.451 58.0354C888.937 57.785 887.077 58.5758 887.816 58.9317C897.336 63.4923 887.618 68.7251 887.618 74.5114C887.618 81.3128 887.618 88.1141 887.618 94.9154C887.618 108.531 887.618 122.147 887.618 135.763C888.093 135.499 888.567 135.249 889.042 134.998C832.766 134.998 776.503 134.998 720.226 134.998C639.767 134.998 559.309 134.998 478.85 134.998C444.106 134.998 409.361 134.998 374.617 134.998C288.238 134.998 201.872 134.998 115.493 134.998C83.531 134.998 51.569 134.998 19.607 134.998C13.6735 134.998 7.7531 134.998 1.81956 134.998C1.17346 134.998 2.00416 135.552 2.21513 134.563C2.83485 131.703 3.38865 128.83 3.91608 125.943C6.05215 114.397 7.62124 102.745 8.63654 91.0534C10.4693 69.9641 11.4846 45.7904 2.04371 26.23C1.39762 26.4409 0.738335 26.665 0.0922385 26.8759C12.5263 40.6103 25.8965 58.7999 27.492 77.7803C27.5448 78.4393 29.3248 77.7408 29.5094 77.3585C32.8322 70.5045 37.4208 62.8464 43.9345 58.6417C55.1028 51.445 54.2984 71.0976 53.0062 76.2513C52.8216 76.9763 54.5885 76.3568 54.7995 76.2118C60.3375 72.3893 74.6439 63.7954 73.9846 55.8869C73.3121 56.0714 72.6397 56.2428 71.9672 56.4273C75.2504 63.2945 74.8812 71.1899 72.0331 78.1098C71.7958 78.703 73.7077 78.3075 73.9582 77.9385C80.2214 68.6196 84.8232 56.401 81.8301 45.2104C81.184 45.4213 80.5247 45.6322 79.8786 45.8563C85.9308 54.9379 88.2383 66.6029 85.7066 77.174C85.5352 77.8726 87.4867 77.3453 87.7108 76.884C93.7499 64.5204 101.714 49.046 113.581 41.4012C118.064 38.5145 122.917 39.9381 123.76 45.1313C124.407 49.1647 122.587 53.7384 121.189 57.4291C118.974 63.2814 115.941 68.9755 112.605 74.261C112.104 75.0519 114.056 74.5378 114.333 74.3533C120.741 69.7795 132.516 62.4642 134.164 54.147C133.518 54.3184 132.872 54.4897 132.212 54.6611C137.408 60.2102 140.691 67.6838 139.346 75.3155C139.214 76.0536 141.034 75.4736 141.271 75.1441C156.751 53.7648 159.942 24.1474 149.196 0.197823C148.549 0.408717 147.89 0.632791 147.244 0.843685C164.227 17.1616 180.986 40.149 182.489 64.3095C182.529 64.929 184.085 64.2831 184.296 64.1513C194.185 57.7322 201.094 46.3967 197.587 34.5471C196.941 34.758 196.281 34.9821 195.635 35.193C204.733 45.3818 206.052 59.8148 199.499 71.6248C199.195 72.1784 201.068 71.7962 201.292 71.5853C210.443 63.1364 223.114 50.9836 224.393 37.9214C223.747 38.0928 223.101 38.2641 222.442 38.4486C228.982 48.2684 229.246 60.8825 222.455 70.5704C221.967 71.269 223.984 70.9526 224.314 70.5308C229.377 64.0986 234.902 57.785 241.271 52.6312C251.859 44.0769 253.072 61.3965 253.112 68.2637C253.112 68.8437 254.971 68.2901 255.129 67.8419C256.988 62.4246 259.124 57.0468 261.814 51.9722C262.078 51.4713 264.056 47.2139 265.546 48.4002C267.075 49.626 267.484 52.7894 267.866 54.5556C268.42 57.1391 268.671 59.8148 268.802 62.451C268.842 63.0968 270.53 62.3851 270.741 62.161C283.241 47.9916 291.007 26.7968 281.935 9.01581C281.263 9.20034 280.59 9.37169 279.918 9.55622C288.686 25.8609 297.916 45.909 297.046 64.7708C297.02 65.298 298.497 64.8103 298.668 64.7313C305.076 61.5679 311.827 58.958 318.697 56.9677C321.651 56.111 336.827 52.3808 335.324 59.0767C334.823 61.3174 332.186 63.5054 330.498 64.8631C329.76 65.4562 331.052 65.4826 331.408 65.3903C339.28 63.3209 349.486 57.9958 347.996 48.4661C347.349 48.677 346.69 48.8879 346.044 49.1119C351.727 53.1453 349.077 60.7375 346.242 65.588C345.912 66.1548 347.719 65.7198 347.85 65.6671C359.124 60.263 359.322 47.0426 355.195 36.8669C354.588 37.1042 353.982 37.3415 353.375 37.5787C356.724 39.0286 359.718 41.3089 362.236 43.9319C369.317 51.3 366.627 60.632 361.115 68.0133C360.588 68.7251 362.421 68.356 362.645 68.2242C373.338 62.1874 377.228 49.3492 376.134 37.8028C375.488 38.0137 374.828 38.2378 374.182 38.4486C380.933 46.7526 387.394 57.3368 387.856 68.2769C387.882 68.8173 389.86 68.4087 389.873 67.7365C389.979 60.8034 395.662 54.9511 401.173 51.59C402.558 50.7991 403.995 50.1005 405.472 49.5074C406.83 48.9274 413.053 47.7543 414.003 46.5681C412.737 48.1498 411.643 49.8501 410.575 51.5636C407.423 56.5987 405.103 62.2664 405.524 68.2769C405.564 68.8041 406.949 68.356 407.146 68.2374C422.297 58.5758 424.841 40.7553 416.047 25.7555C415.401 25.9664 414.741 26.1905 414.095 26.4014C427.057 37.0778 433.241 54.5556 428.428 70.7154C428.23 71.3876 430.116 70.8735 430.353 70.544C434.137 65.2849 439.649 59.4589 446.36 58.444C446.703 58.3913 447.56 58.1804 447.534 57.6927C446.716 46.8712 445.042 36.1288 440.348 26.2432C439.702 26.4541 439.042 26.6781 438.396 26.889C450.83 40.6367 464.201 58.8262 465.796 77.7935C465.849 78.4525 467.629 77.7539 467.8 77.3717C471.136 70.5177 475.712 62.8596 482.239 58.6549C493.407 51.4581 492.602 71.1108 491.31 76.2645C491.126 76.9894 492.893 76.3699 493.104 76.225C498.642 72.4025 512.948 63.8086 512.289 55.9001C511.616 56.0846 510.944 56.256 510.271 56.4405C513.541 63.3077 513.185 71.2031 510.337 78.123C510.1 78.7161 512.012 78.3207 512.262 77.9516C518.525 68.6328 523.127 56.4141 520.134 45.2236C519.488 45.4345 518.829 45.6454 518.183 45.8695C524.235 54.9511 526.542 66.6161 524.011 77.1872C523.839 77.8857 525.791 77.3585 526.015 76.8972C532.067 64.5335 540.018 49.0592 551.885 41.4143C556.368 38.5277 561.221 39.9513 562.064 45.1445C562.711 49.1779 560.891 53.7516 559.493 57.4422C557.278 63.2945 554.232 68.9887 550.909 74.2742C550.408 75.065 552.36 74.551 552.624 74.3665C559.032 69.7927 570.807 62.4773 572.455 54.1602C571.809 54.3316 571.163 54.5029 570.516 54.6743C575.712 60.2234 578.995 67.697 577.65 75.3287C577.518 76.0668 579.338 75.4868 579.575 75.1573C595.055 53.778 598.246 24.1606 587.5 0.211004C586.853 0.421898 586.194 0.645972 585.548 0.856866C602.531 17.1748 619.29 40.1622 620.793 64.3226C620.833 64.9422 622.389 64.2963 622.6 64.1645C632.489 57.7454 639.398 46.4099 635.891 34.5603C635.245 34.7712 634.586 34.9953 633.939 35.2062C643.037 45.395 644.356 59.828 637.803 71.638C637.5 72.1916 639.372 71.8094 639.596 71.5985C648.747 63.1496 661.418 50.9968 662.697 37.9346C662.051 38.1059 661.405 38.2773 660.759 38.4618C667.299 48.2816 667.563 60.8956 660.772 70.5836C660.284 71.2821 662.289 70.9658 662.631 70.544C667.695 64.1118 673.219 57.7981 679.588 52.6444C690.176 44.09 691.389 61.4097 691.429 68.2769C691.429 68.8569 693.288 68.3033 693.446 67.8551C695.305 62.4378 697.441 57.06 700.131 51.9854C700.395 51.4845 702.386 47.2271 703.863 48.4134C705.392 49.6392 705.801 52.8026 706.184 54.5688C706.737 57.1523 706.988 59.828 707.12 62.4641C707.146 63.11 708.847 62.3982 709.058 62.1742C721.545 48.0048 729.324 26.81 720.253 9.02899C719.58 9.21352 718.908 9.38487 718.235 9.56941C727.004 25.8741 736.234 45.9222 735.363 64.784C735.337 65.3112 736.814 64.8235 736.985 64.7444C743.407 61.581 750.144 58.9712 757.014 56.9809C759.968 56.1242 775.144 52.394 773.641 59.0899C773.14 61.3306 770.503 63.5186 768.815 64.8763C768.077 65.4694 769.369 65.4957 769.725 65.4035C777.597 63.3341 787.803 58.009 786.313 48.4793C785.667 48.6902 785.007 48.9011 784.361 49.1251C790.044 53.1585 787.394 60.7506 784.559 65.6012C784.229 66.168 786.036 65.733 786.168 65.6803C797.441 60.2761 797.652 47.0557 793.512 36.8801C792.906 37.1174 792.299 37.3546 791.692 37.5919C795.042 39.0418 798.035 41.3221 800.553 43.9451C807.634 51.3132 804.944 60.6452 799.432 68.0265C798.905 68.7382 800.738 68.3692 800.962 68.2374C811.656 62.2005 815.545 49.3624 814.451 37.816C813.805 38.0269 813.146 38.2509 812.499 38.4618C819.25 46.7658 825.711 57.35 826.16 68.2901C826.186 68.8305 828.164 68.4219 828.177 67.7497C828.283 60.8165 833.966 54.9643 839.477 51.6031C840.862 50.8123 842.299 50.1137 843.776 49.5206C845.134 48.9406 851.358 47.7675 852.307 46.5812C851.041 48.1629 849.947 49.8633 848.879 51.5768C845.727 56.6119 843.407 62.2796 843.829 68.2901C843.868 68.8173 845.253 68.3692 845.45 68.2505C860.601 58.589 863.146 40.7685 854.351 25.7687C853.705 25.9796 853.045 26.2036 852.399 26.4145C865.361 37.091 871.545 54.5688 866.732 70.7285C866.534 71.4008 868.42 70.8867 868.657 70.5572C872.652 64.9817 880.063 56.7437 887.842 58.958C888.356 59.0899 890.176 58.2463 889.451 58.0354Z" fill="#1A964C"/>
</g>
<defs>
<clipPath id="clip0_620_103">
<rect width="894" height="136" fill="white"/>
</clipPath>
</defs>
</svg>
