<svg width="378" height="358" viewBox="0 0 378 358" fill="none" xmlns="http://www.w3.org/2000/svg">
<g filter="url(#filter0_d_676_196)">
<path d="M216.317 297.169C214.555 304.98 212.786 312.792 211.024 320.603C210.167 324.388 209.31 328.179 208.459 331.964C207.57 335.903 206.098 340.045 205.818 344.071C205.587 347.389 210.26 347.576 211.276 344.813C211.935 343.016 212.122 340.984 212.479 339.111C212.841 337.199 213.237 335.298 213.621 333.392C214.417 329.464 215.219 325.536 216.015 321.603C217.586 313.863 219.162 306.128 220.733 298.388C221.315 295.521 216.971 294.279 216.317 297.169Z" fill="#272C4D"/>
<path d="M180.282 8.04009C182.621 4.67813 185.367 1.09643 189.365 0.211996C196.191 -1.30418 201.71 5.60102 205.098 11.7207C220.144 38.913 229.128 68.5663 240.062 97.5385C241.407 101.098 242.819 104.762 245.482 107.482C249.035 111.107 254.246 112.475 259.205 113.552C274.285 116.826 289.595 118.825 304.85 121.116C316.064 122.803 327.107 125.511 338.364 126.917C348.188 128.142 358.276 129.477 366.535 135.701C371.231 139.239 374.646 145.106 373.597 150.89C372.977 154.302 370.934 157.257 368.891 160.053C352.971 181.862 332.175 201.55 308.809 215.366C303.406 218.558 297.733 221.535 293.428 226.106C284.861 235.187 288.255 247.701 291.588 258.429C298.634 281.133 310.698 316.027 294.175 337.182C292.132 339.797 289.479 342.291 286.179 342.659C283.461 342.967 280.819 341.775 278.365 340.572C259.15 331.173 241.182 319.23 225.081 305.15C215.032 296.361 205.01 286.369 191.995 283.397C184.9 281.776 177.448 282.424 170.364 284.094C155.455 287.61 141.897 295.515 129.766 304.87C117.636 314.226 106.746 325.07 95.4118 335.381C92.9461 337.622 90.3871 339.885 87.279 341.088C78.0479 344.648 73.0012 337.298 72.0676 329.261C68.3499 297.218 67.4988 259.654 81.4141 230.023C84.5277 223.387 88.1357 216.361 86.9989 209.115C85.4833 199.474 76.3071 193.233 67.9656 188.18C49.7449 177.143 31.5243 166.102 13.3037 155.065C9.41027 152.703 5.15992 149.869 4.20441 145.413C2.41969 137.102 12.6832 131.806 20.9094 129.664C51.1288 121.786 98.2838 120.583 123.512 100.466C148.86 80.2233 161.683 34.7325 180.282 8.04009Z" fill="#FFCA6C"/>
<path d="M157.915 167.173C156.867 165.668 155.549 164.267 153.994 163.025C151.551 161.064 148.338 159.553 144.906 158.746C142.149 158.098 138.168 157.642 135.362 158.279C126.367 160.328 121.117 166.733 119.865 173.32C118.805 178.901 119.854 185.18 125.703 189.317C131.831 193.646 140.716 194.371 148.459 192.327C152.056 191.377 154.994 189.454 157.031 187.097C161.271 182.186 161.891 176.297 159.782 170.705C159.332 169.48 158.701 168.299 157.915 167.173Z" fill="white"/>
<path d="M152.072 170.112C149.178 165.096 143.291 161.767 137.08 164.162C128.278 167.557 126.07 180.906 132.918 186.85C136.74 190.174 142.297 190.718 147.141 189.124C153.741 186.96 155.241 179.308 153.626 173.688C153.297 172.54 152.764 171.309 152.072 170.112Z" fill="#292954"/>
<path d="M147.641 172.106C147.449 171.798 147.229 171.529 146.998 171.315C145.543 169.98 143.456 170.914 143.193 172.913C143.044 174.007 143.182 175.237 143.967 176.045C144.791 176.891 145.982 177.022 147.026 176.616C147.844 176.297 148.3 175.682 148.382 174.759C148.459 173.919 148.135 172.897 147.641 172.106Z" fill="white"/>
<path d="M159.733 171.348C158.898 169.359 158.042 167.585 156.548 165.92C154.928 164.118 153.033 162.613 150.974 161.449C147.048 159.229 142.028 157.938 137.591 158.735C133.967 159.169 129.404 160.746 126.867 163.58C125.252 165.387 120.507 171.112 120.194 173.908C120.019 175.495 117.592 176.264 117.306 174.331C116.631 169.749 119.629 165.541 122.32 162.306C124.972 159.114 128.272 157.362 132.029 156.197C137.921 154.362 144.379 155.23 149.909 157.971C155.082 160.531 162.056 165.794 161.353 172.765C161.32 173.117 161.144 173.562 160.82 173.507C160.617 173.468 160.502 173.243 160.419 173.04C160.189 172.446 159.964 171.886 159.733 171.348Z" fill="#292954"/>
<path d="M150.974 144.765C147.361 142.81 142.336 143.886 138.564 144.666C131.298 146.172 123.841 149.149 118.02 154.164C116.29 155.653 115.296 156.933 113.067 155.939C112.309 155.598 112.078 154.763 112.605 154.06C115.642 150.039 119.64 148.484 123.61 145.996C127.861 143.337 132.556 141.508 137.399 140.607C139.931 140.134 142.342 140.2 144.884 140.151C147.509 140.101 150.233 140.453 152.594 141.76C154.45 142.793 152.825 145.765 150.974 144.765Z" fill="#272C4D"/>
<path d="M211.221 167.14C211.336 166.992 211.457 166.849 211.578 166.711C212.61 165.569 214.384 166.179 215.779 166.492C221.276 167.722 226.734 169.172 232.302 170.04C237.871 170.914 243.593 171.194 249.117 170.084C249.447 170.018 250.161 172.974 250.21 173.216C251.292 178.709 250.221 184.895 244.235 188.965C237.964 193.228 228.859 193.942 220.93 191.926C217.25 190.992 214.236 189.097 212.154 186.773C207.816 181.934 207.174 176.138 209.337 170.634C209.798 169.464 210.419 168.167 211.221 167.14Z" fill="white"/>
<path d="M212.803 170.062C213.676 168.607 214.659 167.107 216.52 167.019C217.662 166.964 218.777 167.343 219.87 167.689C223.774 168.909 227.816 169.683 231.891 169.98C232.78 170.046 234 170.024 234.785 170.513C235.444 170.925 235.493 171.507 235.713 172.232C236.24 173.946 236.575 175.649 236.537 177.451C236.454 180.895 235.098 184.307 232.418 186.543C228.503 189.811 222.813 190.349 217.855 188.784C211.095 186.652 209.563 179.115 211.216 173.589C211.55 172.452 212.094 171.243 212.803 170.062Z" fill="#292954"/>
<path d="M217.338 172.023C217.536 171.721 217.761 171.458 217.997 171.249C219.491 169.936 221.622 170.859 221.896 172.826C222.045 173.902 221.907 175.116 221.1 175.907C220.26 176.737 219.035 176.874 217.964 176.473C217.124 176.16 216.658 175.556 216.575 174.644C216.504 173.809 216.833 172.804 217.338 172.023Z" fill="white"/>
<path d="M178.107 196.843C178.47 196.315 178.783 195.749 179.178 195.244C181.484 192.294 187.734 192.629 190.435 194.744C191.369 195.475 191.342 196.612 192.094 197.397C192.879 198.216 194.378 198.183 194.708 196.92C195.861 192.514 189.903 190.042 186.487 189.778C182.237 189.454 176.575 190.608 174.505 194.761C174.219 195.337 174 195.969 174.022 196.612C174.049 197.255 174.357 197.914 174.917 198.227C175.751 198.694 176.839 198.265 177.509 197.579C177.734 197.359 177.926 197.106 178.107 196.843Z" fill="#EA6F5B"/>
<path d="M257.146 190.08C262.302 190.333 267.261 192.898 264.845 198.892C264.032 200.908 262.324 202.451 260.441 203.545C248.623 210.406 234.982 199.238 250.062 191.355C251.841 190.426 254.515 189.954 257.146 190.08Z" fill="#EA6F5B"/>
<path d="M126.504 192.338C133.105 194.085 138.558 199.018 130.59 205.132C126.691 208.121 121.562 207.264 117.723 204.907C111.76 201.243 108.926 193.959 118.739 191.91C120.974 191.448 123.83 191.635 126.504 192.338Z" fill="#EA6F5B"/>
<path d="M222.281 227.155C219.03 234.934 211.71 241.932 203.56 246.388C200.573 248.03 197.465 249.316 194.406 250.189C194.318 250.217 194.23 250.249 194.137 250.26C193.044 250.557 191.962 250.81 190.897 250.986C190.556 251.046 190.188 251.09 189.788 251.117C185.158 251.518 177.026 250.173 171.155 247.019C171.111 247.003 171.067 246.992 171.023 246.959C166.438 244.487 163.275 240.922 164.307 236.236C164.78 234.093 166.125 232.314 167.855 230.94C169.173 229.902 170.721 229.089 172.308 228.556C180.474 225.76 189.727 226.513 197.745 223.173C200.364 222.063 204.356 218.514 208.497 215.822C213.242 212.746 218.2 210.79 221.495 215.026C224.148 218.443 224.131 222.728 222.281 227.155Z" fill="#D6503B"/>
<path d="M203.56 246.388C200.572 248.03 197.464 249.316 194.406 250.189C194.318 250.216 194.23 250.249 194.136 250.26C193.044 250.557 191.962 250.81 190.897 250.986C190.556 251.046 190.188 251.09 189.787 251.117C185.158 251.518 177.025 250.173 171.155 247.019C171.495 246.085 173.093 245.404 173.977 245.097C176.092 244.328 178.371 244.047 180.6 243.866C189.183 243.174 200.485 244.685 203.56 246.388Z" fill="#EA6F5B"/>
<path d="M206.608 224.222C202.764 227.935 195.9 230.512 192.473 231.099C185.477 232.297 177.421 231.748 170.425 231.264C169.788 231.22 168.888 231.116 167.866 230.94C169.184 229.902 170.733 229.089 172.32 228.556C180.486 225.76 189.739 226.512 197.756 223.173C200.376 222.063 204.368 218.514 208.508 215.822C210.348 218.926 209.118 221.81 206.608 224.222Z" fill="white"/>
<path d="M204.329 162.69C218.283 172.315 240.051 174.55 256.333 171.271C258.497 170.837 257.568 167.579 255.421 167.969C240.106 170.765 219.03 168.925 205.773 160.213C204.219 159.196 202.824 161.652 204.329 162.69Z" fill="#292954"/>
<path d="M210.233 133.064C211.199 135.921 214.412 137.937 216.811 139.47C221.43 142.414 226.877 144.705 232.451 145.111C234.109 145.232 235.268 145.084 235.971 146.737C236.213 147.298 235.922 147.847 235.29 147.935C231.693 148.446 228.788 147.193 225.449 146.441C221.869 145.633 218.464 144.166 215.433 142.145C213.851 141.09 212.594 139.821 211.21 138.547C209.782 137.228 208.503 135.652 207.888 133.773C207.404 132.295 209.738 131.603 210.233 133.064Z" fill="#272C4D"/>
<path d="M161.792 289.989C162.276 306.656 165.296 323.251 170.864 338.968C171.54 340.88 172.254 342.78 173.006 344.664C173.692 346.384 174.291 349.246 176.356 349.806C177.674 350.158 178.722 349.295 178.997 348.043C179.42 346.12 177.915 343.857 177.234 342.105C174.214 334.331 171.82 326.317 170.068 318.164C168.075 308.891 166.971 299.47 166.696 289.989C166.608 286.841 161.699 286.825 161.792 289.989Z" fill="#272C4D"/>
<path d="M265.718 225.37C275.509 247.805 280.358 272.344 279.985 296.817C279.881 303.799 279.359 310.776 278.392 317.692C278.222 318.895 278.689 320.076 279.952 320.444C280.995 320.746 282.533 320.076 282.703 318.884C286.223 293.719 284.367 267.927 277.107 243.559C275.032 236.593 272.495 229.781 269.584 223.118C268.425 220.481 264.576 222.755 265.718 225.37Z" fill="#272C4D"/>
<path d="M100.239 214.361C90.8318 185.059 90.4529 152.555 100.074 123.231C100.925 120.627 102.265 116.804 105.153 115.804C106.702 115.271 110.129 116.919 108.8 118.765C106.993 121.27 111.156 123.682 112.94 121.188C114.84 118.523 113.792 115.106 111.474 113.074C108.976 110.887 105.637 110.278 102.633 111.766C99.36 113.387 97.5149 116.749 96.2464 120.012C94.7252 123.929 93.7093 128.098 92.7428 132.18C88.6188 149.572 87.5425 167.706 89.6072 185.46C90.7934 195.667 92.957 205.72 96.1421 215.493C96.9823 218.08 101.079 216.981 100.239 214.361Z" fill="#272C4D"/>
</g>
<defs>
<filter id="filter0_d_676_196" x="0" y="0" width="377.788" height="357.885" filterUnits="userSpaceOnUse" color-interpolation-filters="sRGB">
<feFlood flood-opacity="0" result="BackgroundImageFix"/>
<feColorMatrix in="SourceAlpha" type="matrix" values="0 0 0 0 0 0 0 0 0 0 0 0 0 0 0 0 0 0 127 0" result="hardAlpha"/>
<feOffset dy="4"/>
<feGaussianBlur stdDeviation="2"/>
<feComposite in2="hardAlpha" operator="out"/>
<feColorMatrix type="matrix" values="0 0 0 0 0 0 0 0 0 0 0 0 0 0 0 0 0 0 0.25 0"/>
<feBlend mode="normal" in2="BackgroundImageFix" result="effect1_dropShadow_676_196"/>
<feBlend mode="normal" in="SourceGraphic" in2="effect1_dropShadow_676_196" result="shape"/>
</filter>
</defs>
</svg>
