<svg width="370" height="361" viewBox="0 0 370 361" fill="none" xmlns="http://www.w3.org/2000/svg">
<path d="M205.551 295.048C211.921 307.656 215.826 321.274 221.279 334.271C223.788 340.253 226.375 346.296 230.762 351.169C234.53 355.36 240.603 359.848 246.517 359.502C250.136 359.288 250.587 354.657 247.341 353.399C244.903 352.454 242.47 351.85 240.224 350.455C237.995 349.065 236.062 347.235 234.398 345.203C230.636 340.61 228.33 334.65 226.078 329.217C220.944 316.824 216.858 304.002 210.631 292.082C208.874 288.709 203.843 291.681 205.551 295.048Z" fill="#272C4D"/>
<path d="M146.453 287.967C144.025 297.784 142.576 307.809 140.203 317.642C137.87 327.311 134.827 337.353 128.699 345.362C127.167 347.367 125.382 349.208 123.449 350.823C121.291 352.619 118.946 353.712 116.469 354.932C113.301 356.492 115.569 362.09 118.908 360.716C128.721 356.69 135.591 347.488 139.709 338.012C144.108 327.893 146.332 317.044 148.353 306.249C149.407 300.624 150.385 294.982 151.713 289.412C152.521 286.012 147.298 284.556 146.453 287.967Z" fill="#272C4D"/>
<path d="M176.282 8.04009C178.621 4.67813 181.367 1.09643 185.365 0.211996C192.191 -1.30418 197.71 5.60102 201.098 11.7207C216.144 38.913 225.128 68.5664 236.062 97.5385C237.407 101.098 238.819 104.762 241.482 107.482C245.035 111.107 250.246 112.475 255.205 113.552C270.285 116.826 285.595 118.825 300.85 121.116C312.064 122.803 323.107 125.511 334.364 126.917C344.188 128.142 354.276 129.477 362.535 135.701C367.231 139.239 370.646 145.106 369.597 150.89C368.977 154.302 366.934 157.257 364.891 160.053C348.971 181.862 328.175 201.551 304.809 215.366C299.406 218.558 293.733 221.536 289.428 226.106C280.861 235.187 284.255 247.701 287.588 258.429C294.634 281.133 306.698 316.027 290.175 337.182C288.132 339.797 285.479 342.291 282.179 342.659C279.461 342.967 276.819 341.775 274.365 340.572C255.15 331.173 237.182 319.23 221.081 305.15C211.032 296.361 201.01 286.369 187.995 283.397C180.9 281.776 173.448 282.424 166.365 284.094C151.455 287.61 137.897 295.515 125.766 304.87C113.636 314.226 102.746 325.07 91.4118 335.381C88.9461 337.622 86.3871 339.885 83.279 341.088C74.0478 344.648 69.0012 337.298 68.0677 329.261C64.35 297.218 63.4988 259.654 77.4141 230.023C80.5278 223.387 84.1356 216.361 82.9989 209.115C81.4833 199.474 72.3071 193.234 63.9656 188.18C45.745 177.143 27.5243 166.102 9.30373 155.065C5.4103 152.703 1.15992 149.869 0.20441 145.413C-1.58031 137.102 8.6832 131.806 16.9094 129.664C47.1288 121.786 94.2838 120.583 119.512 100.466C144.86 80.2233 157.688 34.727 176.282 8.04009Z" fill="#FFCA6C"/>
<path d="M153.915 170.161C152.867 168.656 151.549 167.255 149.994 166.014C147.551 164.053 144.338 162.542 140.906 161.734C138.149 161.086 134.174 160.63 131.362 161.268C122.367 163.317 117.117 169.722 115.865 176.308C114.805 181.89 115.854 188.169 121.703 192.305C127.831 196.634 136.716 197.359 144.459 195.316C148.056 194.365 150.994 192.443 153.031 190.086C157.271 185.175 157.891 179.286 155.782 173.694C155.332 172.469 154.701 171.287 153.915 170.161Z" fill="white"/>
<path d="M148.078 173.106C145.184 168.09 139.297 164.761 133.086 167.156C124.283 170.551 122.076 183.9 128.924 189.844C132.746 193.168 138.303 193.711 143.147 192.118C149.747 189.954 151.246 182.302 149.632 176.682C149.303 175.528 148.77 174.303 148.078 173.106Z" fill="#292954"/>
<path d="M143.641 175.1C143.449 174.792 143.229 174.523 142.998 174.309C141.543 172.974 139.456 173.908 139.193 175.907C139.044 177.001 139.182 178.231 139.967 179.039C140.791 179.885 141.982 180.016 143.026 179.61C143.844 179.291 144.3 178.676 144.382 177.753C144.459 176.913 144.141 175.891 143.641 175.1Z" fill="white"/>
<path d="M155.739 174.336C154.904 172.348 154.047 170.573 152.554 168.909C150.934 167.107 149.039 165.602 146.98 164.437C143.053 162.218 138.034 160.927 133.597 161.723C129.973 162.157 125.409 163.734 122.872 166.569C121.258 168.376 116.513 174.1 116.2 176.896C116.025 178.484 113.597 179.253 113.312 177.319C112.636 172.738 115.635 168.53 118.326 165.294C120.978 162.102 124.278 160.356 128.034 159.185C133.927 157.351 140.385 158.219 145.915 160.96C151.087 163.52 158.062 168.782 157.359 175.754C157.326 176.105 157.15 176.55 156.826 176.495C156.623 176.457 156.508 176.231 156.425 176.028C156.189 175.435 155.964 174.88 155.739 174.336Z" fill="#292954"/>
<path d="M146.974 147.754C143.361 145.798 138.336 146.875 134.564 147.655C130.818 148.429 127.128 149.566 123.636 151.138C121.933 151.907 118.616 155.307 116.596 154.527C112.301 152.863 118.682 149.682 120.011 148.781C127.6 143.645 135.947 140.497 145.233 140.695C146.656 140.728 148.193 140.876 149.237 141.843C150.708 143.194 149.506 149.127 146.974 147.754Z" fill="#272C4D"/>
<path d="M207.259 170.156C208.33 168.678 209.686 167.299 211.273 166.069C213.772 164.14 217.067 162.646 220.576 161.855C223.399 161.218 227.473 160.768 230.345 161.399C239.554 163.415 244.931 169.722 246.21 176.209C247.292 181.703 246.221 187.888 240.235 191.959C233.964 196.222 224.859 196.936 216.93 194.92C213.25 193.986 210.236 192.091 208.154 189.767C203.816 184.927 203.174 179.132 205.337 173.628C205.809 172.43 206.457 171.265 207.259 170.156Z" fill="white"/>
<path d="M213.239 173.051C216.199 168.112 222.229 164.833 228.588 167.195C237.599 170.54 239.862 183.68 232.854 189.536C228.939 192.805 223.25 193.343 218.291 191.778C211.531 189.646 209.999 182.109 211.652 176.583C211.987 175.44 212.531 174.232 213.239 173.051Z" fill="#292954"/>
<path d="M217.781 175.017C217.978 174.715 218.204 174.452 218.44 174.243C219.933 172.93 222.064 173.853 222.339 175.819C222.487 176.896 222.35 178.11 221.542 178.901C220.702 179.731 219.478 179.868 218.407 179.467C217.567 179.154 217.1 178.55 217.017 177.638C216.941 176.803 217.27 175.797 217.781 175.017Z" fill="white"/>
<path d="M205.398 174.265C206.249 172.309 207.128 170.557 208.66 168.92C210.318 167.145 212.257 165.662 214.365 164.514C218.385 162.328 223.525 161.059 228.066 161.839C231.773 162.267 236.446 163.816 239.049 166.612C240.702 168.392 245.557 174.029 245.881 176.781C246.062 178.346 248.549 179.099 248.841 177.193C249.532 172.683 246.457 168.535 243.706 165.349C240.993 162.207 237.611 160.482 233.767 159.334C227.731 157.526 221.12 158.383 215.458 161.081C210.164 163.602 203.02 168.782 203.739 175.644C203.778 175.99 203.953 176.429 204.283 176.374C204.492 176.341 204.607 176.111 204.695 175.913C204.936 175.347 205.167 174.798 205.398 174.265Z" fill="#292954"/>
<path d="M214.997 146.781C215.974 147.292 217.237 147.457 218.374 147.534C221.949 147.776 225.892 147.605 229.373 148.413C232.289 149.089 235.145 150.506 238.099 151.22C242.355 152.247 241.828 149.039 238.939 147.446C233.344 144.359 227.1 142.112 220.79 140.953C219.077 140.64 217.243 140.436 215.65 141.151C214.063 141.865 212.904 143.798 213.618 145.391C213.904 146.023 214.398 146.468 214.997 146.781Z" fill="#272C4D"/>
<path d="M174.113 199.837C174.475 199.309 174.788 198.743 175.184 198.238C177.49 195.288 183.74 195.623 186.441 197.738C187.375 198.469 187.347 199.606 188.1 200.391C188.885 201.21 190.384 201.177 190.714 199.914C191.867 195.508 185.909 193.036 182.493 192.772C178.243 192.448 172.581 193.602 170.511 197.755C170.225 198.331 170.005 198.963 170.027 199.606C170.055 200.249 170.362 200.908 170.923 201.221C171.757 201.688 172.845 201.259 173.514 200.573C173.734 200.348 173.932 200.095 174.113 199.837Z" fill="#EA6F5B"/>
<path d="M253.146 193.074C258.302 193.327 263.261 195.892 260.845 201.886C260.032 203.902 258.324 205.445 256.441 206.539C244.623 213.4 230.982 202.232 246.062 194.349C247.841 193.42 250.521 192.948 253.146 193.074Z" fill="#EA6F5B"/>
<path d="M122.504 195.332C129.105 197.079 134.558 202.012 126.59 208.126C122.691 211.115 117.562 210.258 113.723 207.901C107.759 204.237 104.926 196.953 114.739 194.904C116.974 194.437 119.835 194.623 122.504 195.332Z" fill="#EA6F5B"/>
<path d="M224.876 213.213C224.887 213.284 224.887 213.356 224.876 213.427C224.826 213.773 224.601 214.065 224.382 214.339C223.14 215.899 221.564 217.196 220.466 218.822C219.879 219.701 219.379 220.635 218.813 221.525C218.561 221.92 217.237 223.282 217.237 223.667C214.041 227.023 210.433 230.1 206.765 232.868C199.505 238.356 191.12 242.63 182.026 242.707C173.317 242.779 165.321 239.4 158.506 234.126C155.129 231.517 152.054 228.534 149.121 225.447C146.293 222.464 144.014 219.311 141.669 215.938C141.472 215.658 141.269 215.361 141.219 215.02C140.862 212.68 143.74 216.097 143.998 216.361C145.266 217.679 146.7 218.728 148.341 219.541C150.846 220.783 153.399 221.92 156.03 222.865C156.238 222.953 156.458 223.03 156.667 223.101C158.808 223.854 160.983 224.507 163.19 225.051C175.261 228.084 188.067 228.172 200.148 225.172C201.938 224.744 203.712 224.227 205.458 223.65C208.984 222.486 212.421 221.063 215.727 219.355C217.303 218.542 218.989 217.882 220.455 216.872C222.026 215.795 223.135 214.07 224.376 212.625C224.651 212.664 224.837 212.927 224.876 213.213Z" fill="#AA3327"/>
<path d="M200.054 226.392C199.889 226.848 199.593 227.249 199.241 227.589C198.901 227.93 198.489 228.226 198.072 228.49C191.312 232.945 182.646 234.154 174.826 232.275C171.987 231.594 165.123 228.205 163.19 225.057C175.26 228.089 188.066 228.177 200.147 225.178C200.219 225.579 200.191 225.991 200.054 226.392Z" fill="white"/>
<path d="M290.235 196.909C300.943 165.909 318.988 138.278 339.861 113.189C341.185 111.596 342.464 109.756 344.057 108.415C344.798 107.789 345.462 107.427 346.445 107.553C347.604 107.696 348.763 108.234 349.878 108.564C351.684 109.102 353.518 109.426 355.402 109.597C357.791 109.811 357.736 106.152 355.402 105.888C352.535 105.57 350.015 104.262 347.225 103.757C344.6 103.279 342.437 104.394 340.581 106.202C337.56 109.157 334.908 112.607 332.195 115.843C329.367 119.221 326.599 122.643 323.898 126.121C313.574 139.415 304.403 153.648 296.863 168.711C292.508 177.418 288.714 186.411 285.507 195.607C284.463 198.59 289.208 199.881 290.235 196.909Z" fill="#272C4D"/>
<path d="M94.3167 196.876C85.2943 169.952 70.698 145.496 59.0287 119.726C55.6734 112.31 52.5433 104.861 50.3687 97.0111C49.9459 95.4785 48.3588 94.6545 46.8487 95.0115C42.9937 95.9125 38.9959 96.731 35.5473 98.7196C33.51 99.8952 34.3666 103.235 36.7554 103.191C40.7367 103.114 44.5917 101.757 48.3698 100.538C47.1947 99.8732 46.0195 99.203 44.8498 98.5383C50.2644 111.711 55.7833 124.764 62.0929 137.541C68.3422 150.204 74.91 162.718 80.687 175.611C83.9983 182.999 87.0131 190.509 89.5886 198.189C90.5826 201.16 95.3217 199.886 94.3167 196.876Z" fill="#272C4D"/>
</svg>
