<svg width="370" height="364" viewBox="0 0 370 364" fill="none" xmlns="http://www.w3.org/2000/svg">
<path d="M141.894 286.621C138.061 298.74 134.464 310.952 131.823 323.389C130.527 329.492 129.484 335.639 128.693 341.83C128.292 344.967 127.963 348.109 127.715 351.257C127.463 354.498 126.952 358.035 127.287 361.277C127.424 362.595 128.188 363.677 129.572 363.864C130.747 364.023 132.257 363.271 132.46 361.974C132.96 358.799 132.844 355.486 133.075 352.278C133.3 349.12 133.608 345.966 133.992 342.824C134.739 336.672 135.81 330.557 137.095 324.493C139.709 312.16 143.256 300.053 147.04 288.033C148.083 284.754 142.932 283.353 141.894 286.621Z" fill="#272C4D"/>
<path d="M217.237 301.618C221.202 311.27 224.541 321.164 227.188 331.255C228.5 336.243 229.642 341.275 230.62 346.34C231.097 348.818 231.537 351.301 231.932 353.789C232.317 356.201 232.152 359.782 234.112 361.496C235.32 362.556 236.984 362.353 237.879 361.013C239.313 358.859 238.236 355.602 237.857 353.223C237.446 350.619 236.99 348.021 236.485 345.434C235.48 340.259 234.304 335.117 232.954 330.019C230.252 319.823 226.847 309.82 222.805 300.08C222.207 298.641 220.889 297.614 219.252 298.064C217.89 298.438 216.638 300.162 217.237 301.618Z" fill="#272C4D"/>
<path d="M176.282 8.04009C178.621 4.67813 181.367 1.09643 185.365 0.211996C192.191 -1.30418 197.71 5.60102 201.098 11.7207C216.144 38.913 225.128 68.5664 236.062 97.5385C237.407 101.098 238.819 104.762 241.482 107.482C245.035 111.107 250.246 112.475 255.205 113.552C270.285 116.826 285.6 118.825 300.85 121.116C312.064 122.803 323.107 125.511 334.364 126.917C344.188 128.142 354.276 129.477 362.535 135.701C367.231 139.239 370.646 145.106 369.597 150.89C368.977 154.302 366.934 157.257 364.891 160.053C348.972 181.862 328.175 201.551 304.809 215.366C299.406 218.558 293.733 221.536 289.428 226.106C280.861 235.187 284.255 247.701 287.588 258.429C294.634 281.133 306.698 316.027 290.175 337.182C288.132 339.797 285.479 342.291 282.179 342.659C279.461 342.967 276.819 341.775 274.365 340.572C255.15 331.173 237.182 319.23 221.081 305.15C211.032 296.361 201.01 286.369 187.995 283.397C180.9 281.776 173.448 282.424 166.365 284.094C151.455 287.61 137.897 295.515 125.766 304.87C113.636 314.226 102.746 325.07 91.4118 335.381C88.9462 337.622 86.3871 339.885 83.279 341.088C74.0478 344.648 69.0012 337.298 68.0677 329.261C64.35 297.218 63.4988 259.654 77.4141 230.023C80.5277 223.387 84.1357 216.361 82.9989 209.115C81.4833 199.474 72.3071 193.234 63.9656 188.18C45.7449 177.143 27.5243 166.102 9.30374 155.065C5.4103 152.703 1.15992 149.869 0.20441 145.413C-1.58031 137.102 8.68319 131.806 16.9094 129.664C47.1288 121.786 94.2838 120.583 119.512 100.466C144.86 80.2233 157.688 34.727 176.282 8.04009Z" fill="#FFCA6C"/>
<path d="M181.73 201.627C182.092 201.1 182.405 200.534 182.801 200.029C185.107 197.079 191.356 197.414 194.058 199.529C194.992 200.26 194.964 201.397 195.716 202.182C196.502 203.001 198.001 202.968 198.33 201.704C199.484 197.299 193.525 194.827 190.11 194.563C185.859 194.239 180.198 195.392 178.127 199.545C177.842 200.122 177.622 200.754 177.644 201.397C177.672 202.039 177.979 202.699 178.539 203.012C179.374 203.479 180.461 203.05 181.131 202.364C181.356 202.144 181.548 201.891 181.73 201.627Z" fill="#EA6F5B"/>
<path d="M260.768 194.865C265.924 195.118 270.883 197.683 268.467 203.676C267.654 205.692 265.946 207.236 264.063 208.329C252.245 215.191 238.604 204.022 253.684 196.139C255.458 195.211 258.137 194.739 260.768 194.865Z" fill="#EA6F5B"/>
<path d="M130.121 197.123C136.721 198.87 142.174 203.803 134.206 209.917C130.307 212.905 125.178 212.048 121.34 209.692C115.376 206.028 112.543 198.743 122.356 196.694C124.596 196.233 127.452 196.42 130.121 197.123Z" fill="#EA6F5B"/>
<path d="M157.935 233.824C172.333 239.34 188.336 243.031 203.695 238.631C210.345 236.725 216.122 233.539 222.031 230.061C225.754 227.875 229.34 225.864 228.687 221.162C228.516 219.931 226.842 220.025 226.281 220.849C220.296 229.622 204.64 235.505 194.585 236.11C189.159 236.439 183.108 236.511 177.677 235.978C171.142 235.335 165.002 232.495 158.929 230.21C156.672 229.364 155.711 232.973 157.935 233.824Z" fill="#D6503B"/>
<path d="M212.146 182.434C212.163 182.406 212.174 182.384 212.19 182.357C216.095 175.303 224.425 171.414 231.993 169.859C242.717 167.656 250.411 171.035 257.742 179.385C261.026 183.126 256.265 188.685 252.393 185.202C246.073 179.516 240.938 174.798 231.817 176.1C226.512 176.858 221.191 179.407 217.171 182.939C214.052 185.669 208.972 188.229 212.146 182.434Z" fill="#292954"/>
<path d="M164.135 182.736C164.124 182.708 164.107 182.686 164.091 182.659C160.247 175.572 151.955 171.612 144.398 169.991C133.696 167.7 125.969 171.007 118.567 179.291C115.25 183.005 119.967 188.603 123.866 185.158C130.236 179.527 135.409 174.853 144.519 176.231C149.818 177.033 155.118 179.632 159.11 183.197C162.202 185.949 167.259 188.553 164.135 182.736Z" fill="#292954"/>
<path d="M231.779 149.506C232.07 149.039 232.114 148.314 231.812 147.243C231.098 144.716 225.711 143.073 223.542 142.299C221.872 141.7 220.027 141.217 218.341 141.771C216.128 142.497 215.343 144.749 216.589 146.534C217.83 148.308 221.186 148.276 223.069 148.545C224.81 148.786 230.532 151.511 231.779 149.506Z" fill="#272C4D"/>
<path d="M158.77 136.163C159.297 136.086 159.808 136.069 160.274 136.135C161.944 136.382 164.849 138.536 163.377 140.436C162.916 141.035 162.125 141.266 161.389 141.458C158.374 142.249 150.027 147.49 147.314 145.523C143.059 142.431 151.12 139.041 153.141 138.179C154.667 137.53 156.853 136.448 158.77 136.163Z" fill="#272C4D"/>
<path d="M93.3612 203.682C86.6946 205.363 80.1049 207.445 73.6799 209.884C66.2884 212.691 57.9579 215.927 52.2852 221.667C49.9788 224.002 48.216 227.001 48.3808 230.385C48.573 234.363 50.841 237.769 53.3835 240.675C59.2319 247.349 67.0956 252.068 74.0807 257.424C75.6238 258.605 77.145 259.836 78.5453 261.187C80.2861 262.873 81.4777 264.329 82.4387 266.9C83.3393 269.301 83.3558 272.849 80.6485 274.157C78.5343 275.179 76.7221 272.69 77.5239 270.762C78.3147 268.861 75.5305 267.581 74.2455 268.85C69.9292 273.113 74.877 279.958 80.2147 279.546C87.057 279.018 89.693 271.141 87.8423 265.411C85.0197 256.666 76.2609 251.48 69.4679 246.064C65.8161 243.158 62.1478 240.164 59.0562 236.648C57.9359 235.373 56.9969 234.093 56.1182 232.319C56.0578 232.198 55.8656 231.682 56.1018 232.297C56.0304 232.105 55.948 231.913 55.8931 231.715C55.7997 231.38 55.7174 231.039 55.6185 230.704C55.3934 229.902 55.5197 231.056 55.5526 230.237C55.5691 229.831 55.7942 228.754 55.5142 229.754C55.5856 229.501 55.6625 229.226 55.7174 228.968C55.8711 228.227 55.4043 229.38 55.8272 228.71C55.9864 228.463 56.1292 228.194 56.283 227.935C56.7717 227.117 56.0853 228.04 56.6344 227.457C57.8261 226.194 59.0726 225.084 60.0227 224.42C63.5262 221.948 67.4306 220.041 71.3515 218.327C78.8693 215.042 87.1065 212.384 95.1844 210.291C99.4622 209.197 97.65 202.6 93.3612 203.682Z" fill="#272C4D"/>
<path d="M281.992 208.846C286.984 213.032 291.976 217.223 296.962 221.409C300.685 224.535 304.705 228.029 305.545 233.094C306.973 241.702 297.929 248.239 291.278 251.546C284.689 254.825 277.275 256.007 270.795 259.577C264.645 262.961 260.104 268.856 262.311 276.167C263.689 280.721 266.463 284.495 271.427 285.122C275.935 285.687 280.323 283.254 280.68 278.442C280.949 274.794 275.298 274.827 275.013 278.442C274.974 278.903 274.497 279.299 273.563 279.458C272.542 279.628 271.152 279.485 270.147 278.755C268.22 277.348 267.209 273.256 267.517 271.322C267.885 268.965 269.543 267.153 271.619 265.73C274.134 264.01 276.94 262.774 279.79 261.725C287.281 258.962 294.705 256.814 301.125 251.81C307.44 246.888 312.525 239.367 310.499 231.039C309.192 225.678 305.293 221.634 301.169 218.228C295.957 213.922 290.746 209.615 285.534 205.302C283.074 203.264 279.51 206.764 281.992 208.846Z" fill="#272C4D"/>
<path d="M31.9006 101.428C35.1735 105.031 41.9719 110.734 46.9801 107.795C49.0064 106.603 49.248 104.334 48.4078 102.345C47.3315 99.7963 44.9922 99.4172 42.878 98.1538C41.2415 97.1759 40.0224 96.0992 38.6935 94.6325C36.9472 92.7098 33.6688 92.8581 31.9006 94.6325C29.9895 96.5442 30.1488 99.4996 31.9006 101.428Z" fill="#FFCA6C"/>
<path d="M73.4819 58.3321C72.9163 63.0949 75.5412 69.2859 80.0826 71.3515C82.5263 72.4666 85.3269 72.2524 87.0403 69.9616C88.6877 67.7588 88.4735 64.9077 86.6174 62.8806C86.1671 62.3862 85.6839 61.9138 85.239 61.4139C85.9474 62.216 84.981 60.903 84.8547 60.6558C84.6789 60.2933 84.7064 60.3537 84.937 60.8316C84.8327 60.513 84.7448 60.1834 84.6734 59.8538C85.0304 61.37 84.8327 58.3046 84.613 59.8483C85.0853 56.4918 83.6081 53.2672 79.9014 52.7673C76.2551 52.2674 73.8828 54.9427 73.4819 58.3321Z" fill="#FFCA6C"/>
<path d="M117.375 43.2857C117.65 43.6922 117.891 44.1097 118.128 44.5382C117.523 43.423 118.177 44.9832 118.292 45.2304C118.38 45.6424 118.38 45.5435 118.298 44.9282C118.325 45.17 118.342 45.4172 118.347 45.6589C118.364 46.2302 118.32 46.7905 118.254 47.3563C117.913 50.0975 120.637 52.5091 123.092 52.8387C125.612 53.1793 128.732 51.5807 129.215 48.8395C129.918 44.8513 129.456 40.984 127.337 37.4627C125.783 34.8808 122.087 33.6888 119.446 35.3917C116.958 37.0013 115.569 40.6104 117.375 43.2857Z" fill="#FFCA6C"/>
<path d="M241.894 41.9838C240.845 44.9503 239.79 47.9112 238.742 50.8776C237.797 53.5364 239.807 56.8874 242.498 57.5027C245.419 58.1674 248.225 56.6237 249.12 53.7452C250.049 50.7458 250.977 47.7464 251.905 44.7525C252.734 42.0772 250.922 39.0943 248.28 38.3692C245.408 37.5726 242.833 39.3305 241.894 41.9838Z" fill="#FFCA6C"/>
<path d="M289.181 67.2919C284.991 68.7202 281.361 72.192 280.625 76.713C280.378 78.2402 280.378 79.63 281.185 81.0144C281.861 82.1735 283.19 83.2776 284.519 83.5798C287.264 84.206 290.801 82.7503 291.377 79.685C291.427 79.4158 291.482 79.1521 291.564 78.8884C291.619 78.7072 291.883 77.9491 291.57 78.7896C291.246 79.6685 291.641 78.7841 291.74 78.5863C292.163 77.7403 291.097 79.2345 291.553 78.8005C291.712 78.6467 291.85 78.4764 292.009 78.3281C292.739 77.6414 292.086 78.4435 291.767 78.4929C291.921 78.4709 292.19 78.2402 292.333 78.1578C293.31 77.57 291.108 78.5808 292.196 78.2402C295.024 77.3503 297.121 74.252 296.155 71.2636C295.26 68.4729 292.19 66.2646 289.181 67.2919Z" fill="#FFCA6C"/>
<path d="M304.963 96.8354C304.057 97.4946 303.145 98.1483 302.239 98.8075C300.713 99.9117 299.181 101.087 298.736 103.054C298.368 104.68 298.401 106.647 299.34 108.102C301.344 111.217 305.507 112.091 308.62 110.052C309.603 109.41 310.586 108.767 311.564 108.124C312.986 107.196 314.106 105.883 314.568 104.218C314.996 102.653 314.804 100.571 313.909 99.181C313.008 97.7857 311.668 96.5552 310.004 96.1761C308.379 95.8081 306.363 95.8191 304.963 96.8354Z" fill="#FFCA6C"/>
<path d="M332.514 229.885C334.018 230.319 335.523 230.759 337.033 231.193C339.202 231.825 341.838 230.429 342.354 228.172C342.914 225.705 341.602 223.711 339.334 222.848C337.862 222.288 336.391 221.728 334.919 221.167C332.706 220.327 329.867 222.101 329.362 224.321C328.807 226.743 330.081 229.182 332.514 229.885Z" fill="#FFCA6C"/>
<path d="M326.479 257.764C327.895 262.483 333.689 267.894 338.873 265.191C341.344 263.906 341.915 259.962 339.784 258.094C338.84 257.264 337.895 256.863 336.709 256.556C335.918 256.353 336.539 256.347 336.742 256.644C336.665 256.534 336.006 256.248 335.874 256.171C335.155 255.765 336.237 256.583 335.896 256.193C335.798 256.078 335.32 255.776 335.32 255.611C335.655 256.072 335.726 256.16 335.534 255.886C335.441 255.754 335.353 255.611 335.27 255.468C334.765 254.721 335.523 256.281 335.193 255.353C334.403 253.133 332.074 251.409 329.636 252.2C327.346 252.947 325.748 255.342 326.479 257.764Z" fill="#FFCA6C"/>
<path d="M316.792 301.514C318.06 302.717 319.285 304.008 320.63 305.123C322.206 306.425 324.644 306.782 326.166 305.123C327.736 303.409 327.527 301.305 326.166 299.586C325.078 298.218 323.81 296.96 322.634 295.669C321.174 294.065 318.252 294.076 316.792 295.669C315.314 297.284 315.117 299.926 316.792 301.514Z" fill="#FFCA6C"/>
<path d="M157.627 338.122C155.986 342.275 157.402 348.136 161.697 350.021C163.712 350.905 165.733 351.031 167.578 349.609C169.242 348.323 170.038 346.109 169.473 344.044C169.412 343.846 169.363 343.643 169.33 343.434C169.544 344.857 169.522 344.637 169.258 342.775C169.143 342.341 169 341.901 168.852 341.473C168.726 340.836 168.748 341.028 168.918 342.044C168.907 341.813 168.907 341.588 168.923 341.363C168.759 342.379 168.748 342.572 168.885 341.94C168.945 341.72 169.022 341.506 169.116 341.297C169.648 339.951 169.214 337.902 168.517 336.705C167.792 335.469 166.375 334.287 164.959 333.963C161.521 333.178 158.858 335.007 157.627 338.122Z" fill="#FFCA6C"/>
<path d="M201.57 338.254C202.026 340.088 202.476 341.923 202.932 343.758C203.657 346.686 207.116 348.73 210.027 347.785C213.064 346.801 214.832 343.83 214.052 340.687C213.596 338.852 213.146 337.018 212.69 335.183C211.965 332.255 208.506 330.211 205.595 331.156C202.559 332.145 200.79 335.117 201.57 338.254Z" fill="#FFCA6C"/>
<path d="M13.0818 194.217C16.0087 198.54 20.7039 200.402 25.8054 199.501C28.3864 199.045 30.0778 195.749 29.298 193.349C28.3864 190.525 25.9262 189.426 23.1475 189.855C23.812 189.773 23.8505 189.751 23.2739 189.784C22.6918 189.745 22.7357 189.767 23.4057 189.844C23.208 189.8 21.9175 189.306 22.4721 189.602C23.2409 190.02 21.253 188.548 22.3898 189.586C22.1866 189.41 21.9943 189.223 21.8131 189.026C22.1756 189.536 22.203 189.558 21.8845 189.08C20.4403 186.845 17.2992 185.718 14.9159 187.251C12.7138 188.663 11.4837 191.86 13.0818 194.217Z" fill="#FFCA6C"/>
<path d="M10.3854 248.799C14.9488 249.288 20.4128 247.712 22.6149 243.427C24.2678 240.213 21.5221 236.033 17.7714 237.126C16.8379 237.395 16.0306 237.549 15.1245 237.972C14.9269 238.065 13.3893 238.774 13.856 238.598C12.4228 239.131 12.0658 239.131 10.3799 238.994C7.73855 238.779 5.47607 241.4 5.47607 243.899C5.48706 246.778 7.74404 248.514 10.3854 248.799Z" fill="#FFCA6C"/>
<path d="M37.5239 276.799C35.6678 279.128 33.8061 281.463 31.95 283.792C30.7145 285.341 29.8413 286.825 29.8413 288.89C29.8413 290.659 30.6266 292.768 31.95 293.988C34.564 296.389 39.6326 297.136 42.1422 293.988C43.9983 291.659 45.8599 289.324 47.716 286.995C48.9516 285.446 49.8247 283.962 49.8247 281.897C49.8247 280.128 49.0394 278.019 47.716 276.799C45.1076 274.404 40.0335 273.651 37.5239 276.799Z" fill="#FFCA6C"/>
</svg>
