<svg width="370" height="366" viewBox="0 0 370 366" fill="none" xmlns="http://www.w3.org/2000/svg">
<path d="M208.852 275.558C193.278 295.224 193.459 325.026 209.308 344.505C210.401 345.846 211.735 347.065 212.152 348.812C212.509 350.29 212.158 351.789 211.499 353.135C209.791 356.618 206.513 359.277 203.388 361.436C200.867 363.183 203.273 367.347 205.81 365.578C210.9 362.024 217.419 356.53 217.023 349.609C216.82 346.076 214.772 343.775 212.636 341.171C210.681 338.787 209.011 336.155 207.578 333.425C201.872 322.532 200.412 309.441 203.185 297.498C204.761 290.708 207.688 284.21 212.01 278.716C213.767 276.486 210.637 273.3 208.852 275.558Z" fill="#272C4D"/>
<path d="M149.758 272.311C159.22 291.675 170.631 315.797 159.994 337.106C157.281 342.544 151.746 347.301 153.19 353.921C153.19 353.405 153.19 352.883 153.19 352.366C151.087 358.777 159.83 362.809 164.997 361.507C167.248 360.942 168.001 357.277 165.689 356.228C164.393 355.64 163.262 355.393 161.872 355.151C160.823 354.97 159.863 354.454 158.88 354.234C158.512 354.152 158.534 353.877 158.698 354.196C158.88 354.542 158.945 353.047 158.945 353.146C158.945 352.498 158.676 351.927 158.726 351.268C158.786 350.493 159.077 349.735 159.412 349.043C160.818 346.131 163.004 343.654 164.486 340.77C165.958 337.902 167.117 334.853 167.924 331.733C171.334 318.505 168.885 304.64 164.113 292.082C161.219 284.462 157.573 277.167 153.91 269.894C152.504 267.125 148.407 269.553 149.758 272.311Z" fill="#272C4D"/>
<path d="M176.282 8.04009C178.621 4.67813 181.367 1.09643 185.365 0.211996C192.191 -1.30418 197.71 5.60102 201.098 11.7207C216.144 38.913 225.128 68.5664 236.062 97.5385C237.407 101.098 238.819 104.762 241.482 107.482C245.035 111.107 250.246 112.475 255.205 113.552C270.285 116.826 285.6 118.825 300.85 121.116C312.064 122.803 323.107 125.511 334.364 126.917C344.188 128.142 354.276 129.477 362.535 135.701C367.231 139.239 370.646 145.106 369.597 150.89C368.977 154.302 366.934 157.257 364.891 160.053C348.972 181.862 328.175 201.551 304.809 215.366C299.406 218.558 293.733 221.536 289.428 226.106C280.861 235.187 284.255 247.701 287.588 258.429C294.634 281.133 306.698 316.027 290.175 337.182C288.132 339.797 285.479 342.291 282.179 342.659C279.461 342.967 276.819 341.775 274.365 340.572C255.15 331.173 237.182 319.23 221.081 305.15C211.032 296.361 201.01 286.369 187.995 283.397C180.9 281.776 173.449 282.424 166.365 284.094C151.455 287.61 137.897 295.515 125.766 304.87C113.636 314.226 102.746 325.07 91.4118 335.381C88.9461 337.622 86.3871 339.885 83.279 341.088C74.0479 344.648 69.0013 337.298 68.0677 329.261C64.35 297.218 63.4988 259.654 77.4141 230.023C80.5277 223.387 84.1357 216.361 82.9989 209.115C81.4833 199.474 72.3071 193.234 63.9656 188.18C45.7449 177.143 27.5244 166.102 9.30377 155.065C5.41034 152.703 1.15992 149.869 0.20441 145.413C-1.58031 137.102 8.68322 131.806 16.9094 129.664C47.1288 121.786 94.2838 120.583 119.512 100.466C144.86 80.2233 157.688 34.727 176.282 8.04009Z" fill="#FFCA6C"/>
<path d="M153.23 167.997C152.153 166.2 150.802 164.525 149.215 163.036C146.711 160.691 143.416 158.883 139.902 157.916C137.074 157.142 132.999 156.593 130.122 157.362C120.907 159.812 115.52 167.469 114.24 175.347C113.153 182.016 114.229 189.525 120.221 194.469C126.497 199.644 135.608 200.512 143.543 198.068C147.227 196.931 150.242 194.634 152.329 191.816C156.673 185.944 157.31 178.901 155.146 172.216C154.679 170.754 154.031 169.343 153.23 167.997Z" fill="white"/>
<path d="M147.244 171.513C144.278 165.514 138.249 161.537 131.879 164.399C122.856 168.458 120.594 184.417 127.612 191.525C131.533 195.497 137.227 196.145 142.192 194.244C148.957 191.657 150.495 182.505 148.842 175.792C148.496 174.413 147.952 172.946 147.244 171.513Z" fill="#292954"/>
<path d="M142.702 173.897C142.504 173.529 142.279 173.205 142.043 172.952C140.549 171.359 138.413 172.474 138.144 174.864C137.996 176.171 138.133 177.643 138.94 178.605C139.781 179.615 141.005 179.775 142.076 179.291C142.916 178.907 143.383 178.176 143.465 177.072C143.537 176.067 143.207 174.842 142.702 173.897Z" fill="white"/>
<path d="M155.091 172.985C154.24 170.612 153.356 168.486 151.824 166.497C150.165 164.344 148.221 162.542 146.113 161.147C142.088 158.493 136.947 156.95 132.395 157.9C128.683 158.422 124.004 160.301 121.407 163.695C119.748 165.854 114.888 172.699 114.57 176.039C114.389 177.94 111.901 178.857 111.61 176.545C110.918 171.068 113.993 166.036 116.75 162.168C119.468 158.35 122.851 156.263 126.7 154.862C132.741 152.67 139.358 153.708 145.025 156.983C150.325 160.042 157.475 166.338 156.755 174.666C156.717 175.083 156.541 175.622 156.211 175.55C156.003 175.506 155.887 175.232 155.8 174.99C155.558 174.298 155.327 173.633 155.091 172.985Z" fill="#292954"/>
<path d="M146.112 141.211C142.411 138.871 137.26 140.156 133.394 141.09C125.948 142.892 118.309 146.446 112.34 152.451C110.566 154.23 109.545 155.758 107.26 154.571C106.48 154.164 106.244 153.165 106.788 152.324C109.901 147.517 113.998 145.655 118.067 142.683C122.422 139.503 127.238 137.316 132.202 136.239C134.8 135.679 137.271 135.756 139.874 135.696C142.565 135.635 145.354 136.058 147.776 137.624C149.681 138.849 148.012 142.403 146.112 141.211Z" fill="#272C4D"/>
<path d="M207.897 167.991C208.995 166.222 210.384 164.574 212.01 163.108C214.574 160.8 217.946 159.015 221.543 158.07C224.437 157.307 228.61 156.768 231.559 157.521C240.994 159.932 246.507 167.469 247.819 175.226C248.929 181.796 247.83 189.19 241.697 194.052C235.266 199.15 225.942 200.001 217.814 197.595C214.042 196.475 210.955 194.217 208.819 191.437C204.371 185.653 203.718 178.72 205.931 172.139C206.414 170.705 207.073 169.315 207.897 167.991Z" fill="white"/>
<path d="M214.025 171.452C217.062 165.547 223.235 161.63 229.758 164.448C238.995 168.447 241.312 184.158 234.13 191.157C230.115 195.068 224.289 195.705 219.204 193.838C212.279 191.289 210.703 182.28 212.4 175.671C212.74 174.309 213.301 172.864 214.025 171.452Z" fill="#292954"/>
<path d="M218.676 173.798C218.879 173.435 219.105 173.117 219.352 172.869C220.878 171.298 223.069 172.403 223.344 174.754C223.498 176.039 223.355 177.489 222.531 178.44C221.669 179.434 220.417 179.593 219.319 179.115C218.457 178.742 217.979 178.017 217.897 176.929C217.82 175.935 218.16 174.732 218.676 173.798Z" fill="white"/>
<path d="M205.986 172.902C206.859 170.562 207.759 168.469 209.33 166.514C211.027 164.393 213.015 162.619 215.178 161.245C219.297 158.631 224.563 157.114 229.22 158.048C233.02 158.559 237.808 160.416 240.472 163.756C242.169 165.882 247.144 172.622 247.473 175.913C247.66 177.781 250.208 178.687 250.505 176.407C251.213 171.013 248.066 166.058 245.244 162.251C242.46 158.493 239 156.433 235.057 155.054C228.874 152.895 222.097 153.917 216.298 157.142C210.873 160.158 203.553 166.349 204.289 174.556C204.327 174.968 204.508 175.495 204.843 175.429C205.058 175.385 205.178 175.116 205.261 174.875C205.513 174.199 205.749 173.54 205.986 172.902Z" fill="#292954"/>
<path d="M215.178 141.612C218.973 139.31 224.239 140.574 228.198 141.497C235.826 143.271 243.646 146.77 249.752 152.681C251.565 154.434 252.613 155.939 254.953 154.769C255.749 154.373 255.991 153.384 255.436 152.56C252.251 147.831 248.05 145.996 243.887 143.068C239.428 139.937 234.497 137.783 229.418 136.723C226.76 136.168 224.228 136.245 221.559 136.19C218.803 136.13 215.947 136.547 213.465 138.085C211.532 139.288 213.24 142.793 215.178 141.612Z" fill="#272C4D"/>
<path d="M175.908 202.798C176.271 202.27 176.584 201.704 176.979 201.199C179.286 198.249 185.535 198.584 188.237 200.699C189.17 201.43 189.143 202.567 189.895 203.352C190.68 204.171 192.18 204.138 192.509 202.874C193.662 198.469 187.704 195.997 184.288 195.733C180.038 195.409 174.376 196.562 172.306 200.715C172.02 201.292 171.801 201.924 171.823 202.567C171.85 203.209 172.158 203.869 172.718 204.182C173.553 204.649 174.64 204.22 175.31 203.534C175.535 203.314 175.727 203.061 175.908 202.798Z" fill="#EA6F5B"/>
<path d="M254.942 196.041C260.098 196.293 265.057 198.859 262.641 204.852C261.828 206.868 260.12 208.412 258.236 209.505C246.419 216.366 232.778 205.198 247.858 197.315C249.637 196.387 252.317 195.909 254.942 196.041Z" fill="#EA6F5B"/>
<path d="M124.3 198.298C130.901 200.045 136.354 204.978 128.386 211.093C124.487 214.081 119.358 213.224 115.52 210.867C109.556 207.203 106.722 199.919 116.536 197.87C118.771 197.403 121.632 197.59 124.3 198.298Z" fill="#EA6F5B"/>
<path d="M221.62 249.733C217.924 251.244 214.019 252.04 210.038 252.408C207.226 252.688 204.387 252.749 201.537 252.721C199.214 252.705 196.864 252.634 194.558 252.546C185.716 252.205 178.067 253.567 169.462 254.644C168.352 254.792 167.172 254.88 165.958 254.941C164.228 255.029 162.422 255.012 160.588 254.913C155.503 254.6 150.324 253.491 146.288 251.332C138.435 247.102 132.565 238.625 133.01 229.704C133.603 217.619 143.806 212.219 154.141 212.631C156.123 212.702 158.105 212.988 160.027 213.488C167.348 215.383 174.64 217.954 182.18 217.866C191.202 217.745 200.401 213.724 209.467 212.362C213.503 211.757 217.528 211.68 221.488 212.73C227.935 214.443 233.717 219.371 235.716 225.628C236.04 226.666 236.276 227.727 236.381 228.836C237.281 237.944 230.082 246.272 221.62 249.733Z" fill="#D6503B"/>
<path d="M169.133 220.168C169.297 220.085 169.468 220.003 169.638 219.926C180.72 214.85 178.073 233.78 184.695 231.264C188.182 229.94 185.678 224.31 188.012 221.75C190.456 219.069 195.475 219.124 198.501 220.53C204.882 223.497 208.753 230.677 206.414 237.367C205.074 241.196 201.032 246.536 196.392 245.492C191 244.284 184.986 242.185 179.462 243.866C178.062 244.289 176.607 244.509 175.151 244.608C173.685 244.707 172.927 245.124 171.554 245.542C169.215 246.256 166.579 245.866 164.476 244.663C152.658 237.9 159.885 224.749 169.133 220.168Z" fill="#AA3327"/>
<path d="M209.467 212.362C209.303 215.037 207.424 217.036 204.915 218.503C196.205 223.607 181.192 224.507 171.466 222.81C166.53 221.953 158.617 219.585 155.508 215.46C154.712 214.411 154.278 213.46 154.146 212.636C156.129 212.708 158.111 212.993 160.033 213.493C167.353 215.388 174.646 217.959 182.186 217.871C191.203 217.751 200.401 213.724 209.467 212.362Z" fill="white"/>
<path d="M208.298 248.667C205.678 250.475 203.311 251.865 201.774 252.617C201.702 252.661 201.609 252.689 201.538 252.722C199.215 252.705 196.864 252.634 194.558 252.546C185.717 252.205 178.067 253.567 169.462 254.644C168.353 254.793 167.172 254.88 165.958 254.941C163.888 253.996 161.241 252.513 158.419 250.678C154.278 242.366 173.828 235.868 182.806 236.076C191.768 236.269 200.582 240.191 206.749 246.701C207.309 247.294 207.869 247.959 208.298 248.667Z" fill="#EA6F5B"/>
<path d="M211.999 247.525C212.01 249.392 211.411 251.216 210.044 252.414C204.942 252.919 199.709 252.738 194.558 252.546C185.717 252.205 178.067 253.567 169.462 254.644C166.744 254.985 163.696 255.089 160.577 254.908C147.452 254.161 156.98 233.725 162.796 243.668C165.426 248.162 165.613 249.662 170.742 250.414C174.448 250.958 178.364 251.008 182.103 251.084C186.738 251.183 191.884 251.815 196.365 250.31C198.248 249.678 200.527 248.75 201.708 247.041C203.081 245.058 201.664 242.773 204.212 241.317C208.721 238.746 211.971 243.229 211.999 247.525Z" fill="white"/>
<path d="M89.8577 215.663C80.0885 213.911 70.3192 212.158 60.5499 210.406C58.4906 210.038 56.4039 209.736 54.3665 209.236C52.9662 208.89 51.3243 208.318 50.5335 207.665C50.1381 207.34 50.0283 207.379 49.946 206.863C49.8306 206.17 50.0942 205.423 50.3303 204.764C51.0168 202.841 52.0821 200.979 53.12 199.227C60.5334 186.746 74.5311 180.928 83.9379 170.266C90.017 163.377 93.7786 154.005 91.3734 144.82C90.6265 141.958 86.3212 143.167 86.9582 146.04C88.8473 154.576 84.1027 162.525 78.1555 168.233C72.8727 173.298 66.6399 177.044 60.7696 181.346C54.3775 186.021 48.8477 191.355 44.8499 198.26C42.3787 202.523 40.3799 207.527 43.6857 211.944C46.0415 215.092 49.9569 216.476 53.6966 217.152C65.0584 219.212 76.4971 220.926 87.8863 222.81C89.8578 223.134 91.8786 222.293 92.4442 220.222C92.9384 218.426 91.8347 216.015 89.8577 215.663Z" fill="#272C4D"/>
<path d="M281.751 222.052C289.78 216.822 297.369 210.9 304.365 204.352C307.797 201.138 311.086 197.771 314.222 194.266C315.776 192.53 317.314 190.767 318.769 188.949C320.153 187.213 321.438 185.279 321.482 182.972C321.559 179.104 318.417 175.413 315.65 173.007C312.91 170.623 309.774 168.958 306.413 167.629C299.889 165.041 292.745 164.404 286.045 162.394C279.456 160.416 269.73 155.104 272.751 146.671C273.739 143.914 269.159 141.931 267.968 144.655C264.524 152.522 269.016 160.998 276.078 165.025C282.026 168.414 288.89 169.562 295.491 170.985C301.658 172.315 308.571 173.765 313.294 178.253C314.403 179.308 316.045 180.868 316.303 182.461C316.622 184.466 314.398 186.449 313.245 187.866C310.274 191.52 307.138 195.035 303.86 198.408C296.523 205.945 288.451 212.73 279.769 218.668C277.704 220.074 279.615 223.442 281.751 222.052Z" fill="#272C4D"/>
</svg>
