<svg width="379" height="358" viewBox="0 0 379 358" fill="none" xmlns="http://www.w3.org/2000/svg">
<g filter="url(#filter0_d_676_196)">
<path d="M216.799 297.171C215.036 304.983 213.268 312.794 211.505 320.606C210.648 324.391 209.792 328.181 208.941 331.966C208.051 335.905 206.579 340.047 206.299 344.074C206.069 347.392 210.742 347.578 211.758 344.815C212.417 343.019 212.603 340.986 212.96 339.113C213.323 337.201 213.718 335.301 214.103 333.394C214.899 329.467 215.701 325.539 216.497 321.606C218.067 313.865 219.643 306.131 221.214 298.39C221.796 295.523 217.452 294.281 216.799 297.171Z" fill="#272C4D"/>
<path d="M180.764 8.04247C183.103 4.68051 185.849 1.09881 189.846 0.214376C196.672 -1.3018 202.191 5.6034 205.579 11.723C220.626 38.9154 229.61 68.5687 240.543 97.5409C241.889 101.101 243.3 104.765 245.963 107.484C249.516 111.11 254.728 112.477 259.687 113.554C274.766 116.828 290.076 118.828 305.331 121.119C316.545 122.805 327.588 125.513 338.846 126.92C348.67 128.145 358.758 129.48 367.017 135.704C371.712 139.241 375.128 145.108 374.079 150.893C373.458 154.304 371.415 157.26 369.373 160.056C353.453 181.865 332.657 201.553 309.291 215.369C303.887 218.56 298.215 221.538 293.909 226.108C285.343 235.189 288.736 247.703 292.07 258.432C299.115 281.136 311.18 316.03 294.656 337.185C292.613 339.8 289.961 342.294 286.661 342.662C283.942 342.969 281.301 341.777 278.846 340.574C259.632 331.175 241.664 319.232 225.563 305.153C215.513 296.363 205.491 286.371 192.477 283.399C185.382 281.778 177.93 282.427 170.846 284.097C155.937 287.612 142.378 295.517 130.248 304.873C118.117 314.228 107.228 325.072 95.8932 335.383C93.4276 337.624 90.8686 339.888 87.7604 341.091C78.5293 344.65 73.4826 337.3 72.5491 329.263C68.8314 297.22 67.9802 259.657 81.8955 230.025C85.0092 223.389 88.6171 216.363 87.4804 209.117C85.9647 199.476 76.7885 193.236 68.447 188.182C50.2264 177.146 32.0058 166.104 13.7851 155.068C9.89171 152.706 5.64137 149.871 4.68585 145.416C2.90114 137.104 13.1647 131.809 21.3909 129.666C51.6103 121.789 98.7653 120.586 123.993 100.469C149.341 80.2257 162.164 34.7349 180.764 8.04247Z" fill="#FFCA6C"/>
<path d="M158.397 167.175C157.348 165.67 156.03 164.269 154.476 163.028C152.032 161.067 148.82 159.556 145.388 158.748C142.631 158.1 138.65 157.644 135.843 158.281C126.848 160.33 121.599 166.736 120.347 173.322C119.287 178.904 120.336 185.183 126.184 189.319C132.312 193.648 141.198 194.373 148.941 192.329C152.537 191.379 155.475 189.456 157.513 187.1C161.752 182.189 162.373 176.3 160.264 170.707C159.814 169.482 159.182 168.301 158.397 167.175Z" fill="white"/>
<path d="M152.554 170.114C149.66 165.099 143.773 161.77 137.562 164.165C128.759 167.56 126.552 180.909 133.399 186.853C137.221 190.176 142.779 190.72 147.622 189.127C154.223 186.962 155.722 179.31 154.108 173.69C153.778 172.542 153.245 171.312 152.554 170.114Z" fill="#292954"/>
<path d="M148.122 172.108C147.93 171.801 147.71 171.531 147.48 171.317C146.025 169.982 143.938 170.916 143.674 172.916C143.526 174.009 143.663 175.24 144.448 176.047C145.272 176.893 146.464 177.025 147.507 176.618C148.325 176.3 148.781 175.684 148.864 174.762C148.941 173.921 148.616 172.899 148.122 172.108Z" fill="white"/>
<path d="M160.214 171.35C159.38 169.362 158.523 167.587 157.029 165.923C155.409 164.121 153.515 162.616 151.455 161.451C147.529 159.232 142.51 157.941 138.073 158.737C134.448 159.171 129.885 160.748 127.348 163.582C125.734 165.39 120.989 171.114 120.676 173.91C120.5 175.498 118.073 176.267 117.787 174.333C117.112 169.752 120.11 165.544 122.801 162.308C125.453 159.116 128.754 157.364 132.51 156.199C138.402 154.365 144.86 155.233 150.39 157.974C155.563 160.534 162.537 165.796 161.834 172.767C161.801 173.119 161.626 173.564 161.302 173.509C161.098 173.471 160.983 173.245 160.901 173.042C160.67 172.449 160.445 171.889 160.214 171.35Z" fill="#292954"/>
<path d="M151.456 144.768C147.842 142.812 142.818 143.889 139.045 144.669C131.78 146.174 124.322 149.151 118.501 154.167C116.772 155.656 115.778 156.935 113.548 155.941C112.79 155.601 112.56 154.766 113.087 154.062C116.124 150.041 120.121 148.487 124.092 145.998C128.342 143.339 133.037 141.51 137.881 140.609C140.412 140.137 142.823 140.203 145.366 140.153C147.991 140.104 150.714 140.455 153.076 141.763C154.932 142.795 153.306 145.767 151.456 144.768Z" fill="#272C4D"/>
<path d="M211.702 167.142C211.817 166.994 211.938 166.851 212.059 166.714C213.092 165.571 214.865 166.181 216.26 166.494C221.757 167.725 227.216 169.175 232.784 170.043C238.352 170.916 244.074 171.196 249.599 170.087C249.928 170.021 250.642 172.976 250.691 173.218C251.773 178.711 250.702 184.897 244.717 188.968C238.445 193.23 229.341 193.945 221.411 191.928C217.732 190.995 214.717 189.099 212.636 186.776C208.298 181.936 207.655 176.14 209.819 170.636C210.28 169.466 210.9 168.17 211.702 167.142Z" fill="white"/>
<path d="M213.284 170.065C214.157 168.609 215.14 167.109 217.002 167.021C218.144 166.966 219.259 167.346 220.351 167.692C224.256 168.911 228.298 169.686 232.372 169.982C233.262 170.048 234.481 170.026 235.266 170.515C235.925 170.927 235.975 171.509 236.194 172.235C236.721 173.949 237.056 175.652 237.018 177.453C236.936 180.898 235.579 184.309 232.899 186.545C228.984 189.813 223.295 190.352 218.336 188.786C211.576 186.655 210.044 179.118 211.697 173.591C212.032 172.454 212.576 171.246 213.284 170.065Z" fill="#292954"/>
<path d="M217.82 172.026C218.018 171.724 218.243 171.46 218.479 171.251C219.973 169.938 222.103 170.861 222.378 172.828C222.526 173.905 222.389 175.119 221.582 175.91C220.741 176.739 219.517 176.877 218.446 176.476C217.606 176.162 217.139 175.558 217.057 174.646C216.985 173.811 217.315 172.806 217.82 172.026Z" fill="white"/>
<path d="M178.589 196.845C178.951 196.318 179.264 195.752 179.659 195.246C181.966 192.297 188.215 192.632 190.917 194.747C191.85 195.477 191.823 196.614 192.575 197.4C193.361 198.218 194.86 198.185 195.189 196.922C196.342 192.516 190.384 190.044 186.969 189.781C182.718 189.456 177.057 190.61 174.986 194.763C174.701 195.34 174.481 195.972 174.503 196.614C174.53 197.257 174.838 197.916 175.398 198.229C176.233 198.696 177.32 198.268 177.99 197.581C178.215 197.361 178.407 197.109 178.589 196.845Z" fill="#EA6F5B"/>
<path d="M257.627 190.083C262.784 190.335 267.742 192.901 265.326 198.894C264.513 200.91 262.806 202.454 260.922 203.547C249.104 210.408 235.464 199.24 250.543 191.357C252.322 190.429 254.997 189.956 257.627 190.083Z" fill="#EA6F5B"/>
<path d="M126.985 192.34C133.586 194.087 139.039 199.02 131.071 205.135C127.172 208.123 122.043 207.266 118.205 204.909C112.241 201.245 109.407 193.961 119.221 191.912C121.456 191.451 124.311 191.637 126.985 192.34Z" fill="#EA6F5B"/>
<path d="M222.762 227.158C219.511 234.936 212.191 241.935 204.042 246.39C201.054 248.033 197.946 249.318 194.887 250.191C194.8 250.219 194.712 250.252 194.618 250.263C193.526 250.559 192.444 250.812 191.378 250.988C191.038 251.048 190.67 251.092 190.269 251.12C185.64 251.521 177.507 250.175 171.637 247.022C171.593 247.005 171.549 246.994 171.505 246.961C166.919 244.489 163.756 240.924 164.789 236.238C165.261 234.096 166.606 232.316 168.336 230.943C169.654 229.904 171.203 229.091 172.79 228.558C180.956 225.762 190.209 226.515 198.226 223.175C200.846 222.065 204.838 218.517 208.978 215.825C213.723 212.748 218.682 210.793 221.977 215.028C224.629 218.445 224.613 222.73 222.762 227.158Z" fill="#D6503B"/>
<path d="M204.041 246.39C201.054 248.032 197.946 249.318 194.887 250.191C194.799 250.219 194.711 250.252 194.618 250.263C193.525 250.559 192.443 250.812 191.378 250.988C191.037 251.048 190.67 251.092 190.269 251.12C185.639 251.521 177.507 250.175 171.636 247.022C171.977 246.088 173.575 245.407 174.459 245.099C176.573 244.33 178.852 244.05 181.081 243.868C189.665 243.176 200.966 244.687 204.041 246.39Z" fill="#EA6F5B"/>
<path d="M207.09 224.224C203.246 227.938 196.381 230.514 192.955 231.102C185.959 232.299 177.903 231.75 170.907 231.267C170.27 231.223 169.369 231.118 168.348 230.943C169.666 229.904 171.214 229.091 172.801 228.558C180.967 225.762 190.22 226.515 198.238 223.175C200.857 222.065 204.849 218.516 208.99 215.825C210.829 218.928 209.599 221.813 207.09 224.224Z" fill="white"/>
<path d="M204.81 162.693C218.764 172.317 240.532 174.553 256.814 171.273C258.978 170.839 258.05 167.582 255.903 167.972C240.587 170.768 219.511 168.928 206.255 160.215C204.701 159.199 203.306 161.654 204.81 162.693Z" fill="#292954"/>
<path d="M210.714 133.067C211.681 135.923 214.893 137.939 217.293 139.472C221.911 142.416 227.359 144.707 232.932 145.114C234.591 145.235 235.75 145.086 236.452 146.74C236.694 147.3 236.403 147.849 235.771 147.937C232.175 148.448 229.27 147.196 225.931 146.443C222.35 145.636 218.946 144.169 215.914 142.147C214.333 141.093 213.075 139.824 211.691 138.549C210.264 137.231 208.984 135.654 208.369 133.775C207.886 132.298 210.22 131.605 210.714 133.067Z" fill="#272C4D"/>
<path d="M162.274 289.991C162.757 306.658 165.777 323.254 171.346 338.97C172.021 340.882 172.735 342.783 173.487 344.667C174.174 346.386 174.772 349.248 176.837 349.809C178.155 350.16 179.204 349.298 179.479 348.045C179.901 346.123 178.397 343.859 177.716 342.107C174.695 334.334 172.301 326.319 170.549 318.167C168.556 308.894 167.452 299.473 167.178 289.991C167.09 286.843 162.18 286.827 162.274 289.991Z" fill="#272C4D"/>
<path d="M266.2 225.372C275.991 247.807 280.84 272.346 280.466 296.819C280.362 303.801 279.84 310.778 278.874 317.694C278.704 318.897 279.17 320.078 280.433 320.446C281.477 320.749 283.014 320.078 283.185 318.886C286.705 293.721 284.849 267.93 277.589 243.561C275.513 236.595 272.976 229.783 270.066 223.12C268.907 220.483 265.057 222.757 266.2 225.372Z" fill="#272C4D"/>
<path d="M100.72 214.363C91.3133 185.062 90.9343 152.557 100.555 123.234C101.407 120.63 102.746 116.806 105.635 115.806C107.184 115.274 110.61 116.922 109.281 118.767C107.475 121.272 111.637 123.684 113.422 121.19C115.322 118.526 114.273 115.109 111.956 113.076C109.457 110.89 106.118 110.28 103.114 111.769C99.8415 113.389 97.9963 116.751 96.7278 120.014C95.2067 123.931 94.1908 128.101 93.2243 132.182C89.1002 149.574 88.0239 167.708 90.0887 185.463C91.2748 195.669 93.4385 205.722 96.6235 215.495C97.4637 218.083 101.56 216.984 100.72 214.363Z" fill="#272C4D"/>
</g>
<defs>
<filter id="filter0_d_676_196" x="0.481445" y="0.00238037" width="377.788" height="357.885" filterUnits="userSpaceOnUse" color-interpolation-filters="sRGB">
<feFlood flood-opacity="0" result="BackgroundImageFix"/>
<feColorMatrix in="SourceAlpha" type="matrix" values="0 0 0 0 0 0 0 0 0 0 0 0 0 0 0 0 0 0 127 0" result="hardAlpha"/>
<feOffset dy="4"/>
<feGaussianBlur stdDeviation="2"/>
<feComposite in2="hardAlpha" operator="out"/>
<feColorMatrix type="matrix" values="0 0 0 0 0 0 0 0 0 0 0 0 0 0 0 0 0 0 0.25 0"/>
<feBlend mode="normal" in2="BackgroundImageFix" result="effect1_dropShadow_676_196"/>
<feBlend mode="normal" in="SourceGraphic" in2="effect1_dropShadow_676_196" result="shape"/>
</filter>
</defs>
</svg>
