<svg width="50" height="50" viewBox="0 0 50 50" fill="none" xmlns="http://www.w3.org/2000/svg">
<path fill-rule="evenodd" clip-rule="evenodd" d="M25.9798 3.87573C32.889 3.87573 36.8132 9.11872 40.8927 13.9066C43.9539 17.629 48.0374 20.1364 48.0374 25.229C48.0374 32.9028 44.7407 38.8299 38.3838 42.5542C35.0059 44.529 31.5529 47.8739 27.316 47.8739C19.4656 47.8739 9.65563 44.1496 5.73045 38.1458C3.61049 34.8795 2.27536 29.4085 2.27536 25.229C2.27536 17.7823 6.12236 10.943 12.0091 7.06733C15.5424 4.86262 21.5074 3.87573 25.9798 3.87573ZM26.1362 2.73553C33.5946 2.73553 37.8316 8.43459 42.1507 13.6019C45.4464 17.5533 49.8407 20.2131 49.8407 25.6841C49.8407 33.9673 46.2302 40.2738 39.4814 44.3009C35.871 46.43 32.1021 50 27.5515 50C19.1518 50 8.63423 45.9729 4.39532 39.5897C2.11899 36.0177 0.705688 30.1673 0.705688 25.6841C0.705688 17.7066 4.78824 10.3336 11.2243 6.23085C14.9129 3.80004 21.351 2.73553 26.1362 2.73553Z" fill="#563429"/>
<path fill-rule="evenodd" clip-rule="evenodd" d="M25.7442 1.14023C32.7326 1.14023 36.7339 6.45987 40.8926 11.3981C44.035 15.1215 48.1156 17.629 48.1156 22.8729C48.1156 30.7 44.7406 36.6272 38.3056 40.5029C34.9277 42.4776 31.3172 45.8206 27.0803 45.8206C19.0736 45.8206 9.10528 42.0982 5.18009 36.0177C2.98295 32.6757 1.64783 27.1281 1.64783 22.8729C1.64783 15.2739 5.49482 8.28321 11.538 4.4075C15.0702 2.1271 21.1134 1.14023 25.7442 1.14023Z" fill="#C3854B"/>
<path fill-rule="evenodd" clip-rule="evenodd" d="M40.0306 19.4542C40.5799 19.0729 41.2886 18.8448 41.8369 18.4654C42.2288 18.086 42.5425 17.7066 42.8562 17.2495C43.0126 16.9458 43.3274 16.7178 43.5619 16.414C43.8756 15.957 44.5843 16.4897 44.9762 15.5019C45.3681 15.7299 45.6819 16.0336 45.9956 16.2607C45.2899 16.185 44.5843 16.3383 43.9538 16.6421C43.8756 16.7177 43.4837 17.4009 43.0126 17.8579C41.6013 18.9972 42.0724 18.7691 40.0306 19.4542Z" fill="#9A6D45"/>
<path fill-rule="evenodd" clip-rule="evenodd" d="M40.0306 19.4542C40.5799 19.0729 41.2094 18.7691 41.6795 18.3131C42.1506 17.9336 42.4643 17.5532 42.7781 17.1729C42.9344 16.7934 43.2482 16.5654 43.4837 16.3383C43.7974 15.8056 44.5061 16.3383 44.898 15.4262C45.2117 15.6542 45.6037 15.8813 45.9174 16.1093C45.2118 16.0336 44.5061 16.185 43.8756 16.5654C43.7974 16.5654 43.4055 17.1729 42.9344 17.5533C41.5231 18.7691 42.0724 18.7691 40.0306 19.4542Z" fill="#632918"/>
<path fill-rule="evenodd" clip-rule="evenodd" d="M5.96489 20.7448C5.41661 21.2009 5.02269 21.8084 4.4744 22.1888C4.0033 22.4925 3.5322 22.7205 3.0611 22.9486C2.66918 23.0243 2.35544 23.2523 2.0397 23.4056C1.49142 23.6327 1.88333 24.3925 0.785767 24.5439C0.942132 24.9243 1.09951 25.3047 1.33406 25.6841C1.41324 24.9243 1.72698 24.3159 2.19708 23.7851C2.27526 23.7851 3.0611 23.557 3.61038 23.1757C5.10187 22.1888 4.78814 22.5692 5.96489 20.7448Z" fill="#9A6D45"/>
<path fill-rule="evenodd" clip-rule="evenodd" d="M5.96499 20.7449C5.41671 21.201 4.9446 21.6561 4.39532 22.1131C3.92522 22.4169 3.45311 22.6449 2.98301 22.8729C2.5911 22.8729 2.27536 23.1757 1.96163 23.2524C1.33416 23.4814 1.72708 24.2402 0.705688 24.3926C0.864059 24.772 1.02042 25.1534 1.17779 25.5328C1.33416 24.8477 1.64789 24.2402 2.11899 23.7094C2.11899 23.6328 2.82565 23.4057 3.37493 23.0243C4.86642 21.9598 4.78824 22.4926 5.96499 20.7449Z" fill="#632918"/>
<path fill-rule="evenodd" clip-rule="evenodd" d="M13.5788 37.3103L13.8134 43.0093L11.1461 41.5654L13.5788 37.3103Z" fill="#9A6D45"/>
<path fill-rule="evenodd" clip-rule="evenodd" d="M13.5787 37.2346L12.8731 42.4775L10.0475 40.9579L13.5787 37.2346Z" fill="#632918"/>
<path fill-rule="evenodd" clip-rule="evenodd" d="M22.213 5.09155L22.6049 0.760743L20.3296 1.14015L21.5073 3.11489L22.213 5.09155Z" fill="#9A6D45"/>
<path fill-rule="evenodd" clip-rule="evenodd" d="M22.2129 5.09155L22.1348 0.836435L19.8574 1.14015L21.0352 3.11489L22.2129 5.09155Z" fill="#632918"/>
<path fill-rule="evenodd" clip-rule="evenodd" d="M36.8914 34.271C37.2833 34.8037 37.9107 35.2588 38.2265 35.7906C38.462 36.2467 38.6194 36.7785 38.854 37.2345C38.854 37.6149 39.0895 37.9953 39.1677 38.2981C39.325 38.8298 40.1089 38.6018 40.1871 39.5897C40.58 39.514 40.9709 39.3626 41.3668 39.2869C40.6582 39.0589 40.1089 38.6775 39.5596 38.2224C39.5596 38.1457 39.4814 37.3102 39.1677 36.7785C38.2265 35.2588 38.6194 35.5626 36.8914 34.271Z" fill="#9A6D45"/>
<path fill-rule="evenodd" clip-rule="evenodd" d="M36.8914 34.1953C37.2833 34.8037 37.7534 35.3345 38.0671 35.942C38.3057 36.3234 38.5402 36.8551 38.6976 37.3859C38.6976 37.6906 38.9321 38.07 39.0113 38.3747C39.1677 38.9812 40.0307 38.6775 40.0307 39.742C40.4226 39.5897 40.8145 39.514 41.2095 39.3626C40.5008 39.1346 39.9525 38.8298 39.4814 38.2981C39.4032 38.2224 39.2469 37.5383 38.9321 37.0065C38.0671 35.4112 38.6194 35.5626 36.8914 34.1953Z" fill="#632918"/>
<path fill-rule="evenodd" clip-rule="evenodd" d="M25.7442 1.14017C32.7326 1.14017 36.7339 6.45981 40.8927 11.3981C44.035 15.1215 48.1156 17.6289 48.1156 22.8729C48.1156 30.7 44.7407 36.6271 38.3056 40.5028C34.9277 42.4775 31.3173 45.8205 27.0804 45.8205C19.0736 45.8205 9.10531 42.0981 5.18013 36.0177C2.98299 32.6757 1.64786 27.128 1.64786 22.8729C1.64786 15.2738 5.49486 8.28315 11.538 4.40744C15.0703 2.12704 21.1134 1.14017 25.7442 1.14017ZM25.9016 -3.05574e-05C33.4382 -3.05574e-05 37.7533 5.77473 42.1506 11.0187C45.5255 15.0458 50 17.7823 50 23.328C50 31.7626 46.3094 38.1458 39.4032 42.2505C35.7928 44.3776 31.9448 48.0252 27.3941 48.0252C18.8381 48.0252 8.08392 43.9972 3.847 37.4616C1.49149 33.8906 0 27.8878 0 23.328C0 15.1981 4.23892 7.75043 10.675 3.57196C14.521 1.06449 20.957 -3.05574e-05 25.9016 -3.05574e-05Z" fill="#7E3824"/>
<path fill-rule="evenodd" clip-rule="evenodd" d="M27.6497 28.5671C27.6497 26.9155 29.0711 25.6084 30.774 25.6084C30.9164 25.6084 31.0597 25.6084 31.201 25.6084C31.4135 25.6783 31.5559 25.6084 31.7002 25.4716C31.8425 25.3338 31.9137 25.196 31.9137 25.0592V18.4557C31.9137 18.25 31.8425 18.1112 31.7002 18.0423C31.5559 17.9055 31.4135 17.8366 31.201 17.8366L22.5338 18.7992C22.2501 18.8681 22.0366 19.0739 22.0366 19.3495V29.9431C21.9654 31.5249 20.6153 32.832 18.9814 32.832C17.2755 32.832 15.9253 31.4569 15.9253 29.8742C15.9253 28.2236 17.2755 26.8476 18.9814 26.8476C19.1228 26.8476 19.2651 26.9155 19.4074 26.9155C19.6199 26.9155 19.7623 26.9155 19.9046 26.7787C20.0459 26.6409 20.1171 26.5041 20.1171 26.3663V15.6348L33.8292 14.122V28.636C33.8292 30.2178 32.4099 31.5249 30.774 31.5249C29.0711 31.5249 27.6497 30.2178 27.6497 28.5671Z" fill="white"/>
<path d="M28.8555 26.7098C28.3594 27.1911 28.0747 27.8112 28.0747 28.5671C28.0747 29.2551 28.3594 29.9431 28.8555 30.4244C29.3547 30.9057 29.9942 31.1813 30.774 31.1813C31.4837 31.1813 32.1262 30.9057 32.6233 30.4244C33.1195 29.9431 33.4743 29.3231 33.4743 28.636V14.5354L20.4739 15.9793V26.3663C20.4739 26.5041 20.4027 26.6409 20.4027 26.7098C20.3296 26.8476 20.2594 26.9844 20.1171 27.0533C20.0459 27.1222 19.9046 27.1911 19.7622 27.259C19.6199 27.259 19.4786 27.259 19.4074 27.259H19.1227C19.1227 27.259 19.0526 27.259 18.9814 27.259C18.1996 27.259 17.5591 27.5356 17.0619 28.0169C16.5658 28.4982 16.2801 29.1183 16.2801 29.8742C16.2801 30.5622 16.5658 31.2502 17.0619 31.7315C17.5591 32.143 18.1996 32.4884 18.9814 32.4884C19.6911 32.4884 20.3296 32.2128 20.8287 31.7315C21.3249 31.2502 21.6096 30.6302 21.6817 29.9431V19.3495C21.6817 19.1437 21.7519 18.937 21.8952 18.7992C22.0366 18.5935 22.2501 18.4557 22.5337 18.4557L31.201 17.4921C31.3433 17.4921 31.4837 17.4921 31.627 17.562C31.7723 17.562 31.8425 17.6309 31.9838 17.7677C32.055 17.8366 32.1262 17.9055 32.1963 18.0423C32.2685 18.1801 32.2685 18.3189 32.2685 18.4557V25.0592C32.2685 25.196 32.2685 25.3338 32.1963 25.4027C32.1262 25.5405 32.055 25.6783 31.9137 25.7462C31.8425 25.8151 31.7002 25.884 31.5558 25.9539C31.4135 25.9539 31.2712 26.0228 31.1298 25.9539C31.0597 25.9539 30.9163 25.9539 30.774 25.9539C29.9942 25.9539 29.3547 26.2295 28.8555 26.7098ZM27.2949 28.5671C27.2949 27.6045 27.7209 26.7787 28.2872 26.2295C28.9297 25.6084 29.7817 25.196 30.774 25.196C30.9163 25.196 31.0597 25.196 31.2712 25.2659H31.3433C31.4135 25.2659 31.4135 25.196 31.4135 25.196C31.4837 25.196 31.4837 25.1281 31.4837 25.1281V25.0592V18.4557C31.4837 18.3868 31.4837 18.3868 31.4837 18.3189L31.4135 18.25C31.3433 18.25 31.3433 18.25 31.2712 18.25L22.6049 19.2116C22.5337 19.2116 22.5337 19.2116 22.4616 19.2805L22.3914 19.3495V29.9431C22.3914 30.8368 21.9654 31.6626 21.3249 32.2817C20.7576 32.8319 19.9046 33.1755 18.9814 33.1755C17.9871 33.1755 17.1331 32.8319 16.5658 32.2128C15.9253 31.5937 15.4993 30.768 15.4993 29.8742C15.4993 28.9116 15.9253 28.0848 16.5658 27.4667C17.1331 26.9155 17.9871 26.5041 18.9814 26.5041C19.0526 26.5041 19.1228 26.5041 19.2651 26.5041L19.4786 26.572H19.5487C19.6199 26.572 19.6199 26.5041 19.6199 26.5041H19.6911V26.4352V26.3663V15.6348V15.3602L20.0459 15.2913L33.8292 13.7785L34.185 13.7096V14.122V28.636V28.7049C34.185 29.5297 33.759 30.3555 33.1917 30.9737C32.5522 31.5248 31.7002 31.8683 30.774 31.8683C29.7817 31.8683 28.9297 31.5248 28.2872 30.9057C27.7209 30.2866 27.2949 29.4608 27.2949 28.5671Z" fill="#563429"/>
</svg>
