<svg width="50" height="50" viewBox="0 0 50 50" fill="none" xmlns="http://www.w3.org/2000/svg">
<path fill-rule="evenodd" clip-rule="evenodd" d="M25.9797 3.87953C32.8889 3.87953 36.813 9.13133 40.8926 13.9264C43.9538 17.6553 48.0373 20.0907 48.0373 25.19C48.0373 32.953 44.7406 38.8122 38.3837 42.6179C35.0058 44.5966 31.5527 47.8688 27.3158 47.8688C19.4655 47.8688 9.65551 44.2166 5.73032 38.2038C3.61036 34.9297 2.27524 29.4505 2.27524 25.19C2.27524 17.8069 6.12224 10.8826 12.009 7.07881C15.5423 4.79499 21.5072 3.87953 25.9797 3.87953ZM26.1361 2.73956C33.5945 2.73956 37.8314 8.37039 42.1505 13.6232C45.4463 17.5027 49.8405 20.2423 49.8405 25.7225C49.8405 34.0172 46.2301 40.3341 39.4813 44.3682C35.8709 46.4975 32.102 50 27.5514 50C19.1517 50 8.63411 46.0417 4.39519 39.649C2.11887 36.0726 0.705566 30.2134 0.705566 25.7225C0.705566 17.7311 4.78811 10.35 11.2242 6.24012C14.9128 3.80373 21.3509 2.73956 26.1361 2.73956Z" fill="#563429"/>
<path fill-rule="evenodd" clip-rule="evenodd" d="M25.7443 1.13994C32.7327 1.13994 36.734 6.46756 40.8928 11.4152C44.0351 15.1432 48.1157 17.6553 48.1157 22.8304C48.1157 30.746 44.7408 36.681 38.3057 40.4857C34.9278 42.5412 31.3174 45.8892 27.0805 45.8892C19.0737 45.8892 9.1054 42.1612 5.18021 36.0726C2.98307 32.7256 1.64795 27.0938 1.64795 22.8304C1.64795 15.2948 5.49494 8.29461 11.5381 4.41504C15.0703 2.13122 21.1135 1.13994 25.7443 1.13994Z" fill="#C3854B"/>
<path fill-rule="evenodd" clip-rule="evenodd" d="M40.0305 19.4824C40.5798 19.1015 41.2885 18.8741 41.8367 18.4173C42.2287 18.1112 42.5424 17.6554 42.8561 17.2744C43.0125 16.9712 43.3272 16.7428 43.5618 16.4386C43.8755 15.9819 44.5842 16.5144 44.9761 15.5261C45.368 15.7545 45.6817 15.9819 45.9955 16.287C45.2898 16.2102 44.5842 16.3628 43.9537 16.666C43.8755 16.7428 43.4836 17.427 43.0125 17.807C41.6012 19.0257 42.0723 18.7982 40.0305 19.4824Z" fill="#9A6D45"/>
<path fill-rule="evenodd" clip-rule="evenodd" d="M40.0305 19.4824C40.5798 19.1015 41.2093 18.7224 41.6794 18.3415C42.1505 17.9586 42.4642 17.5786 42.7779 17.1986C42.9343 16.8186 43.248 16.5902 43.4836 16.287C43.7973 15.8303 44.506 16.3628 44.8979 15.3706C45.2116 15.6787 45.6036 15.9061 45.9173 16.1344C45.2116 16.0577 44.506 16.2103 43.8755 16.5144C43.7973 16.5902 43.4054 17.1986 42.9343 17.5786C41.523 18.7224 42.0723 18.7982 40.0305 19.4824Z" fill="#632918"/>
<path fill-rule="evenodd" clip-rule="evenodd" d="M5.96477 20.7749C5.41648 21.2336 5.02256 21.842 4.47428 22.222C4.00318 22.5262 3.53208 22.7545 3.06098 22.9819C2.66906 23.0587 2.35532 23.2871 2.03958 23.4387C1.4913 23.5903 1.88321 24.43 0.785645 24.5816C0.94201 24.9626 1.09939 25.3416 1.33394 25.6467C1.41312 24.9626 1.72685 24.3542 2.19695 23.8187C2.27514 23.7429 3.06097 23.5903 3.61026 23.2103C5.10175 22.1462 4.78801 22.5262 5.96477 20.7749Z" fill="#9A6D45"/>
<path fill-rule="evenodd" clip-rule="evenodd" d="M5.96487 20.7749C5.41659 21.2336 4.94448 21.6894 4.39519 22.0704C3.92509 22.3736 3.45299 22.602 2.98289 22.8303C2.59097 22.9061 2.27524 23.1345 1.96151 23.2871C1.33404 23.5145 1.72696 24.2774 0.705566 24.43C0.863937 24.809 1.0203 25.19 1.17767 25.5699C1.33403 24.8858 1.64777 24.2774 2.11887 23.7429C2.11887 23.6671 2.82553 23.4387 3.37481 23.0587C4.8663 21.9946 4.78812 22.5262 5.96487 20.7749Z" fill="#632918"/>
<path fill-rule="evenodd" clip-rule="evenodd" d="M13.5787 37.3652L13.8132 42.997L11.146 41.5529L13.5787 37.3652Z" fill="#9A6D45"/>
<path fill-rule="evenodd" clip-rule="evenodd" d="M13.5786 37.2894L12.873 42.5412L10.0474 41.0174L13.5786 37.2894Z" fill="#632918"/>
<path fill-rule="evenodd" clip-rule="evenodd" d="M22.213 5.09918L22.6049 0.684133L20.3296 1.13992L21.5073 3.11955L22.213 5.09918Z" fill="#9A6D45"/>
<path fill-rule="evenodd" clip-rule="evenodd" d="M22.2129 5.09918L22.1348 0.759939L19.8574 1.13992L21.0352 3.11955L22.2129 5.09918Z" fill="#632918"/>
<path fill-rule="evenodd" clip-rule="evenodd" d="M36.8914 34.2456C37.2833 34.8539 37.9107 35.2339 38.2265 35.8452C38.462 36.301 38.6194 36.8336 38.854 37.2894C38.854 37.6703 39.0895 37.9735 39.1677 38.3565C39.325 38.889 40.1089 38.6606 40.1871 39.649C40.58 39.5732 40.9709 39.4206 41.3668 39.3448C40.6582 39.1174 40.1089 38.7364 39.5596 38.2806C39.5596 38.2039 39.4814 37.3652 39.1677 36.8336C38.2265 35.2339 38.6194 35.6168 36.8914 34.2456Z" fill="#9A6D45"/>
<path fill-rule="evenodd" clip-rule="evenodd" d="M36.8914 34.2456C37.2833 34.854 37.7534 35.3885 38.0671 35.9211C38.3057 36.3778 38.5402 36.9094 38.6976 37.3652C38.6976 37.7462 38.9321 38.0494 39.0113 38.4333C39.1677 38.9649 40.0307 38.7365 40.0307 39.7258C40.4226 39.6491 40.8145 39.4974 41.2095 39.4207C40.5008 39.1933 39.9525 38.8123 39.4814 38.3565C39.4032 38.2807 39.2469 37.5946 38.9321 37.062C38.0671 35.4643 38.6194 35.6169 36.8914 34.2456Z" fill="#632918"/>
<path fill-rule="evenodd" clip-rule="evenodd" d="M25.7442 1.14C32.7326 1.14 36.7339 6.46762 40.8927 11.4152C44.035 15.1432 48.1156 17.6554 48.1156 22.8304C48.1156 30.746 44.7407 36.681 38.3056 40.4858C34.9277 42.5412 31.3173 45.8892 27.0804 45.8892C19.0736 45.8892 9.10531 42.1612 5.18013 36.0727C2.98299 32.7257 1.64786 27.0939 1.64786 22.8304C1.64786 15.2948 5.49486 8.29467 11.538 4.4151C15.0703 2.13128 21.1134 1.14 25.7442 1.14ZM25.9016 3.84603e-05C33.4382 3.84603e-05 37.7533 5.78344 42.1506 11.0343C45.5255 15.0674 50 17.807 50 23.363C50 31.7334 46.3094 38.2039 39.4032 42.3128C35.7928 44.4441 31.9448 48.0963 27.3941 48.0963C18.8381 48.0963 8.08392 44.0651 3.847 37.5168C1.49149 33.8656 0 27.9297 0 23.363C0 15.219 4.23892 7.6863 10.675 3.5006C14.521 1.0642 20.957 3.84603e-05 25.9016 3.84603e-05Z" fill="#7E3824"/>
<path fill-rule="evenodd" clip-rule="evenodd" d="M34.8495 26.7099C34.3784 26.7099 34.0657 26.3309 34.0657 25.95C34.0657 25.57 34.3784 25.19 34.8495 25.19C35.2414 25.19 35.6364 25.57 35.6364 25.95C35.6364 26.3309 35.2414 26.7099 34.8495 26.7099ZM33.2809 25.19C32.8108 25.19 32.497 24.809 32.497 24.43C32.497 23.9732 32.8108 23.6671 33.2809 23.6671C33.6728 23.6671 33.9865 23.9732 33.9865 24.43C33.9865 24.809 33.6728 25.19 33.2809 25.19ZM33.2809 28.2338C32.8108 28.2338 32.497 27.9296 32.497 27.4728C32.497 27.0938 32.8108 26.7099 33.2809 26.7099C33.6728 26.7099 33.9865 27.0938 33.9865 27.4728C33.9865 27.9296 33.6728 28.2338 33.2809 28.2338ZM31.7102 26.7099C31.2391 26.7099 30.9263 26.3309 30.9263 25.95C30.9263 25.57 31.2391 25.19 31.7102 25.19C32.1021 25.19 32.4188 25.57 32.4188 25.95C32.4188 26.3309 32.1021 26.7099 31.7102 26.7099ZM20.094 26.4067C20.094 26.7099 19.8574 26.9412 19.5437 26.9412H18.2878V28.2338C18.2878 28.4622 18.0522 28.7663 17.7395 28.7663H16.6399C16.4044 28.7663 16.0906 28.4622 16.0906 28.2338V26.9412H14.8347C14.521 26.9412 14.2864 26.7099 14.2864 26.4067V25.4174C14.2864 25.1142 14.521 24.8858 14.8347 24.8858H16.0906V23.6671C16.0906 23.3629 16.4044 23.1345 16.6399 23.1345H17.7395C18.0522 23.1345 18.2878 23.3629 18.2878 23.6671V24.8858H19.5437C19.8574 24.8858 20.094 25.1142 20.094 25.4174V26.4067ZM32.3377 20.8507C32.1803 20.8507 32.1021 20.8507 31.9447 20.8507C31.8665 20.8507 31.7884 20.8507 31.7102 20.8507H24.9604C25.1959 19.254 28.0997 19.5582 29.2755 19.3308C30.2989 19.1782 31.2391 18.7224 32.1021 18.1869C33.6728 17.1986 34.1439 15.4473 33.9083 13.699C33.8301 13.0906 32.8889 13.0906 32.9671 13.699C33.4382 17.1986 30.3771 18.3414 27.3159 18.6456C25.666 18.7982 24.1745 19.0256 24.0182 20.8507H17.7395C17.6603 20.8507 17.6603 20.8507 17.6603 20.8507C17.5821 20.8507 17.5039 20.8507 17.4257 20.8507C14.5209 20.8507 12.2446 23.0587 12.2446 25.8742C12.2446 28.6896 14.5209 30.8976 17.4257 30.8976C18.9162 30.8976 20.2514 30.2892 21.1926 29.2979H28.5698C29.514 30.2892 30.8472 30.8976 32.3377 30.8976C35.1623 30.8976 37.5188 28.6896 37.5188 25.8742C37.5188 23.0587 35.1623 20.8507 32.3377 20.8507Z" fill="white"/>
<path d="M34.6141 26.1784C34.6141 26.2551 34.7714 26.3309 34.8496 26.3309C34.9278 26.3309 35.006 26.2551 35.0842 26.1784C35.1624 26.1016 35.1624 26.0258 35.1624 25.95C35.1624 25.8742 35.1624 25.7984 35.0842 25.7226C35.006 25.6468 34.9278 25.6468 34.8496 25.6468C34.7714 25.6468 34.6141 25.6468 34.6141 25.7226C34.5359 25.7984 34.4567 25.8742 34.4567 25.95C34.4567 26.0258 34.5359 26.1016 34.6141 26.1784ZM32.9672 24.6574C33.0454 24.7332 33.1236 24.7332 33.281 24.7332C33.3591 24.7332 33.4383 24.7332 33.5165 24.6574C33.5947 24.5816 33.5947 24.5058 33.5947 24.43C33.5947 24.3542 33.5947 24.2017 33.5165 24.2017C33.4383 24.1258 33.3591 24.0491 33.281 24.0491C33.1236 24.0491 33.0454 24.1258 32.9672 24.2017C32.9672 24.2775 32.889 24.3542 32.889 24.43C32.889 24.5058 32.9672 24.5816 32.9672 24.6574ZM32.9672 27.7022C33.0454 27.778 33.1236 27.8538 33.281 27.8538C33.3591 27.8538 33.4383 27.778 33.5165 27.7022C33.5947 27.7022 33.5947 27.5496 33.5947 27.4729C33.5947 27.3971 33.5947 27.3212 33.5165 27.2454C33.4383 27.1696 33.3591 27.1696 33.281 27.1696C33.1236 27.1696 33.0454 27.1696 32.9672 27.2454C32.9672 27.3212 32.889 27.3971 32.889 27.4729C32.889 27.5496 32.9672 27.7022 32.9672 27.7022ZM32.7327 25.4174C32.8109 25.57 32.889 25.7984 32.889 25.95C32.889 26.1016 32.8109 26.3309 32.7327 26.4826C32.889 26.4067 33.0454 26.3309 33.281 26.3309C33.4383 26.3309 33.5947 26.4067 33.751 26.4826C33.6729 26.3309 33.6729 26.1016 33.6729 25.95C33.6729 25.7984 33.6729 25.57 33.751 25.4174C33.5947 25.4942 33.4383 25.57 33.281 25.57C33.0454 25.57 32.889 25.4942 32.7327 25.4174ZM31.3965 26.1784C31.4747 26.2551 31.5529 26.3309 31.7103 26.3309C31.7885 26.3309 31.8666 26.2551 31.9448 26.1784C32.023 26.1016 32.023 26.0258 32.023 25.95C32.023 25.8742 32.023 25.7984 31.9448 25.7226C31.8666 25.6468 31.7885 25.6468 31.7103 25.6468C31.5529 25.6468 31.4747 25.6468 31.3965 25.7226C31.3965 25.7984 31.3173 25.8742 31.3173 25.95C31.3173 26.0258 31.3965 26.1016 31.3965 26.1784ZM31.7103 27.0938C31.3174 27.0938 31.0828 26.9413 30.8473 26.7858C30.6117 26.5584 30.4553 26.2551 30.4553 25.95C30.4553 25.6468 30.6117 25.3416 30.8473 25.1142C31.0828 24.9626 31.3174 24.809 31.7103 24.809C31.8666 24.809 32.023 24.8091 32.1804 24.8858C32.1022 24.7332 32.1022 24.5816 32.1022 24.43C32.1022 24.1258 32.1804 23.8187 32.4189 23.5904C32.6535 23.363 32.9672 23.2871 33.281 23.2871C33.5947 23.2871 33.9084 23.363 34.0658 23.5904C34.3003 23.8187 34.4567 24.1258 34.4567 24.43C34.4567 24.5816 34.3785 24.7332 34.3003 24.8858C34.4567 24.8091 34.6141 24.809 34.8496 24.809C35.1623 24.809 35.4801 24.9626 35.6365 25.1142C35.871 25.3416 36.0284 25.6468 36.0284 25.95C36.0284 26.2551 35.871 26.5584 35.6365 26.7858C35.4801 26.9413 35.1623 27.0938 34.8496 27.0938C34.6141 27.0938 34.4567 27.0938 34.3003 27.018C34.3785 27.1696 34.4567 27.3213 34.4567 27.4729C34.4567 27.778 34.3003 28.0812 34.0658 28.3096C33.9084 28.538 33.5947 28.6138 33.281 28.6138C32.9672 28.6138 32.6535 28.538 32.4189 28.3096C32.1804 28.0812 32.1022 27.778 32.1022 27.4729C32.1022 27.3213 32.1022 27.1696 32.1804 27.018C32.023 27.0938 31.8666 27.0938 31.7103 27.0938ZM19.622 26.5584C19.7012 26.4826 19.7012 26.4825 19.7012 26.4067V25.4174C19.7012 25.3416 19.7012 25.3416 19.622 25.3416C19.622 25.2658 19.5438 25.2658 19.5438 25.2658H18.2879H17.896V24.8858V23.6671C17.896 23.5904 17.8178 23.5904 17.8178 23.5904C17.8178 23.5146 17.7396 23.5146 17.7396 23.5146H16.64C16.64 23.5146 16.5618 23.5146 16.5618 23.5904C16.5618 23.5904 16.5618 23.5904 16.5618 23.6671V24.8858V25.2658H16.0907H14.8348C14.8348 25.2658 14.7566 25.2658 14.7566 25.3416C14.7566 25.3416 14.7566 25.3416 14.7566 25.4174V26.4067C14.7566 26.4825 14.7566 26.4826 14.7566 26.5584H14.8348H16.0907H16.5618V26.9413V28.2338C16.5618 28.2338 16.5618 28.2338 16.5618 28.3096H16.64H17.7396H17.8178C17.8178 28.2338 17.896 28.2338 17.896 28.2338V26.9413V26.5584H18.2879H19.5438H19.622ZM20.487 26.4067C20.487 26.71 20.4078 26.9413 20.2515 27.0938C20.0159 27.2454 19.7794 27.3971 19.5438 27.3971H18.6818V28.2338C18.6818 28.4622 18.6026 28.6896 18.4462 28.8422C18.2097 28.9948 17.9741 29.1464 17.7396 29.1464H16.64C16.4045 29.1464 16.1699 28.9948 16.0125 28.8422C15.777 28.6896 15.6988 28.4622 15.6988 28.2338V27.3971H14.8348C14.6002 27.3971 14.3647 27.2454 14.2073 27.0938C13.9708 26.9413 13.8926 26.71 13.8926 26.4067V25.4174C13.8926 25.19 13.9708 24.8858 14.2073 24.7332C14.3647 24.5816 14.6002 24.5058 14.8348 24.5058H15.6988V23.6671C15.6988 23.363 15.777 23.1346 16.0125 22.982C16.1699 22.8304 16.4045 22.6788 16.64 22.6788H17.7396C17.9741 22.6788 18.2097 22.8304 18.4462 22.982C18.6026 23.1346 18.6818 23.363 18.6818 23.6671V24.5058H19.5438C19.7794 24.5058 20.0159 24.5816 20.2515 24.7332C20.4078 24.8858 20.487 25.19 20.487 25.4174V26.4067ZM31.9448 20.4698C32.1022 20.4698 32.1804 20.4698 32.3378 20.4698C33.9084 20.4698 35.2415 21.0782 36.2639 22.0704C37.2833 22.982 37.9108 24.3542 37.9108 25.8742C37.9108 27.397 37.2833 28.7664 36.2639 29.7567C35.2415 30.746 33.9084 31.3544 32.3378 31.3544C31.5529 31.3544 30.7691 31.125 30.0624 30.8976C29.4349 30.5934 28.8847 30.2134 28.3354 29.6789H21.4292C20.8789 30.2134 20.3296 30.5934 19.622 30.8976C18.9945 31.125 18.2097 31.3544 17.4258 31.3544C15.8562 31.3544 14.4429 30.746 13.5007 29.7567H13.4215C12.4793 28.7664 11.8518 27.397 11.8518 25.8742C11.8518 24.3542 12.4793 22.982 13.4215 22.0704H13.5007C14.4429 21.0782 15.8562 20.4698 17.4258 20.4698H17.5822H17.6604H17.7396H23.6264C23.7827 19.634 24.2548 19.1015 24.8823 18.7982C25.5879 18.4173 26.453 18.3415 27.316 18.2628C28.8065 18.1111 30.2208 17.807 31.2392 17.047C32.1804 16.3628 32.8108 15.2948 32.5753 13.7748C32.4971 13.3938 32.6535 13.0906 32.9672 12.9381C33.0454 12.9381 33.2028 12.8623 33.281 12.8623C33.4383 12.8623 33.5165 12.8623 33.6729 12.8623C33.9866 12.9381 34.3003 13.2422 34.3785 13.6232C34.4567 14.6106 34.3785 15.6019 34.0658 16.5144C33.6729 17.2744 33.1236 18.0353 32.3378 18.5699C31.8667 18.874 31.3965 19.1015 30.8473 19.3308C30.3772 19.5582 29.9061 19.7098 29.3568 19.7866C29.1192 19.7866 28.7273 19.7866 28.3354 19.8624C27.3942 19.8624 26.1362 19.9392 25.6661 20.4698H31.7103C31.7885 20.4698 31.8666 20.4698 31.9448 20.4698ZM32.3378 21.2337C32.1804 21.2337 32.1022 21.2337 32.023 21.2337H31.9448H31.8666C31.7884 21.2337 31.7885 21.2337 31.7103 21.2337H24.9605H24.4904L24.5686 20.775C24.8031 19.254 26.8449 19.1014 28.3354 19.0256C28.6481 19.0256 29.041 19.0256 29.2756 18.9498C29.6715 18.874 30.1416 18.7982 30.5335 18.5699C31.0046 18.4173 31.4747 18.1869 31.8666 17.8828C32.5753 17.427 32.9672 16.8186 33.281 16.2102C33.5947 15.4473 33.6729 14.6106 33.5165 13.7748C33.5165 13.699 33.5165 13.699 33.4383 13.699C33.4383 13.6232 33.3591 13.6232 33.3591 13.6232C33.6729 15.6019 32.9672 16.8944 31.7103 17.7312C30.6117 18.4941 28.9628 18.874 27.3942 19.0256C26.6103 19.1014 25.8225 19.254 25.2742 19.4824C24.8031 19.7098 24.4904 20.1666 24.4112 20.8508V21.2337H24.0183H17.7396H17.6604H17.5822H17.504H17.4258C16.0907 21.2337 14.913 21.7653 14.051 22.602C13.1869 23.4388 12.6377 24.5816 12.6377 25.8742C12.6377 27.1696 13.1869 28.3096 14.051 29.1464C14.913 29.9851 16.0907 30.5176 17.4258 30.5176C18.1315 30.5176 18.76 30.365 19.3093 30.1376C19.9377 29.9092 20.487 29.5263 20.8789 29.0706L21.0353 28.918H21.1927H28.5699H28.7273L28.8065 29.0706C29.2756 29.5263 29.8279 29.9092 30.4553 30.1376C31.0046 30.365 31.6321 30.5176 32.3378 30.5176C33.6729 30.5176 34.8496 29.9851 35.7146 29.1464C36.5767 28.3096 37.126 27.1696 37.126 25.8742C37.126 24.5816 36.5767 23.4388 35.7146 22.602C34.8496 21.7653 33.6729 21.2337 32.3378 21.2337Z" fill="#563429"/>
</svg>
