<svg width="50" height="50" viewBox="0 0 50 50" fill="none" xmlns="http://www.w3.org/2000/svg">
<path fill-rule="evenodd" clip-rule="evenodd" d="M25.9798 3.8039C32.889 3.8039 36.8132 9.05482 40.8927 13.9267C43.9539 17.579 48.0374 20.0902 48.0374 25.1895C48.0374 32.9527 44.7407 38.812 38.3838 42.542C35.0059 44.5197 31.5529 47.8678 27.316 47.8678C19.4656 47.8678 9.65563 44.1397 5.73045 38.2036C3.61049 34.8546 2.27536 29.3753 2.27536 25.1895C2.27536 17.7315 6.12236 10.8819 12.0091 7.00129C15.5424 4.79324 21.5074 3.8039 25.9798 3.8039ZM26.1362 2.73873C33.5946 2.73873 37.8316 8.37064 42.1507 13.5458C45.4464 17.5032 49.8407 20.167 49.8407 25.6463C49.8407 33.9421 46.2302 40.2581 39.4814 44.2913C35.871 46.4226 32.1021 50 27.5515 50C19.1518 50 8.63423 46.0416 4.39532 39.5739C2.11899 36.0724 0.705688 30.1363 0.705688 25.6463C0.705688 17.6557 4.78824 10.2735 11.2243 6.16354C14.9129 3.72807 21.351 2.73873 26.1362 2.73873Z" fill="#563429"/>
<path fill-rule="evenodd" clip-rule="evenodd" d="M25.7442 1.06519C32.7326 1.06519 36.7339 6.46772 40.8926 11.3396C44.035 15.0677 48.1156 17.6557 48.1156 22.8308C48.1156 30.6688 44.7406 36.6817 38.3056 40.4865C34.9277 42.4652 31.3172 45.89 27.0803 45.89C19.0736 45.89 9.10528 42.0843 5.18009 35.9966C2.98295 32.6485 1.64783 27.0924 1.64783 22.8308C1.64783 15.297 5.49482 8.29483 11.538 4.33744C15.0702 2.05358 21.1134 1.06519 25.7442 1.06519Z" fill="#C3854B"/>
<path fill-rule="evenodd" clip-rule="evenodd" d="M40.0306 19.4818C40.5799 19.025 41.2886 18.8734 41.8369 18.4167C42.2288 18.0357 42.5425 17.6557 42.8562 17.2747C43.0126 16.8947 43.3274 16.6654 43.5619 16.3612C43.8756 15.9054 44.5843 16.437 44.9762 15.5244C45.3681 15.7528 45.6819 15.9812 45.9956 16.2096C45.2899 16.1328 44.5843 16.2854 43.9538 16.6654C43.8756 16.6654 43.4837 17.4273 43.0126 17.8073C41.6013 18.9492 42.0724 18.7967 40.0306 19.4818Z" fill="#9A6D45"/>
<path fill-rule="evenodd" clip-rule="evenodd" d="M40.0306 19.4818C40.5799 19.025 41.2094 18.7208 41.6795 18.265C42.1506 17.9599 42.4643 17.5031 42.7781 17.1231C42.9344 16.8189 43.2482 16.5128 43.4837 16.2854C43.7974 15.7528 44.5061 16.2854 44.898 15.3728C45.2117 15.6012 45.6037 15.8286 45.9174 16.057C45.2118 16.057 44.5061 16.2096 43.8756 16.5128C43.7974 16.5896 43.4055 17.1231 42.9344 17.5789C41.5231 18.7209 42.0724 18.7967 40.0306 19.4818Z" fill="#632918"/>
<path fill-rule="evenodd" clip-rule="evenodd" d="M5.96489 20.6986C5.41661 21.1563 5.02269 21.7647 4.4744 22.1447C4.0033 22.4508 3.5322 22.6792 3.0611 22.9066C2.66918 22.9834 2.35544 23.2108 2.0397 23.3634C1.49142 23.5908 1.88333 24.3528 0.785767 24.5044C0.942132 24.8853 1.09951 25.2663 1.33406 25.6463C1.41324 24.9611 1.72698 24.3528 2.19708 23.8202C2.27526 23.7434 3.0611 23.515 3.61038 23.2108C5.10187 22.1447 4.78814 22.5266 5.96489 20.6986Z" fill="#9A6D45"/>
<path fill-rule="evenodd" clip-rule="evenodd" d="M5.96499 20.6986C5.41671 21.1563 4.9446 21.6889 4.39532 22.0689C3.92522 22.3731 3.45311 22.6024 2.98301 22.8308C2.5911 22.9066 2.27536 23.135 1.96163 23.2108C1.33416 23.4392 1.72708 24.277 0.705688 24.4286C0.864059 24.8086 1.02042 25.1128 1.17779 25.4947C1.33416 24.8086 1.64789 24.2002 2.11899 23.6676C2.11899 23.5908 2.82565 23.3634 3.37493 23.0592C4.86642 21.9931 4.78824 22.5266 5.96499 20.6986Z" fill="#632918"/>
<path fill-rule="evenodd" clip-rule="evenodd" d="M13.5788 37.2901L13.8134 42.9978L11.1461 41.5517L13.5788 37.2901Z" fill="#9A6D45"/>
<path fill-rule="evenodd" clip-rule="evenodd" d="M13.5787 37.2142L12.8731 42.4651L10.0475 40.9432L13.5787 37.2142Z" fill="#632918"/>
<path fill-rule="evenodd" clip-rule="evenodd" d="M22.213 5.09741L22.6049 0.684231L20.3296 1.06519L21.5073 3.04292L22.213 5.09741Z" fill="#9A6D45"/>
<path fill-rule="evenodd" clip-rule="evenodd" d="M22.2129 5.09741L22.1348 0.760038L19.8574 1.06519L21.0352 3.04292L22.2129 5.09741Z" fill="#632918"/>
<path fill-rule="evenodd" clip-rule="evenodd" d="M36.8914 34.2463C37.2833 34.7789 37.9107 35.2356 38.2265 35.844C38.462 36.3008 38.6194 36.7575 38.854 37.2901C38.854 37.5943 39.0895 37.9743 39.1677 38.2805C39.325 38.8879 40.1089 38.5837 40.1871 39.6498C40.58 39.4982 40.9709 39.4204 41.3668 39.2678C40.6582 39.1162 40.1089 38.7362 39.5596 38.2037C39.5596 38.1279 39.4814 37.3659 39.1677 36.7575C38.2265 35.2356 38.6194 35.5398 36.8914 34.2463Z" fill="#9A6D45"/>
<path fill-rule="evenodd" clip-rule="evenodd" d="M36.8914 34.2462C37.2833 34.7788 37.7534 35.3123 38.0671 35.9207C38.3057 36.3765 38.5402 36.8333 38.6976 37.3659C38.6976 37.7459 38.9321 38.052 39.0113 38.3562C39.1677 38.9646 40.0307 38.6604 40.0307 39.7265C40.4226 39.5739 40.8145 39.4981 41.2095 39.3446C40.5008 39.192 39.9525 38.812 39.4814 38.2804C39.4032 38.2036 39.2469 37.5185 38.9321 36.9859C38.0671 35.464 38.6194 35.5398 36.8914 34.2462Z" fill="#632918"/>
<path fill-rule="evenodd" clip-rule="evenodd" d="M25.7442 1.06519C32.7326 1.06519 36.7339 6.46772 40.8927 11.3396C44.035 15.0677 48.1156 17.6557 48.1156 22.8308C48.1156 30.6688 44.7407 36.6817 38.3056 40.4865C34.9277 42.4652 31.3173 45.89 27.0804 45.89C19.0736 45.89 9.10531 42.0842 5.18013 35.9966C2.98299 32.6485 1.64786 27.0924 1.64786 22.8308C1.64786 15.297 5.49486 8.29483 11.538 4.33744C15.0703 2.05358 21.1134 1.06519 25.7442 1.06519ZM25.9016 3.84966e-05C33.4382 3.84966e-05 37.7533 5.70774 42.1506 10.9577C45.5255 14.9909 50 17.7315 50 23.2866C50 31.734 46.3094 38.1278 39.4032 42.2368C35.7928 44.4439 31.9448 48.0213 27.3941 48.0213C18.8381 48.0213 8.08392 43.9881 3.847 37.4417C1.49149 33.8662 0 27.8524 0 23.2866C0 15.2193 4.23892 7.68546 10.675 3.49969C14.521 1.06519 20.957 3.84966e-05 25.9016 3.84966e-05Z" fill="#7E3824"/>
<path d="M15.6987 32.0382L22.0566 23.2108L15.9343 14.9151H21.6647L24.7249 19.6344L28.0997 14.9151H33.5164L27.5515 23.0592L34.0657 32.0382H28.4135L24.7249 26.7124L21.1134 32.0382H15.6987Z" fill="white"/>
<path d="M22.3704 23.4392L16.4836 31.6582H20.9571L24.4112 26.4831L24.7249 26.0263L25.1168 26.4831L28.6481 31.6582H33.2809L27.2368 23.2867L27.0804 22.9835L27.2368 22.7551L32.7327 15.2971H28.2572L25.1168 19.8628L24.7249 20.3186L24.4112 19.8628L21.4292 15.2971H16.7182L22.3704 22.9835L22.5268 23.2109L22.3704 23.4392ZM15.3059 31.8108L21.5074 23.2109L15.6206 15.1435L15.1485 14.5351H15.9343H21.6648H21.8993L21.9785 14.6867L24.8031 18.8735L27.7079 14.6867L27.8643 14.5351H28.0998H33.5165H34.3785L33.9084 15.1435L28.0216 23.0593L34.3785 31.8108L34.8496 32.4202H34.0658H28.4135H28.179L28.0216 32.2666L24.7249 27.4724L21.5074 32.2666L21.351 32.4202H21.1135H15.6988H14.913L15.3059 31.8108Z" fill="#563429"/>
</svg>
