<svg width="50" height="50" viewBox="0 0 50 50" fill="none" xmlns="http://www.w3.org/2000/svg">
<path fill-rule="evenodd" clip-rule="evenodd" d="M25.9434 3.87573C32.9419 3.87573 36.8724 9.11872 40.8802 13.9066C43.9473 17.629 48.0364 20.1364 48.0364 25.229C48.0364 32.9028 44.7354 38.8299 38.3643 42.5542C35.0623 44.529 31.5263 47.8739 27.2816 47.8739C19.4186 47.8739 9.59294 44.1496 5.65944 38.1458C3.53908 34.8795 2.20182 29.4085 2.20182 25.229C2.20182 17.7823 6.05298 10.943 12.0275 7.06733C15.4892 4.86262 21.4637 3.87573 25.9434 3.87573ZM26.1793 2.73553C33.5704 2.73553 37.8151 8.43459 42.1402 13.6019C45.4412 17.5533 49.8435 20.2131 49.8435 25.6841C49.8435 33.9673 46.3066 40.2738 39.4666 44.3009C35.8514 46.43 32.0755 50 27.5959 50C19.1837 50 8.5689 45.9729 4.40349 39.5897C2.04419 36.0177 0.630615 30.1673 0.630615 25.6841C0.630615 17.7066 4.79604 10.3336 11.1641 6.23085C14.937 3.80004 21.3071 2.73553 26.1793 2.73553Z" fill="#563429"/>
<path fill-rule="evenodd" clip-rule="evenodd" d="M25.7083 1.14023C32.7822 1.14023 36.794 6.45987 40.8801 11.3981C44.0255 15.1215 48.1939 17.629 48.1939 22.8729C48.1939 30.7 44.8136 36.6272 38.3642 40.5029C34.9056 42.4776 31.3686 45.8206 27.0456 45.8206C19.1053 45.8206 9.11897 42.0982 5.11018 36.0177C2.9085 32.6757 1.57324 27.1281 1.57324 22.8729C1.57324 15.2739 5.50272 8.28321 11.5556 4.4075C15.0935 2.1271 21.1494 1.14023 25.7083 1.14023Z" fill="#C3854B"/>
<path fill-rule="evenodd" clip-rule="evenodd" d="M40.0168 19.4542C40.567 19.0729 41.2738 18.8448 41.826 18.4654C42.2185 18.086 42.6121 17.7066 42.9253 17.2495C43.0829 16.9458 43.3972 16.7178 43.5538 16.414C43.9473 15.957 44.6561 16.4897 45.0497 15.5019C45.3629 15.7299 45.6782 16.0336 45.9914 16.2607C45.2846 16.185 44.5748 16.3383 43.9473 16.6421C43.869 16.7177 43.5538 17.4009 43.0046 17.8579C41.6684 18.9972 42.0619 18.7691 40.0168 19.4542Z" fill="#9A6D45"/>
<path fill-rule="evenodd" clip-rule="evenodd" d="M40.0168 19.4542C40.567 19.0729 41.1955 18.7691 41.7477 18.3131C42.1402 17.9336 42.4544 17.5532 42.847 17.1729C43.0046 16.7934 43.3189 16.5654 43.4755 16.3383C43.869 15.8056 44.4965 16.3383 44.9714 15.4262C45.2846 15.6542 45.5998 15.8813 45.9131 16.1093C45.2063 16.0336 44.4965 16.185 43.869 16.5654C43.7897 16.5654 43.3972 17.1729 42.9253 17.5533C41.5087 18.7691 42.0619 18.7691 40.0168 19.4542Z" fill="#632918"/>
<path fill-rule="evenodd" clip-rule="evenodd" d="M5.8962 20.7448C5.34603 21.2009 5.03181 21.8084 4.40333 22.1888C4.01078 22.4925 3.45759 22.7205 2.98674 22.9486C2.6725 23.0243 2.35827 23.2523 1.96572 23.4056C1.41656 23.6327 1.8081 24.3925 0.788086 24.5439C0.944703 24.9243 1.10131 25.3047 1.25894 25.6841C1.33724 24.9243 1.65149 24.3159 2.12335 23.7851C2.20166 23.7851 2.98674 23.557 3.53891 23.1757C5.0318 22.1888 4.71756 22.5692 5.8962 20.7448Z" fill="#9A6D45"/>
<path fill-rule="evenodd" clip-rule="evenodd" d="M5.89636 20.7449C5.34619 21.201 4.87434 21.6561 4.32417 22.1131C3.85332 22.4169 3.37944 22.6449 2.90858 22.8729C2.51503 22.8729 2.20181 23.1757 1.88656 23.2524C1.3374 23.4814 1.72995 24.2402 0.630615 24.3926C0.788236 24.772 0.94485 25.1534 1.17978 25.5328C1.25909 24.8477 1.57334 24.2402 2.04419 23.7094C2.12351 23.6328 2.75198 23.4057 3.30115 23.0243C4.79604 21.9598 4.71771 22.4926 5.89636 20.7449Z" fill="#632918"/>
<path fill-rule="evenodd" clip-rule="evenodd" d="M13.5223 37.3103L13.7582 43.0093L11.0857 41.5654L13.5223 37.3103Z" fill="#9A6D45"/>
<path fill-rule="evenodd" clip-rule="evenodd" d="M13.5223 37.2346L12.8155 42.4775L9.98535 40.9579L13.5223 37.2346Z" fill="#632918"/>
<path fill-rule="evenodd" clip-rule="evenodd" d="M22.1714 5.09155L22.5629 0.760743L20.283 1.14015L21.4636 3.11489L22.1714 5.09155Z" fill="#9A6D45"/>
<path fill-rule="evenodd" clip-rule="evenodd" d="M22.1713 5.09155L22.092 0.836435L19.812 1.14015L20.9896 3.11489L22.1713 5.09155Z" fill="#632918"/>
<path fill-rule="evenodd" clip-rule="evenodd" d="M36.9504 34.271C37.343 34.8037 37.8932 35.2588 38.2074 35.7906C38.5216 36.2467 38.6783 36.7785 38.8379 37.2345C38.8379 37.6149 39.0748 37.9953 39.1531 38.2981C39.3097 38.8298 40.1731 38.6018 40.1731 39.5897C40.5667 39.514 40.9582 39.3626 41.4301 39.2869C40.7233 39.0589 40.0948 38.6775 39.624 38.2224C39.5447 38.1457 39.4663 37.3102 39.1531 36.7785C38.2857 35.2588 38.5999 35.5626 36.9504 34.271Z" fill="#9A6D45"/>
<path fill-rule="evenodd" clip-rule="evenodd" d="M36.8723 34.1953C37.2649 34.8037 37.7357 35.3345 38.1293 35.942C38.3642 36.3234 38.5218 36.8551 38.6784 37.3859C38.7597 37.6906 38.9174 38.07 38.9957 38.3747C39.1533 38.9812 40.0167 38.6775 40.095 39.742C40.4886 39.5897 40.8801 39.514 41.2737 39.3626C40.5669 39.1346 39.9384 38.8298 39.4665 38.2981C39.4665 38.2224 39.3099 37.5383 38.9957 37.0065C38.051 35.4112 38.6001 35.5626 36.8723 34.1953Z" fill="#632918"/>
<path fill-rule="evenodd" clip-rule="evenodd" d="M25.7083 1.14017C32.7822 1.14017 36.794 6.45981 40.8801 11.3981C44.0255 15.1215 48.1939 17.6289 48.1939 22.8729C48.1939 30.7 44.8136 36.6271 38.3642 40.5028C34.9055 42.4775 31.3686 45.8205 27.0456 45.8205C19.1053 45.8205 9.11894 42.0981 5.11015 36.0177C2.90847 32.6757 1.57322 27.128 1.57322 22.8729C1.57322 15.2738 5.50269 8.28315 11.5555 4.40744C15.0935 2.12704 21.1493 1.14017 25.7083 1.14017ZM25.9432 -3.05176e-05C33.492 -3.05176e-05 37.7357 5.77473 42.2183 11.0187C45.5203 15.0458 50 17.7823 50 23.328C50 31.7626 46.3848 38.1458 39.4665 42.2505C35.7699 44.3776 31.9188 48.0252 27.3608 48.0252C18.79 48.0252 8.01961 43.9972 3.77488 37.4616C1.41659 33.8906 0 27.8878 0 23.328C0 15.1981 4.16742 7.75043 10.6921 3.57196C14.465 1.06449 20.9897 -3.05176e-05 25.9432 -3.05176e-05Z" fill="#7E3824"/>
<path fill-rule="evenodd" clip-rule="evenodd" d="M36.4797 22.7205C36.7156 22.4925 36.8722 22.113 36.7156 21.8083C36.6373 21.5046 36.3221 21.2766 36.0088 21.2766L29.0876 20.7448C28.7743 20.7448 28.4591 20.5158 28.3025 20.2887L25.4723 11.8532C25.3147 11.5495 25.0015 11.3981 24.6862 11.3981C24.2947 11.3981 23.9764 11.5495 23.8981 11.8532L21.3852 20.2887C21.2276 20.5934 20.9897 20.8215 20.6754 20.8215L13.7582 21.4289C13.3656 21.5046 13.1307 21.7327 12.9721 22.0374C12.8938 22.3411 12.9721 22.7205 13.2873 22.9485L18.5551 27.2794C18.79 27.4317 18.9476 27.7364 18.8693 28.0401L17.2951 34.5747C17.2168 34.9551 17.3734 35.2588 17.6887 35.4869C17.9236 35.6382 18.3191 35.6382 18.6334 35.4869L24.5296 31.9915C24.7655 31.8382 25.1581 31.8382 25.394 31.9915L31.3686 35.4112C31.6828 35.5626 32.0753 35.5626 32.3113 35.3345C32.6255 35.1075 32.7038 34.8037 32.6255 34.4981L30.976 27.9645C30.8977 27.6588 31.0543 27.3551 31.2903 27.128L36.4797 22.7205Z" fill="white"/>
<path d="M37.1081 22.4168C37.1081 22.6449 36.9505 22.8729 36.7939 23.0243H36.7155L31.5261 27.4317C31.4468 27.5074 31.4468 27.5831 31.4468 27.6588C31.3685 27.7365 31.3685 27.8122 31.3685 27.8878L33.021 34.3467C33.0993 34.5747 33.0993 34.8795 33.021 35.1075C32.9417 35.3346 32.7821 35.4869 32.5471 35.6383C32.3895 35.7906 32.1546 35.8663 31.8393 35.8663C31.6044 35.942 31.3685 35.8663 31.1326 35.715L25.158 32.2953C25.158 32.2953 25.0014 32.2196 24.9231 32.2196C24.8438 32.2196 24.7655 32.2953 24.7655 32.2953L18.8693 35.8663C18.6333 35.942 18.3984 36.0177 18.0801 36.0177C17.8452 36.0177 17.6103 35.942 17.4517 35.7906C17.2167 35.6383 17.0601 35.4869 16.9818 35.2589C16.9035 35.0318 16.8242 34.7261 16.9035 34.4981L18.4767 27.9645C18.4767 27.8878 18.4767 27.8122 18.3984 27.7365C18.3984 27.6588 18.3191 27.5831 18.3191 27.5831L12.972 23.2523C12.8154 23.0243 12.6588 22.8729 12.5805 22.6449C12.5022 22.4168 12.5022 22.1131 12.5805 21.8841C12.6588 21.656 12.8154 21.5047 13.0513 21.3533C13.2089 21.2009 13.4439 21.0495 13.6798 21.0495L20.5971 20.4402C20.6754 20.4402 20.7537 20.3645 20.833 20.3645C20.9113 20.2888 20.9113 20.2131 20.9896 20.2131L23.5065 11.7775V11.7018C23.5848 11.4738 23.7414 11.3224 23.9764 11.1701C24.137 11.0187 24.3729 10.943 24.6862 10.943C24.9231 10.943 25.158 11.0187 25.394 11.1701C25.5506 11.3224 25.7082 11.4738 25.8648 11.7018V11.7775L28.696 20.1364C28.7743 20.1364 28.7743 20.2131 28.8526 20.2888C28.9309 20.2888 29.0092 20.3645 29.0875 20.3645L36.0088 20.8215C36.2437 20.8972 36.4796 20.9738 36.7155 21.1243C36.8722 21.2766 37.0288 21.429 37.1081 21.656C37.1864 21.9598 37.1864 22.1888 37.1081 22.4168ZM36.1654 22.4168C36.2437 22.3411 36.322 22.2654 36.322 22.1888C36.322 22.1131 36.322 22.0374 36.322 21.9598C36.322 21.8841 36.2437 21.8084 36.1654 21.7327C36.0871 21.656 36.0088 21.656 35.9295 21.656L29.0092 21.1243C28.7743 21.1243 28.5383 21.0496 28.3807 20.8972C28.2241 20.8215 28.0675 20.5935 27.9099 20.4402V20.3645L25.0797 12.0075C25.0014 11.9299 25.0014 11.8532 24.9231 11.8532C24.8438 11.7775 24.7655 11.7775 24.6862 11.7775C24.6079 11.7775 24.4512 11.7775 24.4512 11.8532C24.3729 11.8532 24.2946 11.9299 24.2946 12.0075L21.7777 20.4402C21.6994 20.6692 21.5428 20.8215 21.3068 20.9739C21.1492 21.1243 20.9113 21.2009 20.6754 21.2009L13.7581 21.8841C13.6798 21.8841 13.6005 21.8841 13.5222 21.9598C13.4439 21.9598 13.4439 22.0374 13.4439 22.1131C13.3656 22.2654 13.3656 22.3411 13.3656 22.4168C13.4439 22.4925 13.4439 22.5692 13.5222 22.6449L18.8693 26.9757C19.0269 27.128 19.1052 27.2794 19.1835 27.5074C19.2618 27.7365 19.2618 27.9645 19.2618 28.1159V28.1916L17.6886 34.7261C17.6886 34.8038 17.6886 34.8794 17.7669 34.9551C17.7669 35.0318 17.8452 35.1075 17.9235 35.1075C18.0018 35.1832 18.0801 35.1832 18.1594 35.1832C18.2408 35.2589 18.3191 35.1832 18.3984 35.1832L24.2946 31.6112C24.5295 31.5355 24.6862 31.4588 24.9231 31.4588C25.158 31.4588 25.3939 31.5355 25.6299 31.6112L31.6044 35.0318C31.6827 35.1075 31.761 35.1075 31.8393 35.1075C31.9187 35.1075 31.997 35.0318 32.0753 35.0318C32.1546 34.9551 32.2329 34.8794 32.2329 34.8037C32.2329 34.7261 32.2329 34.6504 32.2329 34.5748L30.5824 28.0402C30.5041 27.8121 30.5824 27.5831 30.5824 27.4317V27.3551C30.6617 27.2037 30.8193 26.9757 30.9759 26.8233L36.1654 22.4168Z" fill="#563429"/>
</svg>
